<svg width="340" height="190" viewBox="0 0 340 190" fill="none" xmlns="http://www.w3.org/2000/svg">
<g clip-path="url(#clip0_2023_39282)">
<path d="M0 8C0 3.58172 3.58172 0 8 0H332C336.418 0 340 3.58172 340 8V190H0V8Z" fill="#CAF2EC"/>
<g clip-path="url(#clip1_2023_39282)" filter="url(#filter0_d_2023_39282)">
<path d="M169 217.114V176.864H27.3979V217.114H169Z" fill="white"/>
<path d="M164.535 212.102V181.875H144.944V212.102H164.535Z" fill="#8DE2D6"/>
<path opacity="0.8" d="M140.775 212.102V181.875H121.184V212.102H140.775Z" fill="#8DE2D6"/>
<path opacity="0.6" d="M117.038 212.125V181.898H97.4473V212.125H117.038Z" fill="#8DE2D6"/>
<path opacity="0.4" d="M93.3013 212.102V181.875H73.7102V212.102H93.3013Z" fill="#8DE2D6"/>
<path opacity="0.2" d="M69.5642 212.102V181.875H49.9732V212.102H69.5642Z" fill="#8DE2D6"/>
<g opacity="0.2">
<path d="M164.535 212.102V181.875H144.944V212.102H164.535Z" fill="#101E37"/>
<path opacity="0.8" d="M140.775 212.102V181.875H121.184V212.102H140.775Z" fill="#101E37"/>
<path opacity="0.6" d="M117.038 212.125V181.898H97.4471V212.125H117.038Z" fill="#101E37"/>
<path opacity="0.4" d="M93.301 212.102V181.875H73.71V212.102H93.301Z" fill="#101E37"/>
<path opacity="0.2" d="M69.5642 212.102V181.875H49.9732V212.102H69.5642Z" fill="#101E37"/>
</g>
<path d="M144.591 117.88L116.128 89.4199L16.0001 189.539L44.4631 218L144.591 117.88Z" fill="white"/>
<path d="M137.855 117.518L116.48 96.1439L102.627 109.996L124.002 131.369L137.855 117.518Z" fill="#8DE2D6"/>
<path opacity="0.8" d="M121.076 134.321L99.7009 112.948L85.848 126.8L107.223 148.173L121.076 134.321Z" fill="#8DE2D6"/>
<path opacity="0.6" d="M104.281 151.109L82.9055 129.735L69.0526 143.587L90.428 164.961L104.281 151.109Z" fill="#8DE2D6"/>
<path opacity="0.4" d="M87.5085 167.897L66.1331 146.523L52.2801 160.375L73.6555 181.748L87.5085 167.897Z" fill="#8DE2D6"/>
<path opacity="0.2" d="M70.7131 184.684L49.3376 163.311L35.4847 177.163L56.8601 198.536L70.7131 184.684Z" fill="#8DE2D6"/>
<g opacity="0.1">
<path d="M137.856 117.518L116.48 96.1439L102.627 109.996L124.003 131.369L137.856 117.518Z" fill="#101E37"/>
<path opacity="0.8" d="M121.077 134.321L99.7012 112.948L85.8482 126.799L107.224 148.173L121.077 134.321Z" fill="#101E37"/>
<path opacity="0.6" d="M104.281 151.109L82.9058 129.735L69.0528 143.587L90.4282 164.96L104.281 151.109Z" fill="#101E37"/>
<path opacity="0.4" d="M87.5087 167.897L66.1333 146.523L52.2804 160.375L73.6558 181.748L87.5087 167.897Z" fill="#101E37"/>
<path opacity="0.2" d="M70.7133 184.684L49.3379 163.31L35.485 177.162L56.8604 198.536L70.7133 184.684Z" fill="#101E37"/>
</g>
<path d="M57.149 64.9999H16.8962V206.59H57.149V64.9999Z" fill="white"/>
<path d="M52.1147 69.4872H21.8853V89.0765H52.1147V69.4872Z" fill="#8DE2D6"/>
<path opacity="0.8" d="M52.1147 93.245H21.8853V112.834H52.1147V93.245Z" fill="#8DE2D6"/>
<path opacity="0.6" d="M52.1147 116.98H21.8853V136.569H52.1147V116.98Z" fill="#8DE2D6"/>
<path opacity="0.4" d="M52.1147 140.715H21.8853V160.305H52.1147V140.715Z" fill="#8DE2D6"/>
<path opacity="0.2" d="M52.1147 164.45H21.8853V184.039H52.1147V164.45Z" fill="#8DE2D6"/>
</g>
<path d="M312 114.022H252V37H296.541L312 51.6845V114.022Z" fill="#8DE2D6"/>
<path d="M312 91.4786H252V114.022H312V91.4786Z" fill="#F3FCFB"/>
<path d="M252 91.4787L270.972 73.2952L288.181 91.4787H252Z" fill="#FFEB99"/>
<path d="M276.364 91.479L298.907 62.999L312 79.5334V91.479H276.364Z" fill="#FFEB99"/>
<path d="M271.646 61.3072C271.646 62.6374 271.252 63.9377 270.513 65.0437C269.774 66.1497 268.723 67.0118 267.494 67.5208C266.266 68.0299 264.913 68.1631 263.609 67.9036C262.304 67.6441 261.106 67.0035 260.165 66.0629C259.224 65.1223 258.584 63.9239 258.324 62.6193C258.065 61.3146 258.198 59.9623 258.707 58.7334C259.216 57.5044 260.078 56.454 261.184 55.715C262.29 54.976 263.59 54.5815 264.921 54.5815C266.704 54.5815 268.415 55.2901 269.676 56.5514C270.938 57.8127 271.646 59.5234 271.646 61.3072Z" fill="white"/>
<path d="M296.541 37L312 51.6845H296.541V37Z" fill="#F3FCFB"/>
<path d="M265.939 105.26C265.99 105.242 266.044 105.235 266.097 105.238C266.151 105.242 266.204 105.256 266.252 105.28C266.3 105.304 266.343 105.338 266.378 105.379C266.413 105.419 266.439 105.467 266.455 105.518C266.684 106.263 267.174 106.901 267.835 107.314C268.495 107.727 269.283 107.888 270.053 107.768C270.823 107.648 271.524 107.254 272.027 106.659C272.53 106.064 272.802 105.308 272.794 104.529V96.9859C272.794 96.8756 272.837 96.7699 272.915 96.6919C272.993 96.6139 273.099 96.5701 273.21 96.5701C273.319 96.5737 273.422 96.6186 273.5 96.6958C273.577 96.7731 273.622 96.8768 273.625 96.9859V104.529C273.625 105.502 273.277 106.442 272.645 107.181C272.013 107.921 271.138 108.41 270.177 108.562C269.217 108.715 268.233 108.519 267.404 108.011C266.574 107.503 265.953 106.716 265.652 105.791C265.621 105.683 265.633 105.566 265.687 105.467C265.741 105.368 265.831 105.293 265.939 105.26Z" fill="#9EAAB8"/>
<path d="M276.881 96.9859C276.881 96.8756 276.924 96.7699 277.002 96.6919C277.08 96.6139 277.186 96.5701 277.296 96.5701H280.695C281.604 96.5701 282.476 96.9312 283.119 97.5739C283.761 98.2167 284.122 99.0884 284.122 99.9974C284.122 100.906 283.761 101.778 283.119 102.421C282.476 103.064 281.604 103.425 280.695 103.425H277.712V108.243C277.712 108.353 277.669 108.459 277.591 108.537C277.513 108.615 277.407 108.659 277.296 108.659C277.186 108.659 277.08 108.615 277.002 108.537C276.924 108.459 276.881 108.353 276.881 108.243V96.9859ZM280.695 102.622C281.384 102.614 282.042 102.336 282.527 101.848C283.013 101.36 283.287 100.7 283.291 100.012C283.291 99.3233 283.017 98.6631 282.53 98.1764C282.044 97.6896 281.384 97.4161 280.695 97.4161H277.712V102.622H280.695Z" fill="#9EAAB8"/>
<path d="M292.526 103.195C292.471 103.197 292.416 103.188 292.364 103.168C292.313 103.148 292.266 103.117 292.227 103.078C292.188 103.039 292.158 102.992 292.138 102.941C292.117 102.89 292.108 102.835 292.11 102.78C292.108 102.724 292.117 102.668 292.137 102.616C292.157 102.564 292.188 102.516 292.227 102.476C292.265 102.436 292.312 102.404 292.363 102.382C292.415 102.361 292.47 102.349 292.526 102.349H296.297C296.404 102.36 296.502 102.41 296.574 102.49C296.646 102.569 296.685 102.673 296.685 102.78V106.967C296.668 107.087 296.613 107.198 296.527 107.282C295.765 107.923 294.86 108.37 293.888 108.585C292.917 108.8 291.907 108.776 290.947 108.516C289.986 108.256 289.103 107.768 288.372 107.092C287.641 106.417 287.084 105.575 286.75 104.637C286.415 103.7 286.312 102.696 286.45 101.71C286.588 100.725 286.962 99.7871 287.541 98.9775C288.12 98.168 288.886 97.5105 289.774 97.0614C290.662 96.6122 291.645 96.3847 292.641 96.3981C294.057 96.3994 295.432 96.8795 296.541 97.7605C296.615 97.8378 296.656 97.9405 296.656 98.0473C296.656 98.1541 296.615 98.2568 296.541 98.3341C296.459 98.4097 296.352 98.4516 296.24 98.4516C296.128 98.4516 296.021 98.4097 295.939 98.3341C295.284 97.7744 294.503 97.3822 293.663 97.1912C292.822 97.0002 291.949 97.016 291.116 97.2373C290.283 97.4587 289.517 97.8789 288.883 98.4619C288.248 99.0449 287.765 99.7732 287.474 100.584C287.184 101.395 287.094 102.265 287.214 103.118C287.334 103.971 287.659 104.783 288.161 105.482C288.664 106.182 289.329 106.749 290.099 107.135C290.869 107.521 291.722 107.715 292.583 107.698C293.726 107.693 294.838 107.332 295.767 106.666V103.124L292.526 103.195Z" fill="#9EAAB8"/>
<g filter="url(#filter1_d_2023_39282)">
<path opacity="0.7" d="M273 46H67V162H273V46Z" fill="white"/>
<path d="M273.343 163.275H66V26H273.343V163.275ZM67.06 162.215H272.283V27.06H67.06V162.215Z" fill="#1C345F"/>
<path d="M272.814 26.5306H66.5308V46.2473H272.814V26.5306Z" fill="#8DE2D6"/>
<path d="M273.343 46.7767H66V26H273.343V46.7767ZM67.06 45.7167H272.283V27.06H67.06V45.7167Z" fill="#1C345F"/>
<path d="M85.0387 36.5164C85.0387 37.4976 84.7477 38.4567 84.2026 39.2726C83.6575 40.0884 82.8827 40.7242 81.9762 41.0997C81.0697 41.4752 80.0722 41.5735 79.1098 41.382C78.1475 41.1906 77.2635 40.7181 76.5697 40.0243C75.8759 39.3305 75.4034 38.4466 75.212 37.4842C75.0206 36.5219 75.1189 35.5244 75.4943 34.6179C75.8698 33.7114 76.5057 32.9366 77.3215 32.3915C78.1373 31.8464 79.0965 31.5554 80.0777 31.5554C81.3934 31.5554 82.6553 32.0781 83.5856 33.0085C84.516 33.9388 85.0387 35.2007 85.0387 36.5164Z" fill="#FF9500"/>
<path d="M105.307 36.5164C105.307 37.4976 105.016 38.4567 104.471 39.2726C103.926 40.0884 103.151 40.7242 102.244 41.0997C101.338 41.4752 100.34 41.5735 99.3779 41.382C98.4156 41.1906 97.5316 40.7181 96.8378 40.0243C96.144 39.3305 95.6715 38.4466 95.4801 37.4842C95.2887 36.5219 95.3869 35.5244 95.7624 34.6179C96.1379 33.7114 96.7738 32.9366 97.5896 32.3915C98.4054 31.8464 99.3646 31.5554 100.346 31.5554C101.661 31.5554 102.923 32.0781 103.854 33.0085C104.784 33.9388 105.307 35.2007 105.307 36.5164Z" fill="#F3F6F9"/>
<path d="M125.552 36.5164C125.552 37.4976 125.261 38.4567 124.716 39.2726C124.171 40.0884 123.396 40.7242 122.49 41.0997C121.583 41.4752 120.586 41.5735 119.623 41.382C118.661 41.1906 117.777 40.7181 117.083 40.0243C116.389 39.3305 115.917 38.4466 115.725 37.4842C115.534 36.5219 115.632 35.5244 116.008 34.6179C116.383 33.7114 117.019 32.9366 117.835 32.3915C118.651 31.8464 119.61 31.5554 120.591 31.5554C121.907 31.5554 123.169 32.0781 124.099 33.0085C125.029 33.9388 125.552 35.2007 125.552 36.5164Z" fill="#336ACC"/>
<path d="M191.281 100.705C191.281 100.705 190.93 120.228 178.441 142.346H160.901C148.412 120.228 148.079 100.705 148.079 100.705C166.005 90.6017 166.479 68.0447 166.479 68.0447H168.233V103.81C166.913 104.119 165.754 104.903 164.974 106.012C164.195 107.121 163.851 108.478 164.007 109.824C164.163 111.171 164.808 112.413 165.82 113.314C166.832 114.216 168.14 114.714 169.496 114.714C170.851 114.714 172.159 114.216 173.171 113.314C174.183 112.413 174.828 111.171 174.984 109.824C175.14 108.478 174.796 107.121 174.017 106.012C173.237 104.903 172.078 104.119 170.758 103.81V68.0447H172.512C172.512 68.0447 173.126 90.6017 191.281 100.705Z" fill="#1C345F"/>
<path d="M182.581 140.206H156.568V151.151H182.581V140.206Z" fill="#2BAB98"/>
<path d="M229.87 126.542H228.116C228.116 110.995 221.94 96.0849 210.947 85.0915C199.953 74.0981 185.043 67.922 169.496 67.922C153.949 67.922 139.038 74.0981 128.045 85.0915C117.052 96.0849 110.876 110.995 110.876 126.542H109.122C109.122 118.614 110.683 110.763 113.717 103.438C116.751 96.113 121.199 89.4574 126.805 83.8512C132.411 78.2449 139.067 73.7978 146.392 70.7637C153.717 67.7296 161.567 66.168 169.496 66.168C177.424 66.168 185.275 67.7296 192.6 70.7637C199.925 73.7978 206.581 78.2449 212.187 83.8512C217.793 89.4574 222.24 96.113 225.274 103.438C228.308 110.763 229.87 118.614 229.87 126.542Z" fill="#1C345F"/>
<path d="M229.063 65.4312H108.701V67.1852H229.063V65.4312Z" fill="#1C345F"/>
<path d="M116.261 120.35H103.877V132.734H116.261V120.35Z" fill="white"/>
<path d="M117.138 133.593H103V119.473H117.138V133.593ZM104.754 131.839H115.384V121.227H104.754V131.839Z" fill="#1C345F"/>
<path d="M116.261 60.1165H103.877V72.5H116.261V60.1165Z" fill="white"/>
<path d="M117.138 73.3068H103V59.2744H117.138V73.3068ZM104.754 71.5527H115.384V61.0285H104.754V71.5527Z" fill="#1C345F"/>
<path d="M235.255 120.35H222.871V132.734H235.255V120.35Z" fill="white"/>
<path d="M236.132 133.593H221.994V119.473H236.132V133.593ZM223.748 131.839H234.378V121.227H223.748V131.839Z" fill="#1C345F"/>
<path d="M235.255 60.1165H222.871V72.5H235.255V60.1165Z" fill="white"/>
<path d="M236.132 73.3068H221.994V59.2744H236.132V73.3068ZM223.748 71.5527H234.378V61.0285H223.748V71.5527Z" fill="#1C345F"/>
</g>
<g filter="url(#filter2_d_2023_39282)">
<rect width="26" height="26" rx="2" transform="matrix(1 0 0 -1 191 176)" fill="#FFCC00"/>
<rect width="26" height="26" rx="2" transform="matrix(1 0 0 -1 225 176)" fill="#336ACC"/>
<rect width="26" height="26" rx="2" transform="matrix(1 0 0 -1 259 176)" fill="#8DE2D6"/>
<rect width="26" height="26" rx="2" transform="matrix(1 0 0 -1 293 176)" fill="#F3F6F9"/>
</g>
</g>
<defs>
<filter id="filter0_d_2023_39282" x="8" y="57" width="169" height="169" filterUnits="userSpaceOnUse" color-interpolation-filters="sRGB">
<feFlood flood-opacity="0" result="BackgroundImageFix"/>
<feColorMatrix in="SourceAlpha" type="matrix" values="0 0 0 0 0 0 0 0 0 0 0 0 0 0 0 0 0 0 127 0" result="hardAlpha"/>
<feOffset/>
<feGaussianBlur stdDeviation="4"/>
<feComposite in2="hardAlpha" operator="out"/>
<feColorMatrix type="matrix" values="0 0 0 0 0 0 0 0 0 0 0 0 0 0 0 0 0 0 0.08 0"/>
<feBlend mode="normal" in2="BackgroundImageFix" result="effect1_dropShadow_2023_39282"/>
<feBlend mode="normal" in="SourceGraphic" in2="effect1_dropShadow_2023_39282" result="shape"/>
</filter>
<filter id="filter1_d_2023_39282" x="58" y="18" width="223.343" height="153.275" filterUnits="userSpaceOnUse" color-interpolation-filters="sRGB">
<feFlood flood-opacity="0" result="BackgroundImageFix"/>
<feColorMatrix in="SourceAlpha" type="matrix" values="0 0 0 0 0 0 0 0 0 0 0 0 0 0 0 0 0 0 127 0" result="hardAlpha"/>
<feOffset/>
<feGaussianBlur stdDeviation="4"/>
<feComposite in2="hardAlpha" operator="out"/>
<feColorMatrix type="matrix" values="0 0 0 0 0 0 0 0 0 0 0 0 0 0 0 0 0 0 0.08 0"/>
<feBlend mode="normal" in2="BackgroundImageFix" result="effect1_dropShadow_2023_39282"/>
<feBlend mode="normal" in="SourceGraphic" in2="effect1_dropShadow_2023_39282" result="shape"/>
</filter>
<filter id="filter2_d_2023_39282" x="183" y="142" width="144" height="42" filterUnits="userSpaceOnUse" color-interpolation-filters="sRGB">
<feFlood flood-opacity="0" result="BackgroundImageFix"/>
<feColorMatrix in="SourceAlpha" type="matrix" values="0 0 0 0 0 0 0 0 0 0 0 0 0 0 0 0 0 0 127 0" result="hardAlpha"/>
<feOffset/>
<feGaussianBlur stdDeviation="4"/>
<feComposite in2="hardAlpha" operator="out"/>
<feColorMatrix type="matrix" values="0 0 0 0 0 0 0 0 0 0 0 0 0 0 0 0 0 0 0.08 0"/>
<feBlend mode="normal" in2="BackgroundImageFix" result="effect1_dropShadow_2023_39282"/>
<feBlend mode="normal" in="SourceGraphic" in2="effect1_dropShadow_2023_39282" result="shape"/>
</filter>
<clipPath id="clip0_2023_39282">
<path d="M0 8C0 3.58172 3.58172 0 8 0H332C336.418 0 340 3.58172 340 8V190H0V8Z" fill="white"/>
</clipPath>
<clipPath id="clip1_2023_39282">
<rect width="153" height="153" fill="white" transform="translate(16 65)"/>
</clipPath>
</defs>
</svg>
