<svg width="340" height="190" viewBox="0 0 340 190" fill="none" xmlns="http://www.w3.org/2000/svg">
<g clip-path="url(#clip0_2023_39280)">
<path d="M0 8C0 3.58172 3.58172 0 8 0H332C336.418 0 340 3.58172 340 8V190H0V8Z" fill="#ADC3EB"/>
<path d="M301.793 114.772L305.817 108.308L303.831 107.083C303.546 106.904 303.317 106.65 303.169 106.349C303.021 106.048 302.959 105.712 302.991 105.378C303.013 105 303.013 104.62 302.991 104.241C302.981 103.907 303.064 103.576 303.232 103.287C303.4 102.997 303.645 102.76 303.94 102.602L306 101.501L302.421 94.8259L300.361 95.9263C300.065 96.0829 299.732 96.1542 299.398 96.1323C299.064 96.1104 298.742 95.9962 298.469 95.8024C298.157 95.5854 297.833 95.3859 297.498 95.2049C297.202 95.0463 296.957 94.8091 296.788 94.5197C296.619 94.2303 296.534 93.9 296.541 93.5652L296.614 91.2332L288.996 91L288.923 93.3393C288.909 93.6736 288.803 93.9975 288.616 94.2753C288.429 94.5531 288.169 94.7739 287.864 94.9134C287.689 94.9862 287.528 95.0737 287.36 95.1612C287.192 95.2486 287.031 95.3433 286.87 95.4381C286.586 95.6128 286.259 95.7053 285.925 95.7053C285.591 95.7053 285.263 95.6128 284.979 95.4381L282.977 94.2065L278.96 100.67L280.947 101.902C281.231 102.081 281.46 102.335 281.608 102.636C281.757 102.937 281.818 103.273 281.787 103.607C281.753 103.983 281.74 104.36 281.75 104.737C281.76 105.071 281.677 105.402 281.509 105.691C281.341 105.981 281.096 106.218 280.801 106.377L278.741 107.477L282.349 114.189L284.402 113.045C284.697 112.888 285.031 112.817 285.365 112.839C285.699 112.861 286.021 112.975 286.293 113.169C286.605 113.382 286.926 113.579 287.258 113.759C287.554 113.916 287.801 114.153 287.97 114.443C288.139 114.732 288.224 115.063 288.214 115.398L288.149 117.738L295.767 117.971L295.84 115.639C295.855 115.305 295.961 114.981 296.148 114.704C296.335 114.426 296.595 114.205 296.899 114.065L297.41 113.817C297.571 113.722 297.739 113.635 297.9 113.533C298.185 113.358 298.514 113.265 298.849 113.265C299.185 113.265 299.513 113.358 299.799 113.533L301.793 114.772ZM295.358 109.969C294.269 110.551 293.032 110.797 291.803 110.677C290.574 110.557 289.408 110.076 288.453 109.295C287.498 108.514 286.796 107.468 286.437 106.29C286.077 105.111 286.076 103.852 286.433 102.673C286.79 101.494 287.49 100.446 288.444 99.6638C289.398 98.8811 290.562 98.3981 291.791 98.2758C293.02 98.1535 294.258 98.3974 295.347 98.9767C296.437 99.556 297.331 100.445 297.914 101.53C298.303 102.252 298.546 103.042 298.628 103.857C298.71 104.672 298.63 105.495 298.392 106.279C298.155 107.063 297.764 107.793 297.244 108.426C296.723 109.059 296.082 109.584 295.358 109.969Z" fill="#D9E2F2"/>
<path d="M100.929 47.8181L98.2555 43.1978L96.8385 44.0213C96.6348 44.1381 96.4024 44.1958 96.1676 44.1881C95.9328 44.1804 95.7047 44.1075 95.5091 43.9776C95.2871 43.8308 95.0553 43.6993 94.8153 43.5841C94.6002 43.4823 94.4178 43.3227 94.2888 43.1231C94.1597 42.9235 94.0891 42.692 94.0848 42.4545V40.8148H88.7382V42.4472C88.7356 42.6851 88.6657 42.9173 88.5365 43.1172C88.4072 43.3171 88.2239 43.4764 88.0078 43.5768C87.7686 43.6937 87.5369 43.8251 87.3139 43.9703C87.1183 44.1002 86.8903 44.1731 86.6554 44.1808C86.4206 44.1885 86.1883 44.1308 85.9845 44.014L84.5675 43.1978L81.8942 47.8181L83.3185 48.6343C83.5217 48.7542 83.6873 48.9281 83.797 49.1366C83.9067 49.3451 83.956 49.58 83.9394 49.8149C83.9394 49.946 83.9394 50.0699 83.9394 50.2084C83.9394 50.3468 83.9394 50.4707 83.9394 50.5946C83.957 50.8278 83.9089 51.0613 83.8004 51.2686C83.692 51.476 83.5276 51.6489 83.3258 51.7679L81.865 52.5914L84.5383 57.2117L85.9626 56.3882C86.1675 56.2741 86.4 56.2185 86.6345 56.2275C86.869 56.2365 87.0964 56.3097 87.292 56.4392C87.5125 56.5843 87.7418 56.7158 87.9786 56.8327C88.1947 56.9331 88.378 57.0924 88.5073 57.2923C88.6365 57.4921 88.7064 57.7244 88.709 57.9623V59.5947H94.0556V57.9623C94.0599 57.7248 94.1305 57.4932 94.2596 57.2937C94.3886 57.0941 94.5709 56.9345 94.786 56.8327C95.0237 56.7174 95.2531 56.5859 95.4726 56.4392C95.6696 56.3099 95.8982 56.2368 96.1338 56.2278C96.3694 56.2188 96.603 56.2743 96.8093 56.3882L98.2263 57.2117L100.9 52.5914L99.4753 51.7752C99.2739 51.6514 99.1111 51.4739 99.0052 51.2627C98.8994 51.0516 98.8548 50.8151 98.8764 50.58C98.8764 50.4489 98.8764 50.3177 98.8764 50.1865C98.8764 50.0553 98.8764 49.9242 98.8764 49.793C98.8598 49.5581 98.9091 49.3232 99.0187 49.1147C99.1284 48.9062 99.2941 48.7323 99.4972 48.6124L100.929 47.8181ZM95.8159 50.2084C95.8159 51.0732 95.5589 51.9186 95.0773 52.6376C94.5958 53.3567 93.9113 53.9171 93.1105 54.248C92.3097 54.579 91.4286 54.6656 90.5785 54.4969C89.7283 54.3281 88.9474 53.9117 88.3345 53.3002C87.7216 52.6887 87.3042 51.9096 87.1351 51.0614C86.966 50.2132 87.0528 49.3341 87.3845 48.5351C87.7162 47.7361 88.2779 47.0532 88.9986 46.5728C89.7193 46.0923 90.5667 45.8359 91.4334 45.8359C92.5957 45.8359 93.7104 46.2966 94.5323 47.1166C95.3542 47.9366 95.8159 49.0487 95.8159 50.2084Z" fill="#D9E2F2"/>
<path fill-rule="evenodd" clip-rule="evenodd" d="M62.2046 123L61.797 128.167C59.151 128.678 56.6174 129.7 54.3432 131.187L50.2113 127.657L45.1788 132.678L48.6455 136.726C47.8061 137.934 47.0935 139.234 46.5237 140.606C46.0646 141.711 45.7041 142.849 45.4437 144.006L40 144.433V151.531L45.2156 151.94C45.2525 152.163 45.2931 152.385 45.3373 152.608C45.8283 155.071 46.7604 157.413 48.0762 159.524L44.6674 163.496L49.6999 168.517L53.4599 165.317C55.7347 166.978 58.3318 168.167 61.0967 168.8L61.4815 173.684H68.6031L68.96 169.079C70.5871 168.826 72.1868 168.38 73.7242 167.744C74.8881 167.263 76.0003 166.68 77.049 166.004L80.5893 169.028L85.6218 164.007L82.7099 160.607C82.8311 160.437 82.9499 160.265 83.0661 160.092C84.5905 157.814 85.6408 155.27 86.1712 152.61L90.8004 152.253V145.147L86.2281 144.794C85.7053 141.959 84.596 139.262 82.9722 136.879L86.133 133.188L81.1004 128.167L77.3889 131.331C75.0737 129.775 72.4671 128.699 69.7266 128.168L69.3188 123H62.2046ZM65.7618 158.25C63.839 158.25 61.9594 157.681 60.3607 156.615C58.7619 155.549 57.5159 154.034 56.78 152.262C56.0442 150.49 55.8517 148.539 56.2268 146.658C56.6019 144.776 57.5278 143.048 58.8875 141.691C60.2471 140.335 61.9793 139.411 63.8652 139.037C65.751 138.663 67.7058 138.855 69.4822 139.589C71.2587 140.323 72.777 141.566 73.8452 143.161C74.9135 144.756 75.4837 146.632 75.4837 148.55C75.4846 149.824 75.2338 151.086 74.7456 152.263C74.2574 153.44 73.5413 154.51 72.6383 155.411C71.7354 156.312 70.6633 157.026 69.4834 157.513C68.3034 158 67.0388 158.251 65.7618 158.25Z" fill="#336ACC"/>
<path fill-rule="evenodd" clip-rule="evenodd" d="M253.315 9L252.907 14.1752C250.264 14.687 247.734 15.7081 245.462 17.1941L241.322 13.6572L236.289 18.6783L239.765 22.7357C238.927 23.9429 238.216 25.2413 237.647 26.6117C237.188 27.7169 236.828 28.8545 236.567 30.0114L231.11 30.4324V37.5377L236.341 37.9412C236.378 38.1636 236.418 38.3858 236.462 38.6074C236.953 41.0672 237.883 43.4046 239.196 45.5131L235.778 49.4964L240.81 54.5174L244.58 51.3094C246.853 52.97 249.449 54.1583 252.212 54.7917L252.592 59.6849H259.713L260.071 55.0722C261.699 54.8196 263.298 54.3739 264.836 53.7386C265.998 53.2582 267.109 52.6759 268.156 52.0014L271.7 55.0282L276.732 50.0071L273.819 46.6057C273.94 46.4364 274.059 46.265 274.175 46.0917C275.699 43.8159 276.749 41.2736 277.28 38.6152L281.911 38.2515V31.1535L277.338 30.7944C277.075 29.3637 276.66 27.9611 276.1 26.6105C275.554 25.2968 274.877 24.0456 274.079 22.8756L277.243 19.1881L272.211 14.167L268.501 17.3359C267.351 16.5631 266.124 15.9051 264.837 15.3734C263.544 14.8394 262.204 14.4383 260.837 14.174L260.429 9H253.315ZM256.872 44.2493C254.949 44.2493 253.069 43.6802 251.47 42.6141C249.871 41.548 248.625 40.0327 247.89 38.2599C247.154 36.4871 246.962 34.5364 247.338 32.6547C247.713 30.7729 248.64 29.0446 250 27.6884C251.361 26.3322 253.094 25.409 254.98 25.0355C256.866 24.6621 258.821 24.8552 260.598 25.5905C262.374 26.3257 263.892 27.5701 264.959 29.1661C266.026 30.7622 266.595 32.6382 266.594 34.557C266.594 35.8304 266.342 37.0913 265.854 38.2677C265.365 39.4441 264.649 40.5129 263.746 41.4131C262.843 42.3132 261.771 43.027 260.592 43.5136C259.413 44.0003 258.149 44.2503 256.872 44.2493Z" fill="#ECF0F9"/>
<path d="M318.518 165.718H316.691V164.482H317.3V163.871H318.518V165.718Z" fill="#2E569E"/>
<path d="M231.323 165.718H229.496V163.871H230.714V164.482H231.323V165.718Z" fill="#2E569E"/>
<path d="M230.714 78.3389H229.496V76.4928H231.323V77.7286H230.714V78.3389Z" fill="#2E569E"/>
<path d="M318.518 78.3389H317.3V77.7286H316.691V76.4928H318.518V78.3389Z" fill="#2E569E"/>
<path d="M314.255 165.718H311.804V164.482H314.255V165.718ZM309.368 165.718H306.932V164.482H309.368V165.718ZM304.496 165.718H302.06V164.482H304.496V165.718ZM299.609 165.718H297.172V164.482H299.609V165.718ZM294.736 165.718H292.3V164.482H294.736V165.718ZM289.864 165.718H287.413V164.482H289.864V165.718ZM284.977 165.718H282.541V164.482H284.977V165.718ZM280.105 165.718H277.608V164.482H280.044L280.105 165.718ZM275.218 165.718H272.782V164.482H275.218V165.718ZM270.346 165.718H267.91V164.482H270.346V165.718ZM265.474 165.718H263.022V164.482H265.428L265.474 165.718ZM260.586 165.718H258.15V164.482H260.586V165.718ZM255.714 165.718H253.248V164.482H255.684L255.714 165.718ZM250.827 165.718H248.391V164.482H250.827V165.718ZM245.955 165.718H243.519V164.482H245.955V165.718ZM241.083 165.718H238.647V164.482H241.068L241.083 165.718ZM236.196 165.718H233.76V164.482H236.196V165.718Z" fill="#218274"/>
<path d="M230.714 161.43H229.496V158.989H230.714V161.43ZM230.714 156.548H229.496V154.107H230.714V156.548ZM230.714 151.65H229.496V149.224H230.714V151.65ZM230.714 146.768H229.496V144.327H230.714V146.768ZM230.714 141.886H229.496V139.429H230.714V141.886ZM230.714 136.988H229.496V134.547H230.714V136.988ZM230.714 132.106H229.496V129.665H230.714V132.106ZM230.714 127.223H229.496V124.813H230.714V127.223ZM230.714 122.326H229.496V119.885H230.714V122.326ZM230.714 117.443H229.496V115.002H230.714V117.443ZM230.714 112.546H229.496V110.105H230.714V112.546ZM230.714 107.663H229.496V105.222H230.714V107.663ZM230.714 102.781H229.496V100.401H230.714V102.781ZM230.714 97.8835H229.496V95.4423H230.714V97.8835ZM230.714 93.0012H229.496V90.56H230.714V93.0012ZM230.714 88.1036H229.496V85.6624H230.714V88.1036ZM230.714 83.2212H229.496V80.78H230.714V83.2212Z" fill="#218274"/>
<path d="M314.255 77.7286H311.804V76.4928H314.255V77.7286ZM309.368 77.7286H306.932V76.4928H309.368V77.7286ZM304.496 77.7286H302.06V76.4928H304.496V77.7286ZM299.609 77.7286H297.172V76.4928H299.609V77.7286ZM294.736 77.7286H292.3V76.4928H294.736V77.7286ZM289.864 77.7286H287.413V76.4928H289.864V77.7286ZM284.977 77.7286H282.541V76.4928H284.977V77.7286ZM280.105 77.7286H277.608V76.4928H280.044L280.105 77.7286ZM275.218 77.7286H272.782V76.4928H275.218V77.7286ZM270.346 77.7286H267.91V76.4928H270.346V77.7286ZM265.474 77.7286H263.022V76.4928H265.428L265.474 77.7286ZM260.586 77.7286H258.15V76.4928H260.586V77.7286ZM255.714 77.7286H253.248V76.4928H255.684L255.714 77.7286ZM250.842 77.7286H248.391V76.4928H250.842V77.7286ZM245.955 77.7286H243.519V76.4928H245.955V77.7286ZM241.083 77.7286H238.647V76.4928H241.068L241.083 77.7286ZM236.196 77.7286H233.76V76.4928H236.196V77.7286Z" fill="#218274"/>
<path d="M318.518 161.43H317.3V158.989H318.518V161.43ZM318.518 156.548H317.3V154.107H318.518V156.548ZM318.518 151.666H317.3V149.224H318.518V151.666ZM318.518 146.768H317.3V144.327H318.518V146.768ZM318.518 141.886H317.3V139.445H318.518V141.886ZM318.518 136.988H317.3V134.547H318.518V136.988ZM318.518 132.106H317.3V129.665H318.518V132.106ZM318.518 127.223H317.3V124.813H318.518V127.223ZM318.518 122.326H317.3V119.885H318.518V122.326ZM318.518 117.443H317.3V115.002H318.518V117.443ZM318.518 112.546H317.3V110.105H318.518V112.546ZM318.518 107.663H317.3V105.222H318.518V107.663ZM318.518 102.781H317.3V100.401H318.518V102.781ZM318.518 97.8835H317.3V95.4423H318.518V97.8835ZM318.518 93.0012H317.3V90.56H318.518V93.0012ZM318.518 88.1036H317.3V85.6624H318.518V88.1036ZM318.518 83.2212H317.3V80.78H318.518V83.2212Z" fill="#218274"/>
<path d="M235.571 159.615H224.624V170.585H235.571V159.615Z" fill="#CAF2EC"/>
<path d="M236.18 171.195H224V158.989H236.18V171.195ZM225.248 169.974H234.977V160.225H225.264L225.248 169.974Z" fill="#218274"/>
<path d="M235.617 115.628H224.67V126.598H235.617V115.628Z" fill="#CAF2EC"/>
<path d="M236.18 127.193H224V114.987H236.18V127.193ZM225.248 125.972H234.977V116.238H225.264L225.248 125.972Z" fill="#218274"/>
<path d="M235.617 71.6255H224.67V82.5955H235.617V71.6255Z" fill="#CAF2EC"/>
<path d="M236.18 83.2059H224V71H236.18V83.2059ZM225.248 81.9853H234.977V72.2358H225.264L225.248 81.9853Z" fill="#218274"/>
<path d="M323.436 159.615H312.489V170.585H323.436V159.615Z" fill="#CAF2EC"/>
<path d="M323.984 171.195H311.803V158.989H323.984V171.195ZM313.052 169.974H322.766V160.225H313.052V169.974Z" fill="#218274"/>
<path d="M323.436 115.628H312.489V126.598H323.436V115.628Z" fill="#CAF2EC"/>
<path d="M323.984 127.193H311.803V114.987H323.984V127.193ZM313.052 125.972H322.766V116.238H313.052V125.972Z" fill="#218274"/>
<path d="M323.436 71.6255H312.489V82.5955H323.436V71.6255Z" fill="#CAF2EC"/>
<path d="M323.984 83.2059H311.803V71H323.984V83.2059ZM313.052 81.9853H322.766V72.2358H313.052V81.9853Z" fill="#218274"/>
<path d="M279.526 71.6255H268.579V82.5955H279.526V71.6255Z" fill="#CAF2EC"/>
<path d="M280.09 83.2059H267.909V71H280.09V83.2059ZM269.143 81.9853H278.872V72.2358H269.143V81.9853Z" fill="#218274"/>
<path d="M279.48 159.615H268.533V170.585H279.48V159.615Z" fill="#CAF2EC"/>
<path d="M280.09 171.195H267.909V158.989H280.09V171.195ZM269.143 169.974H278.872V160.225H269.143V169.974Z" fill="#218274"/>
<g filter="url(#filter0_d_2023_39280)">
<path d="M262.522 93.3813H114.381V282.954H262.522V93.3813Z" fill="white"/>
<path d="M262.522 93.3813H114.381V107.571H262.522V93.3813Z" fill="#FFDB2E"/>
<path d="M156.783 100.583C156.783 101.289 156.574 101.979 156.182 102.566C155.791 103.153 155.235 103.611 154.584 103.881C153.933 104.151 153.216 104.222 152.525 104.084C151.834 103.947 151.199 103.607 150.701 103.107C150.203 102.608 149.863 101.972 149.726 101.279C149.588 100.587 149.659 99.8689 149.929 99.2165C150.198 98.5642 150.655 98.0066 151.241 97.6143C151.827 97.222 152.516 97.0126 153.22 97.0126C154.165 97.0126 155.071 97.3887 155.739 98.0583C156.408 98.7278 156.783 99.6359 156.783 100.583Z" fill="#505E70"/>
<path d="M262.522 106.808H114.381V108.334H262.522V106.808Z" fill="#F3F6F9"/>
<path d="M252.473 231.842H124.429V115.672H252.473V231.842ZM125.19 231.079H251.712V116.435H125.16L125.19 231.079Z" fill="#D1D8E0"/>
<path d="M125.069 115.779L124.559 116.345L251.826 231.745L252.337 231.179L125.069 115.779Z" fill="#F3F6F9"/>
<path d="M251.82 115.799L124.572 231.221L125.083 231.787L252.33 116.365L251.82 115.799Z" fill="#F3F6F9"/>
<path d="M262.902 283.335H114V93H262.902V283.335ZM114.761 282.573H262.187V93.7629H114.807L114.761 282.573Z" fill="#F3F6F9"/>
<path d="M262.902 107.952H114V93H262.902V107.952ZM114.761 107.189H262.187V93.7629H114.807L114.761 107.189Z" fill="#F3F6F9"/>
<path d="M124.825 231.445L252.093 231.445V116.039L124.825 116.039L124.825 231.445Z" fill="#E6EBF0"/>
<path d="M127.673 100.583C127.673 101.289 127.464 101.979 127.072 102.566C126.681 103.153 126.124 103.611 125.473 103.881C124.822 104.151 124.106 104.222 123.415 104.084C122.724 103.947 122.089 103.607 121.591 103.107C121.092 102.608 120.753 101.972 120.616 101.279C120.478 100.587 120.549 99.8689 120.818 99.2165C121.088 98.5642 121.545 98.0066 122.131 97.6143C122.716 97.222 123.405 97.0126 124.11 97.0126C125.055 97.0126 125.961 97.3887 126.629 98.0583C127.297 98.7278 127.673 99.6359 127.673 100.583Z" fill="#38485C"/>
<path d="M142.227 100.583C142.227 101.289 142.019 101.979 141.627 102.566C141.236 103.153 140.679 103.611 140.028 103.881C139.377 104.151 138.661 104.222 137.97 104.084C137.279 103.947 136.644 103.607 136.146 103.107C135.647 102.608 135.308 101.972 135.171 101.279C135.033 100.587 135.104 99.8689 135.373 99.2165C135.643 98.5642 136.1 98.0066 136.685 97.6143C137.271 97.222 137.96 97.0126 138.665 97.0126C139.61 97.0126 140.516 97.3887 141.184 98.0583C141.852 98.7278 142.227 99.6359 142.227 100.583Z" fill="#F3F6F9"/>
<path d="M124.81 116.054L252.093 231.46" stroke="#D1D8E0"/>
<path d="M252.093 116.054L124.81 231.46" stroke="#D1D8E0"/>
</g>
<g opacity="0.5">
<path d="M198.87 114.321V20.3815L16.3806 20.3815V114.321L198.87 114.321Z" fill="white"/>
<path d="M199.251 114.702H16V20H199.251V114.702ZM16.7613 113.939H198.459V20.7629H16.7613V113.939Z" fill="#E6EBF0"/>
<path d="M182.214 32.6025H116.913V37.3628H182.214V32.6025Z" fill="#F3F6F9"/>
<path d="M182.214 42.4587H116.913V47.219H182.214V42.4587Z" fill="#F3F6F9"/>
<path d="M182.214 52.3149H116.913V57.0752H182.214V52.3149Z" fill="#F3F6F9"/>
<path d="M182.214 62.1713H116.913V66.9316H182.214V62.1713Z" fill="#F3F6F9"/>
<path d="M182.214 72.0276H116.913V76.7879H182.214V72.0276Z" fill="#F3F6F9"/>
<path d="M27.4187 102.1L104.078 102.1L104.078 32.5874L27.4187 32.5874L27.4187 102.1Z" fill="#3CCEB8"/>
<path opacity="0.1" d="M37.3154 47.7988C36.9741 49.5296 37.1971 51.3245 37.9518 52.9185C38.7064 54.5125 39.9526 55.821 41.5062 56.6508C43.0599 57.4806 44.8386 57.7877 46.5798 57.5268C48.321 57.2658 49.9323 56.4507 51.1757 55.2017C52.4191 53.9527 53.2287 52.3361 53.485 50.5906C53.7413 48.8451 53.4306 47.0634 52.5989 45.5084C51.7672 43.9534 50.4585 42.7077 48.8661 41.9553C47.2737 41.2028 45.482 40.9835 43.7557 41.3297C42.1641 41.6489 40.7028 42.4338 39.5564 43.5853C38.4101 44.7368 37.6302 46.2031 37.3154 47.7988Z" fill="#38485C"/>
<path opacity="0.2" d="M48.9929 87.1325H104.078L76.5353 49.7214L48.9929 87.1325Z" fill="#38485C"/>
<path d="M27.4189 87.1628H72.8966L50.1502 62.7969L27.4189 87.1628Z" fill="#3CCEB8"/>
<path opacity="0.1" d="M27.4189 87.1628H72.8966L50.1502 62.7969L27.4189 87.1628Z" fill="#38485C"/>
<path d="M104.078 87.1324H27.4189V102.115H104.078V87.1324Z" fill="#3CCEB8"/>
<path opacity="0.1" d="M104.078 87.1324H27.4189V102.115H104.078V87.1324Z" fill="#38485C"/>
</g>
<g filter="url(#filter1_d_2023_39280)">
<g filter="url(#filter2_d_2023_39280)">
<rect x="161" y="28" width="48" height="48" rx="8" fill="white"/>
<rect x="160.5" y="27.5" width="49" height="49" rx="8.5" stroke="#E6EBF0"/>
</g>
<path d="M183 59V54H187V59C187 59.55 187.45 60 188 60H191C191.55 60 192 59.55 192 59V52H193.7C193.98 52 194.2 51.77 194.19 51.49C194.19 51.35 194.13 51.22 194.03 51.13L185.67 43.6C185.29 43.26 184.71 43.26 184.33 43.6L175.97 51.13C175.77 51.32 175.75 51.63 175.94 51.84C176.03 51.94 176.17 52 176.3 52H178V59C178 59.55 178.45 60 179 60H182C182.55 60 183 59.55 183 59Z" fill="#336ACC"/>
</g>
<g filter="url(#filter3_d_2023_39280)">
<g filter="url(#filter4_d_2023_39280)">
<rect x="97" y="28" width="48" height="48" rx="8" fill="white"/>
<rect x="96.5" y="27.5" width="49" height="49" rx="8.5" stroke="#E6EBF0"/>
</g>
<g clip-path="url(#clip1_2023_39280)">
<path d="M117 64C119.208 64 121 62.208 121 60V56H117C114.792 56 113 57.792 113 60C113 62.208 114.792 64 117 64Z" fill="#0ACF83"/>
<path d="M113 52C113 49.792 114.792 48 117 48H121V56H117C114.792 56 113 54.208 113 52Z" fill="#A259FF"/>
<path d="M113 44C113 41.792 114.792 40 117 40H121V48H117C114.792 48 113 46.208 113 44Z" fill="#F24E1E"/>
<path d="M121 40H125C127.208 40 129 41.792 129 44C129 46.208 127.208 48 125 48H121V40Z" fill="#FF7262"/>
<path d="M129 52C129 54.208 127.208 56 125 56C122.792 56 121 54.208 121 52C121 49.792 122.792 48 125 48C127.208 48 129 49.792 129 52Z" fill="#1ABCFE"/>
</g>
</g>
</g>
<defs>
<filter id="filter0_d_2023_39280" x="106" y="85" width="164.902" height="206.335" filterUnits="userSpaceOnUse" color-interpolation-filters="sRGB">
<feFlood flood-opacity="0" result="BackgroundImageFix"/>
<feColorMatrix in="SourceAlpha" type="matrix" values="0 0 0 0 0 0 0 0 0 0 0 0 0 0 0 0 0 0 127 0" result="hardAlpha"/>
<feOffset/>
<feGaussianBlur stdDeviation="4"/>
<feComposite in2="hardAlpha" operator="out"/>
<feColorMatrix type="matrix" values="0 0 0 0 0 0 0 0 0 0 0 0 0 0 0 0 0 0 0.08 0"/>
<feBlend mode="normal" in2="BackgroundImageFix" result="effect1_dropShadow_2023_39280"/>
<feBlend mode="normal" in="SourceGraphic" in2="effect1_dropShadow_2023_39280" result="shape"/>
</filter>
<filter id="filter1_d_2023_39280" x="152" y="19" width="66" height="66" filterUnits="userSpaceOnUse" color-interpolation-filters="sRGB">
<feFlood flood-opacity="0" result="BackgroundImageFix"/>
<feColorMatrix in="SourceAlpha" type="matrix" values="0 0 0 0 0 0 0 0 0 0 0 0 0 0 0 0 0 0 127 0" result="hardAlpha"/>
<feOffset/>
<feGaussianBlur stdDeviation="4"/>
<feComposite in2="hardAlpha" operator="out"/>
<feColorMatrix type="matrix" values="0 0 0 0 0 0 0 0 0 0 0 0 0 0 0 0 0 0 0.08 0"/>
<feBlend mode="normal" in2="BackgroundImageFix" result="effect1_dropShadow_2023_39280"/>
<feBlend mode="normal" in="SourceGraphic" in2="effect1_dropShadow_2023_39280" result="shape"/>
</filter>
<filter id="filter2_d_2023_39280" x="152" y="19" width="66" height="66" filterUnits="userSpaceOnUse" color-interpolation-filters="sRGB">
<feFlood flood-opacity="0" result="BackgroundImageFix"/>
<feColorMatrix in="SourceAlpha" type="matrix" values="0 0 0 0 0 0 0 0 0 0 0 0 0 0 0 0 0 0 127 0" result="hardAlpha"/>
<feOffset/>
<feGaussianBlur stdDeviation="4"/>
<feComposite in2="hardAlpha" operator="out"/>
<feColorMatrix type="matrix" values="0 0 0 0 0 0 0 0 0 0 0 0 0 0 0 0 0 0 0.08 0"/>
<feBlend mode="normal" in2="BackgroundImageFix" result="effect1_dropShadow_2023_39280"/>
<feBlend mode="normal" in="SourceGraphic" in2="effect1_dropShadow_2023_39280" result="shape"/>
</filter>
<filter id="filter3_d_2023_39280" x="88" y="19" width="66" height="66" filterUnits="userSpaceOnUse" color-interpolation-filters="sRGB">
<feFlood flood-opacity="0" result="BackgroundImageFix"/>
<feColorMatrix in="SourceAlpha" type="matrix" values="0 0 0 0 0 0 0 0 0 0 0 0 0 0 0 0 0 0 127 0" result="hardAlpha"/>
<feOffset/>
<feGaussianBlur stdDeviation="4"/>
<feComposite in2="hardAlpha" operator="out"/>
<feColorMatrix type="matrix" values="0 0 0 0 0 0 0 0 0 0 0 0 0 0 0 0 0 0 0.08 0"/>
<feBlend mode="normal" in2="BackgroundImageFix" result="effect1_dropShadow_2023_39280"/>
<feBlend mode="normal" in="SourceGraphic" in2="effect1_dropShadow_2023_39280" result="shape"/>
</filter>
<filter id="filter4_d_2023_39280" x="88" y="19" width="66" height="66" filterUnits="userSpaceOnUse" color-interpolation-filters="sRGB">
<feFlood flood-opacity="0" result="BackgroundImageFix"/>
<feColorMatrix in="SourceAlpha" type="matrix" values="0 0 0 0 0 0 0 0 0 0 0 0 0 0 0 0 0 0 127 0" result="hardAlpha"/>
<feOffset/>
<feGaussianBlur stdDeviation="4"/>
<feComposite in2="hardAlpha" operator="out"/>
<feColorMatrix type="matrix" values="0 0 0 0 0 0 0 0 0 0 0 0 0 0 0 0 0 0 0.08 0"/>
<feBlend mode="normal" in2="BackgroundImageFix" result="effect1_dropShadow_2023_39280"/>
<feBlend mode="normal" in="SourceGraphic" in2="effect1_dropShadow_2023_39280" result="shape"/>
</filter>
<clipPath id="clip0_2023_39280">
<path d="M0 8C0 3.58172 3.58172 0 8 0H332C336.418 0 340 3.58172 340 8V190H0V8Z" fill="white"/>
</clipPath>
<clipPath id="clip1_2023_39280">
<rect width="16" height="24" fill="white" transform="translate(113 40)"/>
</clipPath>
</defs>
</svg>
