<svg width="534" height="304" viewBox="0 0 534 304" fill="none" xmlns="http://www.w3.org/2000/svg">
<g clip-path="url(#clip0_33_6162)">
<rect width="534" height="304" fill="#F3F6F9"/>
<line x1="146" y1="303.438" x2="146" y2="1.12" stroke="#E6EBF0" stroke-width="2" stroke-linecap="round" stroke-dasharray="4 4"/>
<line x1="194" y1="303.438" x2="194" y2="1.12" stroke="#E6EBF0" stroke-width="2" stroke-linecap="round" stroke-dasharray="4 4"/>
<line x1="74" y1="303.438" x2="74" y2="1.12" stroke="#E6EBF0" stroke-width="2" stroke-linecap="round" stroke-dasharray="4 4"/>
<line x1="122" y1="303.438" x2="122" y2="1.12" stroke="#E6EBF0" stroke-width="2" stroke-linecap="round" stroke-dasharray="4 4"/>
<line x1="2" y1="303.438" x2="2" y2="1.12" stroke="#E6EBF0" stroke-width="2" stroke-linecap="round" stroke-dasharray="4 4"/>
<line x1="50" y1="303.438" x2="50" y2="1.12" stroke="#E6EBF0" stroke-width="2" stroke-linecap="round" stroke-dasharray="4 4"/>
<line x1="338" y1="303.438" x2="338" y2="1.12" stroke="#E6EBF0" stroke-width="2" stroke-linecap="round" stroke-dasharray="4 4"/>
<line x1="386" y1="303.438" x2="386" y2="1.12" stroke="#E6EBF0" stroke-width="2" stroke-linecap="round" stroke-dasharray="4 4"/>
<line x1="410" y1="303.438" x2="410" y2="1.12" stroke="#E6EBF0" stroke-width="2" stroke-linecap="round" stroke-dasharray="4 4"/>
<line x1="458" y1="303.438" x2="458" y2="1.12" stroke="#E6EBF0" stroke-width="2" stroke-linecap="round" stroke-dasharray="4 4"/>
<line x1="482" y1="303.438" x2="482" y2="1.12" stroke="#E6EBF0" stroke-width="2" stroke-linecap="round" stroke-dasharray="4 4"/>
<line x1="530" y1="303.438" x2="530" y2="1.12" stroke="#E6EBF0" stroke-width="2" stroke-linecap="round" stroke-dasharray="4 4"/>
<line x1="274" y1="303.438" x2="274" y2="1.12" stroke="#E6EBF0" stroke-width="2" stroke-linecap="round" stroke-dasharray="4 4"/>
<line x1="322" y1="303.438" x2="322" y2="1.12" stroke="#E6EBF0" stroke-width="2" stroke-linecap="round" stroke-dasharray="4 4"/>
<line x1="210" y1="303.438" x2="210" y2="1.12" stroke="#E6EBF0" stroke-width="2" stroke-linecap="round" stroke-dasharray="4 4"/>
<line x1="258" y1="303.438" x2="258" y2="1.12" stroke="#E6EBF0" stroke-width="2" stroke-linecap="round" stroke-dasharray="4 4"/>
<g clip-path="url(#clip1_33_6162)">
<mask id="mask0_33_6162" style="mask-type:luminance" maskUnits="userSpaceOnUse" x="211" y="82" width="23" height="22">
<path d="M232.285 82H213.149C212.238 82 211.5 82.7241 211.5 83.6174V102.383C211.5 103.276 212.238 104 213.149 104H232.285C233.196 104 233.934 103.276 233.934 102.383V83.6174C233.934 82.7241 233.196 82 232.285 82Z" fill="white"/>
</mask>
<g mask="url(#mask0_33_6162)">
<path d="M222.716 93.067L211.5 82.0679V82.1189L222.716 93.1179L222.786 93.1859L233.813 104H233.934V82.0679L222.716 93.067Z" fill="#B8C1CC"/>
<path d="M222.716 93.118L222.786 93.1859L222.716 93.118Z" fill="#E8E8E8"/>
<path d="M211.76 104H233.813L222.786 93.1859L211.76 104Z" fill="#8A98A8"/>
<path d="M222.716 93.118L211.5 82.1189V104H211.76L222.786 93.1859L222.716 93.118Z" fill="#5C6A7A"/>
<path d="M233.934 82.0679V82H211.5V82.0679L222.786 93.1859L233.934 82.0679Z" fill="#E6EBF0"/>
</g>
<path d="M313.968 100.118C313.131 99.6706 312.448 98.9893 312.005 98.1608C311.526 97.2436 311.288 96.2244 311.311 95.194C311.286 94.1673 311.524 93.15 312.005 92.2366C312.45 91.4138 313.133 90.7362 313.968 90.2908C315.824 89.383 318.008 89.383 319.863 90.2908C320.695 90.7324 321.374 91.4062 321.815 92.2272C322.286 93.1425 322.521 94.1579 322.498 95.1845C322.521 96.2131 322.286 97.2322 321.815 98.1513C321.38 98.9836 320.701 99.6687 319.863 100.118C318.008 101.026 315.824 101.026 313.968 100.118ZM318.972 97.7871C319.452 97.202 319.69 96.3358 319.69 95.194C319.69 94.0522 319.467 93.1953 318.978 92.6008C318.489 92.0064 317.812 91.7101 316.915 91.7101C316.018 91.7101 315.327 92.0026 314.848 92.6008C314.369 93.1991 314.121 94.0559 314.121 95.1845C314.121 96.3131 314.359 97.1926 314.838 97.7777C315.318 98.3627 316.003 98.659 316.901 98.659C317.8 98.659 318.505 98.3646 318.978 97.7777L318.972 97.7871Z" fill="white"/>
<path d="M245.435 99.8442C244.304 99.1969 243.395 98.2325 242.826 97.0756C242.214 95.8734 241.908 94.4674 241.908 92.8537C241.908 91.2401 242.21 89.8379 242.814 88.6451C243.382 87.4882 244.292 86.5276 245.426 85.8859C246.563 85.2404 247.901 84.9177 249.44 84.9177C250.98 84.9177 252.314 85.2404 253.442 85.8859C254.569 86.5295 255.476 87.492 256.042 88.6451C256.646 89.8397 256.948 91.242 256.95 92.8537C256.95 94.4655 256.644 95.8734 256.03 97.0756C255.459 98.2325 254.548 99.1969 253.417 99.8442C252.289 100.49 250.963 100.812 249.439 100.812C247.914 100.812 246.581 100.49 245.435 99.8442ZM252.833 97.0756C253.648 96.0923 254.054 94.6863 254.056 92.8537C254.056 91.0212 253.649 89.6189 252.833 88.6451C252.019 87.6694 250.888 87.1806 249.439 87.1825C247.989 87.1843 246.85 87.6713 246.019 88.6451C245.203 89.6189 244.795 91.0212 244.795 92.8537C244.795 94.6863 245.203 96.0923 246.017 97.0756C246.831 98.057 247.97 98.5476 249.437 98.5476C250.903 98.5476 252.035 98.057 252.833 97.0756Z" fill="#38485C"/>
<path d="M267.55 90.2814C268.299 90.7532 268.894 91.4232 269.265 92.2158C269.694 93.1331 269.904 94.1333 269.881 95.1411C269.902 96.1584 269.692 97.1681 269.265 98.0966C268.894 98.9081 268.293 99.5989 267.533 100.086C266.781 100.559 265.903 100.805 265.01 100.79C264.271 100.803 263.542 100.629 262.893 100.284C262.289 99.9631 261.792 99.4724 261.469 98.8779V99.4271C261.484 99.7819 261.344 100.125 261.084 100.371C260.807 100.612 260.445 100.739 260.075 100.722C259.708 100.741 259.35 100.614 259.079 100.371C258.825 100.122 258.69 99.7782 258.707 99.4271V86.2804C258.692 85.9331 258.832 85.5953 259.092 85.3575C259.685 84.897 260.52 84.8894 261.122 85.3367C261.382 85.5651 261.525 85.8953 261.507 86.2369V91.4251C261.831 90.8457 262.321 90.3757 262.92 90.0738C263.565 89.7511 264.281 89.5887 265.004 89.6001C265.903 89.5812 266.786 89.8171 267.55 90.2814ZM266.35 97.7342C266.842 97.119 267.089 96.2546 267.09 95.1411C267.09 94.0276 266.844 93.184 266.35 92.6122C265.866 92.0252 265.174 91.7327 264.279 91.7327C263.384 91.7327 262.689 92.029 262.204 92.6235C261.719 93.218 261.475 94.071 261.475 95.1845C261.475 96.298 261.717 97.1567 262.204 97.7569C262.691 98.357 263.38 98.659 264.279 98.659C265.081 98.6986 265.853 98.3533 266.35 97.7342Z" fill="#38485C"/>
<path d="M280.591 97.9532C280.757 98.1759 280.839 98.4476 280.826 98.7232C280.826 99.178 280.549 99.5592 279.996 99.8669C279.45 100.159 278.869 100.384 278.264 100.537C277.666 100.699 277.048 100.784 276.426 100.79C274.662 100.79 273.264 100.291 272.233 99.295C271.201 98.2985 270.687 96.9359 270.693 95.2072C270.674 94.1937 270.905 93.1897 271.367 92.2819C271.79 91.459 272.445 90.7721 273.255 90.304C274.096 89.8284 275.052 89.585 276.024 89.6001C276.927 89.5793 277.818 89.8001 278.603 90.238C279.336 90.6645 279.927 91.2911 280.306 92.0403C280.728 92.8971 280.936 93.8389 280.913 94.7882C280.913 95.4167 280.628 95.7318 280.06 95.7318H273.445C273.536 96.7378 273.826 97.4832 274.321 97.9645C274.816 98.4457 275.532 98.6835 276.473 98.6779C276.902 98.6854 277.329 98.625 277.739 98.5024C278.162 98.3627 278.578 98.2004 278.982 98.0173C279.433 97.7814 279.762 97.6644 279.971 97.6644C280.212 97.6606 280.443 97.7663 280.591 97.9532ZM274.265 92.2385C273.807 92.7084 273.536 93.3822 273.445 94.2598H278.513C278.484 93.3671 278.261 92.6895 277.841 92.2272C277.421 91.7648 276.838 91.5326 276.092 91.5345C275.408 91.5043 274.744 91.761 274.265 92.2385Z" fill="#38485C"/>
<path d="M282.693 100.405C282.423 100.15 282.283 99.7933 282.308 99.4271V86.303C282.281 85.9406 282.423 85.5858 282.693 85.3367C282.974 85.1102 283.328 84.9913 283.692 85.0064C284.057 84.9932 284.415 85.1102 284.7 85.3367C284.979 85.5802 285.129 85.9369 285.104 86.303V99.4271C285.127 99.797 284.979 100.156 284.7 100.405C284.419 100.637 284.059 100.76 283.692 100.746C283.326 100.76 282.97 100.639 282.693 100.405Z" fill="#38485C"/>
<path d="M287.279 87.2844C286.977 87.0107 286.813 86.6201 286.831 86.2181C286.813 85.818 286.977 85.4311 287.279 85.1631C287.991 84.6346 288.976 84.6346 289.688 85.1631C289.996 85.4292 290.164 85.8161 290.148 86.2181C290.164 86.6201 290 87.0088 289.7 87.2844C288.988 87.8279 287.991 87.8279 287.279 87.2844ZM287.491 100.409C287.221 100.154 287.081 99.797 287.106 99.4309V90.9382C287.079 90.5758 287.221 90.2191 287.491 89.97C287.77 89.7473 288.122 89.6322 288.482 89.6454C288.847 89.634 289.205 89.7492 289.492 89.9738C289.771 90.2191 289.919 90.5758 289.894 90.9419V99.4347C289.917 99.8027 289.769 100.163 289.492 100.412C289.209 100.643 288.849 100.761 288.482 100.746C288.12 100.758 287.766 100.637 287.491 100.405V100.409Z" fill="#38485C"/>
<path d="M291.917 99.8442C291.469 99.614 291.192 99.1554 291.201 98.659C291.19 98.3986 291.278 98.1438 291.447 97.9437C291.596 97.7644 291.817 97.6625 292.052 97.6644C292.425 97.704 292.783 97.8248 293.101 98.0192C293.524 98.2193 293.963 98.3891 294.413 98.5269C294.906 98.6552 295.416 98.7156 295.926 98.7024C296.434 98.7288 296.942 98.6231 297.394 98.3948C297.721 98.2287 297.925 97.8965 297.922 97.5361C297.937 97.3209 297.864 97.1077 297.72 96.9435C297.498 96.751 297.235 96.6094 296.95 96.532C296.401 96.3603 295.843 96.2169 295.279 96.1036C293.949 95.8394 292.997 95.4657 292.421 94.9826C291.846 94.4994 291.559 93.8332 291.561 92.9858C291.557 92.3612 291.759 91.7497 292.138 91.2477C292.55 90.7098 293.105 90.2927 293.742 90.0398C294.477 89.7416 295.268 89.5963 296.063 89.6095C296.675 89.6076 297.287 89.685 297.877 89.8416C298.434 89.9794 298.967 90.2021 299.452 90.5022C299.892 90.7305 300.168 91.1778 300.17 91.6666C300.179 91.9327 300.093 92.1932 299.923 92.4027C299.781 92.5895 299.558 92.7009 299.319 92.7009C299.153 92.7009 298.988 92.6669 298.836 92.6008C298.634 92.5121 298.435 92.414 298.243 92.3045C297.881 92.1177 297.506 91.9535 297.121 91.8138C296.744 91.6949 296.349 91.6402 295.953 91.6496C295.491 91.6232 295.033 91.7365 294.64 91.9743C294.33 92.1724 294.15 92.514 294.159 92.8764C294.148 93.2236 294.338 93.5482 294.652 93.7106C294.979 93.8993 295.614 94.088 296.557 94.2767C297.365 94.4239 298.156 94.6599 298.911 94.9807C299.407 95.1864 299.833 95.5299 300.133 95.9696C300.395 96.4301 300.524 96.9529 300.502 97.4794C300.522 98.4363 300.044 99.3384 299.236 99.8763C298.391 100.476 297.267 100.777 295.862 100.777C294.234 100.786 292.92 100.475 291.917 99.8442Z" fill="#38485C"/>
<path d="M303.857 100.118C303.033 99.6744 302.363 99.0006 301.932 98.1834C301.467 97.2775 301.236 96.2735 301.259 95.26C301.238 94.2315 301.48 93.2142 301.965 92.3027C302.417 91.4609 303.11 90.7664 303.959 90.304C304.858 89.8228 305.87 89.5793 306.894 89.6001C307.489 89.602 308.081 89.6831 308.655 89.8416C309.203 89.9851 309.729 90.2078 310.212 90.5022C310.691 90.8098 310.932 91.1986 310.93 91.6666C310.943 91.946 310.86 92.2215 310.695 92.448C310.551 92.6386 310.321 92.7481 310.079 92.7443C309.9 92.7424 309.725 92.7046 309.561 92.6348C309.377 92.5574 309.198 92.4706 309.024 92.3706C308.724 92.1932 308.41 92.0422 308.083 91.9195C307.752 91.8044 307.402 91.7497 307.052 91.7553C306.124 91.7553 305.412 92.0516 304.91 92.6443C304.407 93.2369 304.159 94.0918 304.159 95.2072C304.159 96.3226 304.409 97.1511 304.91 97.7456C305.41 98.3401 306.124 98.6364 307.052 98.6364C307.392 98.642 307.729 98.5854 308.049 98.4703C308.383 98.3419 308.709 98.191 309.024 98.0192C309.209 97.9079 309.402 97.8078 309.602 97.7229C309.758 97.6587 309.925 97.6267 310.094 97.6248C310.335 97.6248 310.56 97.7399 310.701 97.9324C310.87 98.1532 310.957 98.425 310.947 98.7024C310.953 98.9289 310.893 99.1535 310.78 99.3497C310.641 99.5574 310.452 99.7272 310.229 99.8442C309.729 100.154 309.186 100.388 308.614 100.537C308.002 100.705 307.369 100.79 306.732 100.79C305.731 100.812 304.74 100.582 303.857 100.118Z" fill="#38485C"/>
<path d="M313.968 100.118C313.131 99.6706 312.448 98.9893 312.005 98.1608C311.526 97.2436 311.288 96.2244 311.311 95.194C311.286 94.1673 311.524 93.15 312.005 92.2366C312.45 91.4138 313.133 90.7362 313.968 90.2908C315.824 89.383 318.008 89.383 319.863 90.2908C320.695 90.7324 321.374 91.4062 321.815 92.2272C322.286 93.1425 322.521 94.1579 322.498 95.1845C322.521 96.2131 322.286 97.2322 321.815 98.1513C321.38 98.9836 320.701 99.6687 319.863 100.118C318.008 101.026 315.824 101.026 313.968 100.118ZM318.972 97.7871C319.452 97.202 319.69 96.3358 319.69 95.194C319.69 94.0522 319.467 93.1953 318.978 92.6008C318.489 92.0064 317.812 91.7101 316.915 91.7101C316.018 91.7101 315.327 92.0026 314.848 92.6008C314.369 93.1991 314.121 94.0559 314.121 95.1845C314.121 96.3131 314.359 97.1926 314.838 97.7777C315.318 98.3627 316.003 98.659 316.901 98.659C317.8 98.659 318.505 98.3646 318.978 97.7777L318.972 97.7871Z" fill="#38485C"/>
</g>
<g filter="url(#filter0_d_33_6162)">
<rect x="275" y="152" width="48" height="48" rx="8" fill="white"/>
<rect x="274.5" y="151.5" width="49" height="49" rx="8.5" stroke="#E6EBF0"/>
</g>
<path d="M303 182H295C293.409 181.998 291.884 181.365 290.759 180.24C289.634 179.116 289.002 177.591 289 176C289.002 174.409 289.634 172.884 290.759 171.76C291.884 170.635 293.409 170.002 295 170H303C304.591 170.002 306.116 170.635 307.241 171.76C308.366 172.884 308.998 174.409 309 176C308.998 177.591 308.366 179.116 307.241 180.24C306.116 181.365 304.591 181.998 303 182ZM295 172C293.939 172 292.922 172.421 292.171 173.172C291.421 173.922 291 174.939 291 176C291 177.061 291.421 178.078 292.171 178.828C292.922 179.579 293.939 180 295 180C296.06 179.998 297.077 179.576 297.827 178.827C298.576 178.077 298.998 177.06 299 176C299 174.939 298.579 173.922 297.829 173.172C297.078 172.421 296.061 172 295 172Z" fill="#38485C"/>
<g filter="url(#filter1_d_33_6162)">
<rect x="339" y="152" width="48" height="48" rx="8" fill="white"/>
<rect x="338.5" y="151.5" width="49" height="49" rx="8.5" stroke="#E6EBF0"/>
</g>
<g clip-path="url(#clip2_33_6162)">
<path d="M363 169.83L365.46 172.29C365.85 172.68 366.48 172.68 366.87 172.29C367.26 171.9 367.26 171.27 366.87 170.88L363.7 167.7C363.31 167.31 362.68 167.31 362.29 167.7L359.12 170.88C358.73 171.27 358.73 171.9 359.12 172.29C359.51 172.68 360.14 172.68 360.53 172.29L363 169.83ZM363 182.17L360.54 179.71C360.15 179.32 359.52 179.32 359.13 179.71C358.74 180.1 358.74 180.73 359.13 181.12L362.3 184.3C362.69 184.69 363.32 184.69 363.71 184.3L366.88 181.13C367.27 180.74 367.27 180.11 366.88 179.72C366.49 179.33 365.86 179.33 365.47 179.72L363 182.17Z" fill="#38485C"/>
</g>
<g filter="url(#filter2_d_33_6162)">
<rect x="147" y="152" width="48" height="48" rx="8" fill="white"/>
<rect x="146.5" y="151.5" width="49" height="49" rx="8.5" stroke="#E6EBF0"/>
</g>
<path d="M169 183V178H173V183C173 183.55 173.45 184 174 184H177C177.55 184 178 183.55 178 183V176H179.7C179.98 176 180.2 175.77 180.19 175.49C180.19 175.35 180.13 175.22 180.03 175.13L171.67 167.6C171.29 167.26 170.71 167.26 170.33 167.6L161.97 175.13C161.77 175.32 161.75 175.63 161.94 175.84C162.03 175.94 162.17 176 162.3 176H164V183C164 183.55 164.45 184 165 184H168C168.55 184 169 183.55 169 183Z" fill="#38485C"/>
<g filter="url(#filter3_d_33_6162)">
<rect x="275" y="216.249" width="48" height="48" rx="8" fill="white"/>
<rect x="274.5" y="215.749" width="49" height="49" rx="8.5" stroke="#E6EBF0"/>
</g>
<path d="M299 235.999C296.79 235.999 295 237.789 295 239.999C295 242.209 296.79 243.999 299 243.999C301.21 243.999 303 242.209 303 239.999C303 237.789 301.21 235.999 299 235.999ZM307.94 238.999C307.47 234.819 304.18 231.529 300 231.059V229.999C300 229.449 299.55 228.999 299 228.999C298.45 228.999 298 229.449 298 229.999V231.059C293.82 231.529 290.53 234.819 290.06 238.999H289C288.45 238.999 288 239.449 288 239.999C288 240.549 288.45 240.999 289 240.999H290.06C290.53 245.179 293.82 248.469 298 248.939V249.999C298 250.549 298.45 250.999 299 250.999C299.55 250.999 300 250.549 300 249.999V248.939C304.18 248.469 307.47 245.179 307.94 240.999H309C309.55 240.999 310 240.549 310 239.999C310 239.449 309.55 238.999 309 238.999H307.94ZM299 246.999C295.13 246.999 292 243.869 292 239.999C292 236.129 295.13 232.999 299 232.999C302.87 232.999 306 236.129 306 239.999C306 243.859 302.87 246.999 299.01 246.999C299.01 246.999 299.01 246.999 299 246.999Z" fill="#38485C"/>
<g filter="url(#filter4_d_33_6162)">
<rect x="211" y="152" width="48" height="48" rx="8" fill="white"/>
<rect x="210.5" y="151.5" width="49" height="49" rx="8.5" stroke="#E6EBF0"/>
</g>
<path d="M241.3 169.382C240.91 168.992 240.28 168.992 239.89 169.382L235 174.262L230.11 169.372C229.69 169.012 229.06 169.062 228.7 169.482C228.38 169.852 228.38 170.412 228.7 170.782L233.59 175.672L228.7 180.562C228.34 180.982 228.39 181.612 228.81 181.972C229.18 182.292 229.74 182.292 230.11 181.972L235 177.082L239.89 181.972C240.31 182.332 240.94 182.282 241.3 181.862C241.62 181.492 241.62 180.932 241.3 180.562L236.41 175.672L241.3 170.782C241.68 170.392 241.68 169.772 241.3 169.382Z" fill="#38485C"/>
<g filter="url(#filter5_d_33_6162)">
<rect x="211" y="216.249" width="48" height="48" rx="8" fill="white"/>
<rect x="210.5" y="215.749" width="49" height="49" rx="8.5" stroke="#E6EBF0"/>
</g>
<g clip-path="url(#clip3_33_6162)">
<path d="M235 229.999C229.48 229.999 225 234.479 225 239.999C225 245.519 229.48 249.999 235 249.999C240.52 249.999 245 245.519 245 239.999C245 234.479 240.52 229.999 235 229.999ZM235 232.999C236.66 232.999 238 234.339 238 235.999C238 237.659 236.66 238.999 235 238.999C233.34 238.999 232 237.659 232 235.999C232 234.339 233.34 232.999 235 232.999ZM235 247.199C232.5 247.199 230.29 245.919 229 243.979C229.03 241.989 233 240.899 235 240.899C236.99 240.899 240.97 241.989 241 243.979C239.71 245.919 237.5 247.199 235 247.199Z" fill="#38485C"/>
</g>
<g filter="url(#filter6_d_33_6162)">
<rect x="147" y="215.999" width="48" height="48" rx="8" fill="white"/>
<rect x="146.5" y="215.499" width="49" height="49" rx="8.5" stroke="#E6EBF0"/>
</g>
<path d="M171 249.999C172.1 249.999 173 249.099 173 247.999H169C169 249.099 169.9 249.999 171 249.999ZM177 243.999V238.999C177 235.929 175.36 233.359 172.5 232.679V231.999C172.5 231.169 171.83 230.499 171 230.499C170.17 230.499 169.5 231.169 169.5 231.999V232.679C166.63 233.359 165 235.919 165 238.999V243.999L163.71 245.289C163.32 245.679 163.32 246.309 163.71 246.699C163.9 246.889 164.15 246.989 164.42 246.999H177.59C178.14 246.999 178.59 246.559 178.6 246.009C178.6 245.739 178.49 245.479 178.3 245.289L177.01 243.999H177Z" fill="#38485C"/>
<g filter="url(#filter7_d_33_6162)">
<rect x="339" y="216.249" width="48" height="48" rx="8" fill="white"/>
<rect x="338.5" y="215.749" width="49" height="49" rx="8.5" stroke="#E6EBF0"/>
</g>
<path d="M365.09 246.358C365.179 246.551 365.223 246.744 365.223 246.936C365.223 247.278 365.082 247.567 364.8 247.804C364.533 248.042 364.222 248.16 363.866 248.16C363.628 248.16 363.406 248.101 363.198 247.982C362.99 247.849 362.827 247.649 362.709 247.382L361.373 244.4H353.54L352.205 247.382C352.086 247.649 351.923 247.849 351.716 247.982C351.508 248.101 351.278 248.16 351.026 248.16C350.685 248.16 350.373 248.042 350.091 247.804C349.809 247.567 349.668 247.278 349.668 246.936C349.668 246.744 349.713 246.551 349.802 246.358L355.944 233.162C356.077 232.865 356.277 232.643 356.544 232.494C356.826 232.331 357.123 232.249 357.435 232.249C357.746 232.249 358.035 232.331 358.302 232.494C358.584 232.643 358.792 232.865 358.926 233.162L365.09 246.358ZM360.394 242.174L357.457 235.565L354.519 242.174H360.394Z" fill="#38485C"/>
<path d="M371.859 236.923C373.372 236.923 374.492 237.301 375.219 238.057C375.961 238.799 376.332 239.934 376.332 241.462V246.892C376.332 247.293 376.213 247.611 375.976 247.849C375.738 248.071 375.412 248.183 374.997 248.183C374.611 248.183 374.292 248.064 374.04 247.827C373.802 247.589 373.684 247.278 373.684 246.892V246.402C373.431 246.981 373.031 247.433 372.482 247.76C371.948 248.086 371.325 248.249 370.613 248.249C369.886 248.249 369.226 248.101 368.632 247.804C368.039 247.508 367.571 247.1 367.23 246.58C366.889 246.061 366.718 245.483 366.718 244.845C366.718 244.044 366.919 243.413 367.319 242.953C367.735 242.493 368.402 242.159 369.322 241.952C370.242 241.744 371.51 241.64 373.127 241.64H373.684V241.128C373.684 240.401 373.528 239.875 373.216 239.548C372.905 239.207 372.4 239.037 371.703 239.037C371.273 239.037 370.835 239.103 370.39 239.237C369.945 239.356 369.418 239.534 368.81 239.771C368.424 239.964 368.143 240.06 367.965 240.06C367.697 240.06 367.475 239.964 367.297 239.771C367.134 239.578 367.052 239.326 367.052 239.014C367.052 238.762 367.111 238.547 367.23 238.369C367.364 238.176 367.579 237.998 367.876 237.835C368.395 237.553 369.01 237.331 369.723 237.167C370.449 237.004 371.162 236.923 371.859 236.923ZM371.169 246.247C371.911 246.247 372.512 246.002 372.971 245.512C373.446 245.008 373.684 244.363 373.684 243.576V243.109H373.283C372.289 243.109 371.518 243.153 370.969 243.242C370.42 243.331 370.027 243.487 369.789 243.71C369.552 243.932 369.433 244.236 369.433 244.622C369.433 245.097 369.596 245.49 369.923 245.802C370.264 246.098 370.679 246.247 371.169 246.247Z" fill="#38485C"/>
<g filter="url(#filter8_d_33_6162)">
<rect x="147" y="288.245" width="240" height="112.249" rx="8" fill="#FFDB2E"/>
</g>
<g filter="url(#filter9_d_33_6162)">
<rect x="-117" y="288.245" width="240" height="112.249" rx="8" fill="#26874A"/>
</g>
<g filter="url(#filter10_d_33_6162)">
<rect x="411" y="288.245" width="240" height="112.249" rx="8" fill="#C93B3B"/>
</g>
<g filter="url(#filter11_d_33_6162)">
<rect x="-117" y="152" width="240" height="112.249" rx="8" fill="white"/>
</g>
<g filter="url(#filter12_d_33_6162)">
<rect x="411" y="152" width="240" height="112.249" rx="8" fill="#007BC7"/>
</g>
</g>
<defs>
<filter id="filter0_d_33_6162" x="266" y="143" width="66" height="66" filterUnits="userSpaceOnUse" color-interpolation-filters="sRGB">
<feFlood flood-opacity="0" result="BackgroundImageFix"/>
<feColorMatrix in="SourceAlpha" type="matrix" values="0 0 0 0 0 0 0 0 0 0 0 0 0 0 0 0 0 0 127 0" result="hardAlpha"/>
<feOffset/>
<feGaussianBlur stdDeviation="4"/>
<feComposite in2="hardAlpha" operator="out"/>
<feColorMatrix type="matrix" values="0 0 0 0 0 0 0 0 0 0 0 0 0 0 0 0 0 0 0.08 0"/>
<feBlend mode="normal" in2="BackgroundImageFix" result="effect1_dropShadow_33_6162"/>
<feBlend mode="normal" in="SourceGraphic" in2="effect1_dropShadow_33_6162" result="shape"/>
</filter>
<filter id="filter1_d_33_6162" x="330" y="143" width="66" height="66" filterUnits="userSpaceOnUse" color-interpolation-filters="sRGB">
<feFlood flood-opacity="0" result="BackgroundImageFix"/>
<feColorMatrix in="SourceAlpha" type="matrix" values="0 0 0 0 0 0 0 0 0 0 0 0 0 0 0 0 0 0 127 0" result="hardAlpha"/>
<feOffset/>
<feGaussianBlur stdDeviation="4"/>
<feComposite in2="hardAlpha" operator="out"/>
<feColorMatrix type="matrix" values="0 0 0 0 0 0 0 0 0 0 0 0 0 0 0 0 0 0 0.08 0"/>
<feBlend mode="normal" in2="BackgroundImageFix" result="effect1_dropShadow_33_6162"/>
<feBlend mode="normal" in="SourceGraphic" in2="effect1_dropShadow_33_6162" result="shape"/>
</filter>
<filter id="filter2_d_33_6162" x="138" y="143" width="66" height="66" filterUnits="userSpaceOnUse" color-interpolation-filters="sRGB">
<feFlood flood-opacity="0" result="BackgroundImageFix"/>
<feColorMatrix in="SourceAlpha" type="matrix" values="0 0 0 0 0 0 0 0 0 0 0 0 0 0 0 0 0 0 127 0" result="hardAlpha"/>
<feOffset/>
<feGaussianBlur stdDeviation="4"/>
<feComposite in2="hardAlpha" operator="out"/>
<feColorMatrix type="matrix" values="0 0 0 0 0 0 0 0 0 0 0 0 0 0 0 0 0 0 0.08 0"/>
<feBlend mode="normal" in2="BackgroundImageFix" result="effect1_dropShadow_33_6162"/>
<feBlend mode="normal" in="SourceGraphic" in2="effect1_dropShadow_33_6162" result="shape"/>
</filter>
<filter id="filter3_d_33_6162" x="266" y="207.249" width="66" height="66" filterUnits="userSpaceOnUse" color-interpolation-filters="sRGB">
<feFlood flood-opacity="0" result="BackgroundImageFix"/>
<feColorMatrix in="SourceAlpha" type="matrix" values="0 0 0 0 0 0 0 0 0 0 0 0 0 0 0 0 0 0 127 0" result="hardAlpha"/>
<feOffset/>
<feGaussianBlur stdDeviation="4"/>
<feComposite in2="hardAlpha" operator="out"/>
<feColorMatrix type="matrix" values="0 0 0 0 0 0 0 0 0 0 0 0 0 0 0 0 0 0 0.08 0"/>
<feBlend mode="normal" in2="BackgroundImageFix" result="effect1_dropShadow_33_6162"/>
<feBlend mode="normal" in="SourceGraphic" in2="effect1_dropShadow_33_6162" result="shape"/>
</filter>
<filter id="filter4_d_33_6162" x="202" y="143" width="66" height="66" filterUnits="userSpaceOnUse" color-interpolation-filters="sRGB">
<feFlood flood-opacity="0" result="BackgroundImageFix"/>
<feColorMatrix in="SourceAlpha" type="matrix" values="0 0 0 0 0 0 0 0 0 0 0 0 0 0 0 0 0 0 127 0" result="hardAlpha"/>
<feOffset/>
<feGaussianBlur stdDeviation="4"/>
<feComposite in2="hardAlpha" operator="out"/>
<feColorMatrix type="matrix" values="0 0 0 0 0 0 0 0 0 0 0 0 0 0 0 0 0 0 0.08 0"/>
<feBlend mode="normal" in2="BackgroundImageFix" result="effect1_dropShadow_33_6162"/>
<feBlend mode="normal" in="SourceGraphic" in2="effect1_dropShadow_33_6162" result="shape"/>
</filter>
<filter id="filter5_d_33_6162" x="202" y="207.249" width="66" height="66" filterUnits="userSpaceOnUse" color-interpolation-filters="sRGB">
<feFlood flood-opacity="0" result="BackgroundImageFix"/>
<feColorMatrix in="SourceAlpha" type="matrix" values="0 0 0 0 0 0 0 0 0 0 0 0 0 0 0 0 0 0 127 0" result="hardAlpha"/>
<feOffset/>
<feGaussianBlur stdDeviation="4"/>
<feComposite in2="hardAlpha" operator="out"/>
<feColorMatrix type="matrix" values="0 0 0 0 0 0 0 0 0 0 0 0 0 0 0 0 0 0 0.08 0"/>
<feBlend mode="normal" in2="BackgroundImageFix" result="effect1_dropShadow_33_6162"/>
<feBlend mode="normal" in="SourceGraphic" in2="effect1_dropShadow_33_6162" result="shape"/>
</filter>
<filter id="filter6_d_33_6162" x="138" y="206.999" width="66" height="66" filterUnits="userSpaceOnUse" color-interpolation-filters="sRGB">
<feFlood flood-opacity="0" result="BackgroundImageFix"/>
<feColorMatrix in="SourceAlpha" type="matrix" values="0 0 0 0 0 0 0 0 0 0 0 0 0 0 0 0 0 0 127 0" result="hardAlpha"/>
<feOffset/>
<feGaussianBlur stdDeviation="4"/>
<feComposite in2="hardAlpha" operator="out"/>
<feColorMatrix type="matrix" values="0 0 0 0 0 0 0 0 0 0 0 0 0 0 0 0 0 0 0.08 0"/>
<feBlend mode="normal" in2="BackgroundImageFix" result="effect1_dropShadow_33_6162"/>
<feBlend mode="normal" in="SourceGraphic" in2="effect1_dropShadow_33_6162" result="shape"/>
</filter>
<filter id="filter7_d_33_6162" x="330" y="207.249" width="66" height="66" filterUnits="userSpaceOnUse" color-interpolation-filters="sRGB">
<feFlood flood-opacity="0" result="BackgroundImageFix"/>
<feColorMatrix in="SourceAlpha" type="matrix" values="0 0 0 0 0 0 0 0 0 0 0 0 0 0 0 0 0 0 127 0" result="hardAlpha"/>
<feOffset/>
<feGaussianBlur stdDeviation="4"/>
<feComposite in2="hardAlpha" operator="out"/>
<feColorMatrix type="matrix" values="0 0 0 0 0 0 0 0 0 0 0 0 0 0 0 0 0 0 0.08 0"/>
<feBlend mode="normal" in2="BackgroundImageFix" result="effect1_dropShadow_33_6162"/>
<feBlend mode="normal" in="SourceGraphic" in2="effect1_dropShadow_33_6162" result="shape"/>
</filter>
<filter id="filter8_d_33_6162" x="139" y="280.245" width="256" height="128.249" filterUnits="userSpaceOnUse" color-interpolation-filters="sRGB">
<feFlood flood-opacity="0" result="BackgroundImageFix"/>
<feColorMatrix in="SourceAlpha" type="matrix" values="0 0 0 0 0 0 0 0 0 0 0 0 0 0 0 0 0 0 127 0" result="hardAlpha"/>
<feOffset/>
<feGaussianBlur stdDeviation="4"/>
<feComposite in2="hardAlpha" operator="out"/>
<feColorMatrix type="matrix" values="0 0 0 0 0 0 0 0 0 0 0 0 0 0 0 0 0 0 0.08 0"/>
<feBlend mode="normal" in2="BackgroundImageFix" result="effect1_dropShadow_33_6162"/>
<feBlend mode="normal" in="SourceGraphic" in2="effect1_dropShadow_33_6162" result="shape"/>
</filter>
<filter id="filter9_d_33_6162" x="-125" y="280.245" width="256" height="128.249" filterUnits="userSpaceOnUse" color-interpolation-filters="sRGB">
<feFlood flood-opacity="0" result="BackgroundImageFix"/>
<feColorMatrix in="SourceAlpha" type="matrix" values="0 0 0 0 0 0 0 0 0 0 0 0 0 0 0 0 0 0 127 0" result="hardAlpha"/>
<feOffset/>
<feGaussianBlur stdDeviation="4"/>
<feComposite in2="hardAlpha" operator="out"/>
<feColorMatrix type="matrix" values="0 0 0 0 0 0 0 0 0 0 0 0 0 0 0 0 0 0 0.08 0"/>
<feBlend mode="normal" in2="BackgroundImageFix" result="effect1_dropShadow_33_6162"/>
<feBlend mode="normal" in="SourceGraphic" in2="effect1_dropShadow_33_6162" result="shape"/>
</filter>
<filter id="filter10_d_33_6162" x="403" y="280.245" width="256" height="128.249" filterUnits="userSpaceOnUse" color-interpolation-filters="sRGB">
<feFlood flood-opacity="0" result="BackgroundImageFix"/>
<feColorMatrix in="SourceAlpha" type="matrix" values="0 0 0 0 0 0 0 0 0 0 0 0 0 0 0 0 0 0 127 0" result="hardAlpha"/>
<feOffset/>
<feGaussianBlur stdDeviation="4"/>
<feComposite in2="hardAlpha" operator="out"/>
<feColorMatrix type="matrix" values="0 0 0 0 0 0 0 0 0 0 0 0 0 0 0 0 0 0 0.08 0"/>
<feBlend mode="normal" in2="BackgroundImageFix" result="effect1_dropShadow_33_6162"/>
<feBlend mode="normal" in="SourceGraphic" in2="effect1_dropShadow_33_6162" result="shape"/>
</filter>
<filter id="filter11_d_33_6162" x="-125" y="144" width="256" height="128.249" filterUnits="userSpaceOnUse" color-interpolation-filters="sRGB">
<feFlood flood-opacity="0" result="BackgroundImageFix"/>
<feColorMatrix in="SourceAlpha" type="matrix" values="0 0 0 0 0 0 0 0 0 0 0 0 0 0 0 0 0 0 127 0" result="hardAlpha"/>
<feOffset/>
<feGaussianBlur stdDeviation="4"/>
<feComposite in2="hardAlpha" operator="out"/>
<feColorMatrix type="matrix" values="0 0 0 0 0 0 0 0 0 0 0 0 0 0 0 0 0 0 0.08 0"/>
<feBlend mode="normal" in2="BackgroundImageFix" result="effect1_dropShadow_33_6162"/>
<feBlend mode="normal" in="SourceGraphic" in2="effect1_dropShadow_33_6162" result="shape"/>
</filter>
<filter id="filter12_d_33_6162" x="403" y="144" width="256" height="128.249" filterUnits="userSpaceOnUse" color-interpolation-filters="sRGB">
<feFlood flood-opacity="0" result="BackgroundImageFix"/>
<feColorMatrix in="SourceAlpha" type="matrix" values="0 0 0 0 0 0 0 0 0 0 0 0 0 0 0 0 0 0 127 0" result="hardAlpha"/>
<feOffset/>
<feGaussianBlur stdDeviation="4"/>
<feComposite in2="hardAlpha" operator="out"/>
<feColorMatrix type="matrix" values="0 0 0 0 0 0 0 0 0 0 0 0 0 0 0 0 0 0 0.08 0"/>
<feBlend mode="normal" in2="BackgroundImageFix" result="effect1_dropShadow_33_6162"/>
<feBlend mode="normal" in="SourceGraphic" in2="effect1_dropShadow_33_6162" result="shape"/>
</filter>
<clipPath id="clip0_33_6162">
<rect width="534" height="304" fill="white"/>
</clipPath>
<clipPath id="clip1_33_6162">
<rect width="111" height="22" fill="white" transform="translate(211.5 82)"/>
</clipPath>
<clipPath id="clip2_33_6162">
<rect width="24" height="24" fill="white" transform="translate(351 164)"/>
</clipPath>
<clipPath id="clip3_33_6162">
<rect width="24" height="24" fill="white" transform="translate(223 227.999)"/>
</clipPath>
</defs>
</svg>
