<svg width="1366" height="280" viewBox="0 0 1366 280" fill="none" xmlns="http://www.w3.org/2000/svg">
<g clip-path="url(#clip0_351_11642)">
<rect width="1366" height="280" fill="#F3F6F9"/>
<line x1="15" y1="359" x2="15" y2="1" stroke="#E6EBF0" stroke-width="2" stroke-linecap="round" stroke-dasharray="4 4"/>
<line x1="63" y1="359" x2="63" y2="1" stroke="#E6EBF0" stroke-width="2" stroke-linecap="round" stroke-dasharray="4 4"/>
<line x1="79.3" y1="359" x2="79.3" y2="1" stroke="#E6EBF0" stroke-width="2" stroke-linecap="round" stroke-dasharray="4 4"/>
<line x1="127.3" y1="359" x2="127.3" y2="1" stroke="#E6EBF0" stroke-width="2" stroke-linecap="round" stroke-dasharray="4 4"/>
<line x1="143.6" y1="359" x2="143.6" y2="1" stroke="#E6EBF0" stroke-width="2" stroke-linecap="round" stroke-dasharray="4 4"/>
<line x1="191.6" y1="359" x2="191.6" y2="1" stroke="#E6EBF0" stroke-width="2" stroke-linecap="round" stroke-dasharray="4 4"/>
<line x1="207.9" y1="359" x2="207.9" y2="1" stroke="#E6EBF0" stroke-width="2" stroke-linecap="round" stroke-dasharray="4 4"/>
<line x1="255.9" y1="359" x2="255.9" y2="1" stroke="#E6EBF0" stroke-width="2" stroke-linecap="round" stroke-dasharray="4 4"/>
<line x1="272.2" y1="359" x2="272.2" y2="1" stroke="#E6EBF0" stroke-width="2" stroke-linecap="round" stroke-dasharray="4 4"/>
<line x1="320.2" y1="359" x2="320.2" y2="1" stroke="#E6EBF0" stroke-width="2" stroke-linecap="round" stroke-dasharray="4 4"/>
<line x1="336.5" y1="359" x2="336.5" y2="1" stroke="#E6EBF0" stroke-width="2" stroke-linecap="round" stroke-dasharray="4 4"/>
<line x1="384.5" y1="359" x2="384.5" y2="1" stroke="#E6EBF0" stroke-width="2" stroke-linecap="round" stroke-dasharray="4 4"/>
<line x1="400.8" y1="359" x2="400.8" y2="1" stroke="#E6EBF0" stroke-width="2" stroke-linecap="round" stroke-dasharray="4 4"/>
<line x1="448.8" y1="359" x2="448.8" y2="1" stroke="#E6EBF0" stroke-width="2" stroke-linecap="round" stroke-dasharray="4 4"/>
<line x1="465.1" y1="359" x2="465.1" y2="1" stroke="#E6EBF0" stroke-width="2" stroke-linecap="round" stroke-dasharray="4 4"/>
<line x1="513.1" y1="359" x2="513.1" y2="1" stroke="#E6EBF0" stroke-width="2" stroke-linecap="round" stroke-dasharray="4 4"/>
<line x1="529.4" y1="359" x2="529.4" y2="1" stroke="#E6EBF0" stroke-width="2" stroke-linecap="round" stroke-dasharray="4 4"/>
<line x1="577.4" y1="359" x2="577.4" y2="1" stroke="#E6EBF0" stroke-width="2" stroke-linecap="round" stroke-dasharray="4 4"/>
<line x1="593.7" y1="359" x2="593.7" y2="1" stroke="#E6EBF0" stroke-width="2" stroke-linecap="round" stroke-dasharray="4 4"/>
<line x1="641.7" y1="359" x2="641.7" y2="1" stroke="#E6EBF0" stroke-width="2" stroke-linecap="round" stroke-dasharray="4 4"/>
<line x1="658" y1="359" x2="658" y2="1" stroke="#E6EBF0" stroke-width="2" stroke-linecap="round" stroke-dasharray="4 4"/>
<line x1="706" y1="359" x2="706" y2="1" stroke="#E6EBF0" stroke-width="2" stroke-linecap="round" stroke-dasharray="4 4"/>
<line x1="722.301" y1="359" x2="722.301" y2="1" stroke="#E6EBF0" stroke-width="2" stroke-linecap="round" stroke-dasharray="4 4"/>
<line x1="770.301" y1="359" x2="770.301" y2="1" stroke="#E6EBF0" stroke-width="2" stroke-linecap="round" stroke-dasharray="4 4"/>
<line x1="786.601" y1="359" x2="786.601" y2="1" stroke="#E6EBF0" stroke-width="2" stroke-linecap="round" stroke-dasharray="4 4"/>
<line x1="834.601" y1="359" x2="834.601" y2="1" stroke="#E6EBF0" stroke-width="2" stroke-linecap="round" stroke-dasharray="4 4"/>
<line x1="850.901" y1="359" x2="850.901" y2="1" stroke="#E6EBF0" stroke-width="2" stroke-linecap="round" stroke-dasharray="4 4"/>
<line x1="898.901" y1="359" x2="898.901" y2="1" stroke="#E6EBF0" stroke-width="2" stroke-linecap="round" stroke-dasharray="4 4"/>
<line x1="915.201" y1="359" x2="915.201" y2="1" stroke="#E6EBF0" stroke-width="2" stroke-linecap="round" stroke-dasharray="4 4"/>
<line x1="963.201" y1="359" x2="963.201" y2="1" stroke="#E6EBF0" stroke-width="2" stroke-linecap="round" stroke-dasharray="4 4"/>
<line x1="979.501" y1="359" x2="979.501" y2="1" stroke="#E6EBF0" stroke-width="2" stroke-linecap="round" stroke-dasharray="4 4"/>
<line x1="1027.5" y1="359" x2="1027.5" y2="1" stroke="#E6EBF0" stroke-width="2" stroke-linecap="round" stroke-dasharray="4 4"/>
<line x1="1043.8" y1="359" x2="1043.8" y2="1" stroke="#E6EBF0" stroke-width="2" stroke-linecap="round" stroke-dasharray="4 4"/>
<line x1="1091.8" y1="359" x2="1091.8" y2="1" stroke="#E6EBF0" stroke-width="2" stroke-linecap="round" stroke-dasharray="4 4"/>
<line x1="1108.1" y1="359" x2="1108.1" y2="1" stroke="#E6EBF0" stroke-width="2" stroke-linecap="round" stroke-dasharray="4 4"/>
<line x1="1156.1" y1="359" x2="1156.1" y2="1" stroke="#E6EBF0" stroke-width="2" stroke-linecap="round" stroke-dasharray="4 4"/>
<line x1="1172.4" y1="359" x2="1172.4" y2="1" stroke="#E6EBF0" stroke-width="2" stroke-linecap="round" stroke-dasharray="4 4"/>
<line x1="1220.4" y1="359" x2="1220.4" y2="1" stroke="#E6EBF0" stroke-width="2" stroke-linecap="round" stroke-dasharray="4 4"/>
<line x1="1236.7" y1="359" x2="1236.7" y2="1" stroke="#E6EBF0" stroke-width="2" stroke-linecap="round" stroke-dasharray="4 4"/>
<line x1="1284.7" y1="359" x2="1284.7" y2="1" stroke="#E6EBF0" stroke-width="2" stroke-linecap="round" stroke-dasharray="4 4"/>
<line x1="1301" y1="359" x2="1301" y2="1" stroke="#E6EBF0" stroke-width="2" stroke-linecap="round" stroke-dasharray="4 4"/>
<line x1="1349" y1="359" x2="1349" y2="1" stroke="#E6EBF0" stroke-width="2" stroke-linecap="round" stroke-dasharray="4 4"/>
</g>
<defs>
<clipPath id="clip0_351_11642">
<rect width="1366" height="280" fill="white"/>
</clipPath>
</defs>
</svg>
