<svg width="340" height="190" viewBox="0 0 340 190" fill="none" xmlns="http://www.w3.org/2000/svg">
<path d="M0 8C0 3.58172 3.58172 0 8 0H332C336.418 0 340 3.58172 340 8V190H0V8Z" fill="#FFD499"/>
<g clip-path="url(#clip0_2023_39281)">
<path d="M274.457 109.013C274.457 110.99 273.705 112.885 272.366 114.282C271.027 115.68 269.211 116.466 267.317 116.467C265.423 116.467 263.606 115.681 262.267 114.284C260.927 112.886 260.175 110.99 260.175 109.013C260.175 107.037 260.927 105.142 262.266 103.744C263.604 102.347 265.42 101.561 267.314 101.56C269.209 101.56 271.025 102.345 272.365 103.743C273.704 105.141 274.457 107.037 274.457 109.013ZM282.916 73.38C278.616 73.38 272.991 76.58 267.301 82.12C261.615 76.61 255.987 73.4467 251.69 73.4467C250.38 73.4467 249.189 73.7567 248.157 74.3734C243.765 77.0167 242.781 85.2534 245.049 95.59C235.325 98.7234 229 103.733 229 109.013C229 114.313 235.357 119.337 245.11 122.447C242.861 132.823 243.864 141.073 248.266 143.713C249.288 144.337 250.47 144.63 251.786 144.63C256.083 144.63 261.711 141.43 267.4 135.883C273.087 141.397 278.715 144.56 283.012 144.56C284.321 144.56 285.513 144.26 286.545 143.643C290.934 141.003 291.921 132.767 289.653 122.427C299.342 119.32 305.667 114.3 305.667 109.013C305.667 103.713 299.31 98.69 289.557 95.5734C291.806 85.2067 290.803 76.95 286.401 74.3067C285.337 73.6827 284.137 73.363 282.916 73.38ZM282.9 77.0134V77.0334C283.619 77.0334 284.197 77.18 284.682 77.4567C286.81 78.73 287.733 83.5734 287.014 89.8034C286.842 91.3367 286.561 92.9534 286.216 94.6034C282.949 93.7789 279.633 93.1842 276.291 92.8234C274.299 89.9574 272.127 87.2325 269.79 84.6667C274.875 79.7334 279.651 77.0267 282.903 77.0167L282.9 77.0134ZM251.69 77.08C254.923 77.08 259.721 79.7734 264.819 84.68C262.628 87.08 260.443 89.8034 258.367 92.82C255.016 93.1793 251.694 93.7785 248.422 94.6134C248.079 93.0501 247.808 91.4705 247.611 89.88C246.876 83.6534 247.783 78.8134 249.892 77.5234C250.499 77.2234 251.169 77.0967 251.69 77.08ZM267.285 87.2467C268.742 88.8112 270.19 90.5489 271.63 92.46C270.224 92.3934 268.787 92.3467 267.333 92.3467C265.862 92.3445 264.414 92.3823 262.989 92.46C264.394 90.5534 265.848 88.81 267.285 87.2467ZM267.333 96C269.697 96 272.052 96.1134 274.368 96.31C275.667 98.2523 276.926 100.319 278.147 102.51C279.333 104.646 280.417 106.808 281.398 108.997C280.415 111.18 279.335 113.363 278.163 115.497C276.949 117.697 275.693 119.79 274.393 121.73C269.704 122.159 264.989 122.164 260.299 121.747C258.959 119.735 257.698 117.666 256.52 115.547C255.334 113.411 254.25 111.249 253.268 109.06C254.255 106.84 255.334 104.667 256.504 102.547C257.718 100.347 258.973 98.26 260.274 96.32C262.621 96.1025 264.977 95.9935 267.333 95.9934V96ZM255.722 96.8467C254.955 98.1034 254.188 99.39 253.473 100.713C252.757 102.013 252.081 103.318 251.444 104.627C250.598 102.44 249.879 100.26 249.285 98.1367C251.329 97.6367 253.485 97.19 255.722 96.8467ZM278.913 96.8467C281.137 97.1867 283.273 97.6167 285.321 98.1367C284.746 100.243 284.028 102.41 283.213 104.58C281.909 101.927 280.475 99.3456 278.916 96.8467H278.913ZM288.698 99.0967C290.246 99.5989 291.71 100.152 293.09 100.757C298.623 103.223 302.201 106.45 302.201 109.01C302.185 111.57 298.607 114.81 293.074 117.26C291.733 117.86 290.263 118.4 288.746 118.903C287.786 115.515 286.612 112.197 285.232 108.97C286.669 105.58 287.819 102.27 288.698 99.09V99.0967ZM245.908 99.11C246.796 102.31 247.969 105.633 249.422 109.043C248.05 112.25 246.891 115.551 245.953 118.923C244.407 118.423 242.937 117.863 241.577 117.257C236.044 114.8 232.466 111.57 232.466 109.01C232.466 106.45 236.044 103.203 241.577 100.757C242.918 100.157 244.388 99.6167 245.908 99.11ZM283.213 113.377C284.059 115.567 284.778 117.75 285.372 119.87C283.328 120.393 281.168 120.837 278.932 121.17C280.488 118.651 281.915 116.05 283.213 113.377ZM251.444 113.443C252.083 114.75 252.754 116.053 253.489 117.36C254.223 118.662 254.974 119.932 255.741 121.17C253.587 120.845 251.448 120.416 249.333 119.883C249.908 117.783 250.63 115.61 251.441 113.44L251.444 113.443ZM286.244 123.4C286.602 125.043 286.883 126.627 287.056 128.143C287.791 134.37 286.883 139.21 284.775 140.503C284.305 140.803 283.695 140.93 282.977 140.93C279.744 140.93 274.946 138.24 269.847 133.33C272.039 130.93 274.224 128.21 276.3 125.197C279.836 124.803 283.181 124.2 286.244 123.4ZM248.454 123.433C251.521 124.213 254.862 124.817 258.379 125.207C260.488 128.223 262.676 130.963 264.88 133.36C259.785 138.303 255.003 141.01 251.751 141.01C251.137 141.013 250.531 140.862 249.984 140.57C247.857 139.303 246.934 134.457 247.652 128.227C247.825 126.693 248.109 125.08 248.454 123.433ZM263.021 125.567C264.429 125.638 265.861 125.676 267.317 125.68C268.789 125.682 270.237 125.644 271.662 125.567C270.256 127.473 268.803 129.217 267.365 130.783C265.909 129.214 264.46 127.476 263.021 125.567Z" fill="#FFF4E5"/>
</g>
<path d="M78.0001 16.1372L107.467 26.3901L103 64.4725L78.0001 77.9803L53.0001 64.4725L48.5334 26.3901L78.0001 16.1372ZM78.0001 22.9725L59.5668 63.3333H66.4334L70.1334 54.2847H85.8001L89.5001 63.3333H96.3334L78.0001 22.9725ZM83.4001 48.6862H72.6334L78.0001 36.0898L83.4001 48.6862Z" fill="#FFF4E5"/>
<g filter="url(#filter0_d_2023_39281)">
<path d="M107.709 118.565H18.5649V175.435H107.709V118.565Z" fill="white" fill-opacity="0.5"/>
<path d="M108.274 176H18V118H108.274V176ZM19.1302 174.87H107.189V119.13H19.1302V174.87Z" fill="#E6EAF0"/>
<path d="M107.709 118.565H18.5649V129.32H107.709V118.565Z" fill="#FFDB2E"/>
<path d="M108.274 129.885H18V118H108.274V129.885ZM19.1302 128.755H107.189V119.13H19.1302V128.755Z" fill="#E6EAF0"/>
<path d="M28.6655 124.019C28.6655 124.551 28.5076 125.071 28.2119 125.514C27.9162 125.956 27.496 126.301 27.0043 126.505C26.5125 126.709 25.9715 126.762 25.4495 126.658C24.9275 126.554 24.448 126.298 24.0716 125.922C23.6953 125.545 23.439 125.066 23.3352 124.544C23.2313 124.022 23.2846 123.481 23.4883 122.989C23.692 122.497 24.0369 122.077 24.4794 121.781C24.9219 121.486 25.4422 121.328 25.9745 121.328C26.6882 121.328 27.3726 121.611 27.8773 122.116C28.3819 122.621 28.6655 123.305 28.6655 124.019Z" fill="#9EAAB8"/>
<path d="M39.7167 124.019C39.7167 124.551 39.5589 125.071 39.2632 125.514C38.9675 125.956 38.5472 126.301 38.0555 126.505C37.5638 126.709 37.0227 126.762 36.5007 126.658C35.9787 126.554 35.4992 126.298 35.1229 125.922C34.7465 125.545 34.4903 125.066 34.3864 124.544C34.2826 124.022 34.3359 123.481 34.5396 122.989C34.7432 122.497 35.0882 122.077 35.5307 121.781C35.9732 121.486 36.4935 121.328 37.0257 121.328C37.7394 121.328 38.4239 121.611 38.9285 122.116C39.4332 122.621 39.7167 123.305 39.7167 124.019Z" fill="#E6EAF0"/>
<path d="M50.7673 124.019C50.7673 124.551 50.6094 125.071 50.3137 125.514C50.018 125.956 49.5978 126.301 49.1061 126.505C48.6143 126.709 48.0733 126.762 47.5513 126.658C47.0293 126.554 46.5498 126.298 46.1734 125.922C45.7971 125.545 45.5408 125.066 45.437 124.544C45.3331 124.022 45.3864 123.481 45.5901 122.989C45.7938 122.497 46.1387 122.077 46.5812 121.781C47.0238 121.486 47.544 121.328 48.0763 121.328C48.79 121.328 49.4744 121.611 49.9791 122.116C50.4837 122.621 50.7673 123.305 50.7673 124.019Z" fill="white"/>
<path d="M53.9641 157.319C54.1266 157.482 54.2556 157.675 54.3436 157.887C54.4316 158.1 54.4768 158.327 54.4768 158.557C54.4768 158.787 54.4316 159.014 54.3436 159.227C54.2556 159.439 54.1266 159.632 53.9641 159.795C53.6377 160.107 53.2046 160.283 52.7531 160.287C52.2846 160.288 51.833 160.112 51.4888 159.795L43.7637 151.956C43.6772 151.956 43.6506 151.876 43.624 151.79C43.5997 151.769 43.5728 151.751 43.5441 151.737C43.5024 151.669 43.4731 151.595 43.4576 151.517C43.4363 151.506 43.418 151.49 43.4042 151.47C43.3903 151.451 43.3812 151.428 43.3778 151.404C43.3778 151.351 43.3778 151.271 43.3245 151.238C43.2713 151.204 43.2646 151.131 43.2646 151.105V150.912C43.2646 150.858 43.2646 150.825 43.2646 150.745C43.2646 150.665 43.2646 150.639 43.2646 150.606V150.413C43.2646 150.359 43.3245 150.333 43.3245 150.306C43.3245 150.28 43.3245 150.166 43.3778 150.087C43.431 150.007 43.3778 150.087 43.3778 150.033C43.416 149.945 43.4628 149.86 43.5175 149.781C43.5175 149.766 43.5231 149.753 43.5331 149.743C43.5431 149.733 43.5566 149.727 43.5707 149.727C43.6077 149.649 43.6652 149.582 43.7371 149.534L51.4888 141.696C51.8227 141.379 52.2658 141.202 52.7265 141.202C53.1871 141.202 53.6302 141.379 53.9641 141.696C54.1266 141.859 54.2556 142.052 54.3436 142.264C54.4316 142.476 54.4768 142.704 54.4768 142.934C54.4768 143.164 54.4316 143.391 54.3436 143.604C54.2556 143.816 54.1266 144.009 53.9641 144.171L47.4499 150.745L53.9641 157.319Z" fill="#FFAA33"/>
<path d="M60.9774 158.197L67.7111 142.142C67.8707 141.772 68.1703 141.48 68.5444 141.33C68.9185 141.181 69.3366 141.185 69.7073 141.343C70.068 141.5 70.3518 141.793 70.4965 142.158C70.6413 142.524 70.635 142.932 70.4791 143.293L63.7521 159.382C63.6327 159.652 63.4369 159.882 63.1886 160.043C62.9404 160.204 62.6505 160.289 62.3548 160.287C62.1652 160.291 61.9769 160.255 61.8025 160.18C61.6151 160.108 61.4443 159.999 61.3004 159.859C61.1565 159.719 61.0426 159.551 60.9654 159.365C60.8883 159.18 60.8496 158.981 60.8516 158.78C60.8537 158.579 60.8965 158.381 60.9774 158.197Z" fill="#FFAA33"/>
<path d="M83.8004 151.737C83.7447 151.809 83.6798 151.874 83.6074 151.93L75.8557 159.795C75.521 160.11 75.0782 160.286 74.6181 160.286C74.1579 160.286 73.7151 160.11 73.3804 159.795C73.2179 159.632 73.0889 159.439 73.0009 159.227C72.913 159.014 72.8677 158.787 72.8677 158.557C72.8677 158.327 72.913 158.1 73.0009 157.887C73.0889 157.675 73.2179 157.482 73.3804 157.319L79.8946 150.745L73.3804 144.171C73.2179 144.009 73.0889 143.816 73.0009 143.604C72.913 143.391 72.8677 143.164 72.8677 142.934C72.8677 142.704 72.913 142.476 73.0009 142.264C73.0889 142.052 73.2179 141.859 73.3804 141.696C73.7143 141.379 74.1574 141.202 74.6181 141.202C75.0787 141.202 75.5218 141.379 75.8557 141.696L83.5808 149.534C83.6532 149.59 83.7181 149.655 83.7738 149.727V149.781C83.8275 149.861 83.8742 149.945 83.9135 150.033C83.9135 150.033 83.9135 150.033 83.9135 150.087C83.9314 150.172 83.9605 150.255 84 150.333C84 150.333 84 150.333 84 150.413V150.606C84 150.606 84 150.719 84 150.745C84 150.772 84 150.858 84 150.885V151.105C84 151.105 84 151.105 84 151.158C83.9656 151.238 83.9367 151.32 83.9135 151.404C83.9135 151.404 83.9135 151.404 83.9135 151.491C83.9135 151.577 83.8603 151.624 83.8004 151.737Z" fill="#FFAA33"/>
</g>
<g filter="url(#filter1_d_2023_39281)">
<g filter="url(#filter2_d_2023_39281)">
<rect x="267" y="137" width="40" height="40" rx="8" fill="#1C345F"/>
</g>
<path fill-rule="evenodd" clip-rule="evenodd" d="M286.978 145.889C280.856 145.889 275.889 150.844 275.889 156.967C275.889 161.744 278.944 165.978 283.467 167.489C284.022 167.589 284.222 167.244 284.222 166.955C284.222 166.689 284.222 166 284.211 165.067C281.122 165.733 280.478 163.578 280.478 163.578C280.278 162.911 279.833 162.333 279.244 161.955C278.233 161.267 279.322 161.289 279.322 161.289C280.033 161.389 280.656 161.811 281.022 162.433C281.656 163.578 283.089 163.989 284.222 163.367C284.222 163.367 284.233 163.367 284.244 163.367C284.3 162.8 284.544 162.278 284.956 161.889C282.5 161.611 279.911 160.655 279.911 156.411C279.9 155.311 280.3 154.244 281.056 153.433C280.722 152.478 280.756 151.433 281.167 150.5C281.167 150.5 282.1 150.2 284.211 151.633C286.022 151.133 287.944 151.133 289.756 151.633C291.878 150.2 292.8 150.5 292.8 150.5C293.211 151.422 293.256 152.478 292.911 153.433C293.656 154.244 294.067 155.3 294.044 156.411C294.044 160.667 291.456 161.611 288.989 161.878C289.522 162.422 289.8 163.167 289.744 163.933C289.744 165.411 289.733 166.611 289.733 166.978C289.733 167.278 289.933 167.622 290.5 167.511C296.311 165.578 299.444 159.3 297.5 153.489C295.989 148.944 291.756 145.889 286.978 145.889Z" fill="white"/>
</g>
<g filter="url(#filter3_d_2023_39281)">
<path d="M252.641 32.2216H92.3489V163.857H252.641V32.2216Z" fill="white"/>
<path d="M253.25 164.475H91.7395V31.621H253.25V164.475ZM92.9581 163.257H252.031V32.8299H92.9581V163.257Z" fill="#E6EAF0"/>
<path d="M252.641 32.2216H92.3489V43.8174H252.641V32.2216Z" fill="#336ACC"/>
<path d="M253.25 44.4257H91.7395V31.621H253.25V44.4257ZM92.9581 43.2072H252.031V32.8299H92.9581V43.2072Z" fill="#E6EAF0"/>
<path d="M103.229 38.1109C103.229 38.6847 103.059 39.2456 102.74 39.7228C102.421 40.1999 101.968 40.5718 101.438 40.7914C100.908 41.011 100.324 41.0684 99.7616 40.9565C99.1988 40.8445 98.6818 40.5682 98.2761 40.1624C97.8703 39.7567 97.594 39.2397 97.482 38.6769C97.3701 38.1141 97.4275 37.5307 97.6471 37.0005C97.8667 36.4704 98.2386 36.0173 98.7157 35.6984C99.1929 35.3796 99.7538 35.2095 100.328 35.2095C101.097 35.2095 101.835 35.5152 102.379 36.0593C102.923 36.6034 103.229 37.3414 103.229 38.1109Z" fill="#9EAAB8"/>
<path d="M115.144 38.1109C115.144 38.6847 114.973 39.2456 114.655 39.7228C114.336 40.1999 113.883 40.5718 113.353 40.7914C112.822 41.011 112.239 41.0684 111.676 40.9565C111.113 40.8445 110.596 40.5682 110.191 40.1624C109.785 39.7567 109.509 39.2397 109.397 38.6769C109.285 38.1141 109.342 37.5307 109.562 37.0005C109.781 36.4704 110.153 36.0173 110.63 35.6984C111.107 35.3796 111.668 35.2095 112.242 35.2095C113.012 35.2095 113.75 35.5152 114.294 36.0593C114.838 36.6034 115.144 37.3414 115.144 38.1109Z" fill="#B8C1CC"/>
<path d="M127.069 38.1109C127.069 38.6847 126.898 39.2456 126.58 39.7228C126.261 40.1999 125.808 40.5718 125.278 40.7914C124.747 41.011 124.164 41.0684 123.601 40.9565C123.038 40.8445 122.521 40.5682 122.116 40.1624C121.71 39.7567 121.434 39.2397 121.322 38.6769C121.21 38.1141 121.267 37.5307 121.487 37.0005C121.706 36.4704 122.078 36.0173 122.555 35.6984C123.032 35.3796 123.593 35.2095 124.167 35.2095C124.937 35.2095 125.675 35.5152 126.219 36.0593C126.763 36.6034 127.069 37.3414 127.069 38.1109Z" fill="white"/>
<path d="M110.985 66.8828H104.786V69.1459H110.985V66.8828Z" fill="#B8C1CC"/>
<path d="M186.614 66.8828H115.501V69.1459H186.614V66.8828Z" fill="#B8C1CC"/>
<path d="M202.194 66.8828H190.424V69.1459H202.194V66.8828Z" fill="#FFDB2E"/>
<path d="M229.129 97.1827H217.35V99.4458H229.129V97.1827Z" fill="#B8C1CC"/>
<path d="M225.116 66.8828H204.758V69.1459H225.116V66.8828Z" fill="#9EAAB8"/>
<path d="M117.184 72.9468H110.985V75.2099H117.184V72.9468Z" fill="#B8C1CC"/>
<path d="M168.21 72.9468H121.546V75.2099H168.21V72.9468Z" fill="#9EAAB8"/>
<path d="M214.555 97.1827H187.234V99.4458H214.555V97.1827Z" fill="#9EAAB8"/>
<path d="M160.076 91.129H115.501V93.3921H160.076V91.129Z" fill="#9EAAB8"/>
<path d="M152.813 79.0011H121.546V81.2642H152.813V79.0011Z" fill="#FFDB2E"/>
<path d="M210.222 85.0651H198.298V87.3282H210.222V85.0651Z" fill="#9EAAB8"/>
<path d="M206.219 79.0011H156.286V81.2642H206.219V79.0011Z" fill="#9EAAB8"/>
<path d="M175.105 97.1827H115.501V99.4458H175.105V97.1827Z" fill="#FFDB2E"/>
<path d="M235.745 72.9468H203.443V75.2099H235.745V72.9468Z" fill="#FFDB2E"/>
<path d="M200.88 72.9468H171.141V75.2099H200.88V72.9468Z" fill="#B8C1CC"/>
<path d="M228.636 79.0011H208.568V81.2642H228.636V79.0011Z" fill="#B8C1CC"/>
<path d="M117.184 79.0011H110.985V81.2642H117.184V79.0011Z" fill="#B8C1CC"/>
<path d="M110.985 85.0651H104.786V87.3282H110.985V85.0651Z" fill="#9EAAB8"/>
<path d="M152.136 85.0651H115.501V87.3282H152.136V85.0651Z" fill="#B8C1CC"/>
<path d="M158.181 103.247H121.546V105.511H158.181V103.247Z" fill="#B8C1CC"/>
<path d="M217.718 109.311H189.865V111.574H217.718V109.311Z" fill="#FFDB2E"/>
<path d="M197.901 103.247H161.16V105.511H197.901V103.247Z" fill="#FFDB2E"/>
<path d="M186.662 109.311H154.679V111.574H186.662V109.311Z" fill="#B8C1CC"/>
<path d="M132.156 109.311H121.546V111.574H132.156V109.311Z" fill="#9EAAB8"/>
<path d="M202.195 91.129H162.601V93.3921H202.195V91.129Z" fill="#B8C1CC"/>
<path d="M229.951 91.129H204.758V93.3921H229.951V91.129Z" fill="#FFDB2E"/>
<path d="M195.406 85.0651H155.86V87.3282H195.406V85.0651Z" fill="#FFDB2E"/>
<path d="M110.985 91.129H104.786V93.3921H110.985V91.129Z" fill="#B8C1CC"/>
<path d="M110.985 97.1827H104.786V99.4458H110.985V97.1827Z" fill="#B8C1CC"/>
<path d="M117.184 103.247H110.985V105.511H117.184V103.247Z" fill="#9EAAB8"/>
<path d="M117.184 109.311H110.985V111.574H117.184V109.311Z" fill="#B8C1CC"/>
<path d="M110.985 114.379H104.786V116.642H110.985V114.379Z" fill="#B8C1CC"/>
<path d="M186.614 114.379H115.501V116.642H186.614V114.379Z" fill="#B8C1CC"/>
<path d="M117.184 120.442H110.985V122.705H117.184V120.442Z" fill="#B8C1CC"/>
<path d="M168.21 120.442H121.546V122.705H168.21V120.442Z" fill="#9EAAB8"/>
<path d="M160.076 138.625H115.501V140.888H160.076V138.625Z" fill="#9EAAB8"/>
<path d="M152.813 126.506H121.546V128.769H152.813V126.506Z" fill="#FFDB2E"/>
<path d="M206.219 126.506H156.286V128.769H206.219V126.506Z" fill="#9EAAB8"/>
<path d="M175.105 144.679H115.501V146.942H175.105V144.679Z" fill="#FFDB2E"/>
<path d="M235.745 120.442H203.443V122.705H235.745V120.442Z" fill="#FFDB2E"/>
<path d="M200.88 120.442H171.141V122.705H200.88V120.442Z" fill="#B8C1CC"/>
<path d="M228.636 126.506H208.568V128.769H228.636V126.506Z" fill="#B8C1CC"/>
<path d="M117.184 126.506H110.985V128.769H117.184V126.506Z" fill="#B8C1CC"/>
<path d="M110.985 132.56H104.786V134.823H110.985V132.56Z" fill="#9EAAB8"/>
<path d="M152.136 132.56H115.501V134.823H152.136V132.56Z" fill="#B8C1CC"/>
<path d="M202.195 138.625H162.601V140.888H202.195V138.625Z" fill="#B8C1CC"/>
<path d="M195.406 132.56H155.86V134.823H195.406V132.56Z" fill="#FFDB2E"/>
<path d="M110.985 138.625H104.786V140.888H110.985V138.625Z" fill="#B8C1CC"/>
<path d="M108.615 60.9249C108.716 61.0264 108.773 61.1638 108.773 61.307C108.773 61.4501 108.716 61.5875 108.615 61.689C108.513 61.7877 108.376 61.8428 108.233 61.8428C108.091 61.8428 107.954 61.7877 107.851 61.689L105.462 59.2615C105.457 59.2458 105.457 59.2288 105.462 59.2131C105.459 59.1907 105.459 59.1678 105.462 59.1454C105.458 59.1263 105.458 59.1065 105.462 59.0874V59.0294C105.462 59.0294 105.462 59.0294 105.462 58.9713V58.9133C105.458 58.8909 105.458 58.868 105.462 58.8456C105.462 58.8456 105.462 58.7779 105.462 58.7682C105.474 58.7425 105.495 58.7218 105.52 58.7102L107.909 56.2827C108.012 56.184 108.149 56.1289 108.291 56.1289C108.434 56.1289 108.571 56.184 108.673 56.2827C108.774 56.3842 108.831 56.5216 108.831 56.6648C108.831 56.8079 108.774 56.9453 108.673 57.0468L106.662 59.0777L108.615 60.9249Z" fill="#FFDB2E"/>
<path d="M110.782 61.1964L112.871 56.235C112.895 56.1785 112.929 56.1272 112.972 56.084C113.016 56.0407 113.067 56.0065 113.124 55.9831C113.18 55.9598 113.241 55.9478 113.302 55.9479C113.363 55.948 113.424 55.9601 113.481 55.9836C113.537 56.0071 113.588 56.0415 113.632 56.0848C113.675 56.1281 113.709 56.1796 113.732 56.2362C113.756 56.2927 113.768 56.3534 113.768 56.4146C113.768 56.4758 113.755 56.5364 113.732 56.5929L111.643 61.5639C111.605 61.6478 111.544 61.719 111.467 61.7688C111.39 61.8186 111.3 61.8449 111.208 61.8444C111.154 61.8579 111.097 61.8579 111.043 61.8444C110.98 61.824 110.922 61.7898 110.873 61.7444C110.824 61.699 110.786 61.6434 110.761 61.5816C110.736 61.5197 110.725 61.4532 110.729 61.3866C110.732 61.3201 110.751 61.2551 110.782 61.1964Z" fill="#FFDB2E"/>
<path d="M117.842 59.1946C117.828 59.2185 117.808 59.2385 117.784 59.2526L115.395 61.6801C115.29 61.777 115.152 61.8321 115.008 61.8349C114.868 61.8334 114.733 61.778 114.631 61.6801C114.53 61.5786 114.474 61.4413 114.474 61.2981C114.474 61.1549 114.53 61.0176 114.631 60.9161L116.643 58.8754L114.631 56.8445C114.53 56.743 114.474 56.6056 114.474 56.4625C114.474 56.3193 114.53 56.1819 114.631 56.0804C114.734 55.9817 114.871 55.9266 115.013 55.9266C115.156 55.9266 115.293 55.9817 115.395 56.0804L117.784 58.5079C117.81 58.5196 117.831 58.5402 117.842 58.566C117.862 58.5895 117.878 58.6155 117.891 58.6433C117.887 58.669 117.887 58.6951 117.891 58.7207V58.7787V58.8948C117.888 58.9205 117.888 58.9464 117.891 58.9722L117.842 59.1946Z" fill="#FFDB2E"/>
</g>
<g clip-path="url(#clip1_2023_39281)">
<path d="M272.475 26.0004H207V50.2462H272.475V26.0004Z" fill="#2BAB98"/>
<path d="M216.449 43.1481V32.3937C216.449 32.1372 216.551 31.8912 216.732 31.7098C216.914 31.5284 217.16 31.4265 217.416 31.4265C217.548 31.4186 217.68 31.4378 217.804 31.4828C217.928 31.5279 218.042 31.5978 218.138 31.6885C218.234 31.7791 218.311 31.8884 218.363 32.0097C218.415 32.1309 218.442 32.2616 218.441 32.3937V36.7651H223.161V32.3937C223.161 32.1372 223.263 31.8912 223.444 31.7098C223.626 31.5284 223.872 31.4265 224.128 31.4265C224.26 31.4186 224.392 31.4378 224.516 31.4828C224.64 31.5279 224.754 31.5978 224.85 31.6885C224.946 31.7791 225.022 31.8884 225.075 32.0097C225.127 32.1309 225.154 32.2616 225.153 32.3937V43.1481C225.154 43.2802 225.127 43.4109 225.075 43.5321C225.022 43.6534 224.946 43.7627 224.85 43.8533C224.754 43.944 224.64 44.0139 224.516 44.059C224.392 44.104 224.26 44.1232 224.128 44.1152C223.872 44.1152 223.626 44.0134 223.444 43.832C223.263 43.6506 223.161 43.4046 223.161 43.1481V38.7767H218.441V43.1481C218.442 43.2802 218.415 43.4109 218.363 43.5321C218.311 43.6534 218.234 43.7627 218.138 43.8533C218.042 43.944 217.928 44.0139 217.804 44.059C217.68 44.104 217.548 44.1232 217.416 44.1152C217.16 44.1152 216.914 44.0134 216.732 43.832C216.551 43.6506 216.449 43.4046 216.449 43.1481Z" fill="white"/>
<path d="M237.164 33.4185H234.263V43.1478C234.263 43.4146 234.157 43.6704 233.968 43.8591C233.78 44.0477 233.524 44.1537 233.257 44.1537C232.99 44.1537 232.735 44.0477 232.546 43.8591C232.357 43.6704 232.251 43.4146 232.251 43.1478V33.4185H229.35C229.218 33.4188 229.087 33.392 228.966 33.3398C228.845 33.2876 228.735 33.2111 228.645 33.1151C228.554 33.019 228.484 32.9055 228.439 32.7813C228.394 32.6572 228.375 32.5252 228.383 32.3934C228.383 32.1369 228.485 31.8909 228.666 31.7095C228.847 31.5282 229.093 31.4263 229.35 31.4263H237.087C237.343 31.4263 237.589 31.5282 237.771 31.7095C237.952 31.8909 238.054 32.1369 238.054 32.3934C238.056 32.6434 237.967 32.8855 237.803 33.0743C237.639 33.2631 237.412 33.3855 237.164 33.4185Z" fill="white"/>
<path d="M252.146 32.393V43.1475C252.129 43.4084 252.014 43.6531 251.823 43.8326C251.633 44.012 251.382 44.1127 251.121 44.1146C250.864 44.1146 250.618 44.0127 250.437 43.8314C250.255 43.65 250.154 43.404 250.154 43.1475V35.4782L247.523 39.1242C247.432 39.2551 247.311 39.3615 247.169 39.434C247.027 39.5066 246.87 39.543 246.711 39.5401C246.548 39.5412 246.387 39.5042 246.241 39.432C246.094 39.3598 245.967 39.2544 245.869 39.1242L243.268 35.4782V43.1475C243.268 43.4155 243.161 43.6726 242.972 43.8621C242.782 44.0517 242.525 44.1581 242.257 44.1581C241.989 44.1581 241.732 44.0517 241.542 43.8621C241.353 43.6726 241.246 43.4155 241.246 43.1475V32.393C241.246 32.1365 241.348 31.8906 241.53 31.7092C241.711 31.5278 241.957 31.4259 242.213 31.4259H242.271C242.429 31.4246 242.585 31.4618 242.724 31.5343C242.864 31.6068 242.984 31.7123 243.074 31.8418L246.701 36.8708L250.328 31.8418C250.419 31.7096 250.542 31.6023 250.686 31.5297C250.83 31.4571 250.989 31.4214 251.15 31.4259C251.406 31.435 251.65 31.5389 251.834 31.7176C252.018 31.8963 252.129 32.137 252.146 32.393Z" fill="white"/>
<path d="M256.556 43.1476V32.3931C256.556 32.1366 256.658 31.8907 256.839 31.7093C257.021 31.5279 257.267 31.426 257.523 31.426C257.654 31.4195 257.785 31.4396 257.908 31.4853C258.031 31.5309 258.144 31.6011 258.239 31.6916C258.334 31.7821 258.409 31.8909 258.461 32.0115C258.512 32.1321 258.539 32.262 258.539 32.3931V42.1224H263.481C263.75 42.1224 264.008 42.2294 264.199 42.4199C264.389 42.6103 264.496 42.8686 264.496 43.1379C264.496 43.4072 264.389 43.6655 264.199 43.856C264.008 44.0464 263.75 44.1534 263.481 44.1534H257.523C257.393 44.1535 257.264 44.1273 257.144 44.0763C257.024 44.0253 256.916 43.9505 256.825 43.8566C256.735 43.7627 256.665 43.6514 256.618 43.5296C256.572 43.4077 256.551 43.2778 256.556 43.1476Z" fill="white"/>
</g>
<path d="M255.001 104.804L259.092 114.688L255.001 116.381L250.891 106.429L244.131 111.671V83.827L263.628 103.518L255.001 104.804Z" fill="#38485C"/>
<path d="M244.131 80.8384C243.96 80.3909 243.874 79.9151 243.88 79.436C243.869 78.9565 243.954 78.4796 244.131 78.0337C244.305 78.4802 244.387 78.9571 244.373 79.436C244.381 79.9145 244.299 80.3904 244.131 80.8384Z" fill="#38485C"/>
<path d="M241.712 81.8051C241.279 81.6081 240.885 81.3327 240.552 80.9927C240.203 80.6628 239.927 80.2644 239.74 79.8225C240.176 80.0192 240.57 80.2983 240.9 80.6446C241.248 80.9709 241.525 81.3661 241.712 81.8051Z" fill="#38485C"/>
<path d="M240.716 84.1946C239.815 84.5295 238.823 84.5295 237.921 84.1946C238.825 83.8721 239.813 83.8721 240.716 84.1946Z" fill="#38485C"/>
<path d="M241.712 86.6407C241.525 87.0797 241.248 87.4749 240.9 87.8013C240.57 88.1475 240.176 88.4267 239.74 88.6234C239.927 88.1815 240.203 87.783 240.552 87.4531C240.885 87.1132 241.279 86.8378 241.712 86.6407Z" fill="#38485C"/>
<path d="M247.583 84.1945C248.491 83.8722 249.481 83.8722 250.388 84.1945C249.483 84.5301 248.488 84.5301 247.583 84.1945Z" fill="#38485C"/>
<path d="M246.539 81.8051C246.734 81.37 247.009 80.976 247.352 80.6446C247.684 80.296 248.081 80.0166 248.522 79.8225C248.112 80.6821 247.409 81.3677 246.539 81.7568V81.8051Z" fill="#38485C"/>
<defs>
<filter id="filter0_d_2023_39281" x="10" y="110" width="106.274" height="74" filterUnits="userSpaceOnUse" color-interpolation-filters="sRGB">
<feFlood flood-opacity="0" result="BackgroundImageFix"/>
<feColorMatrix in="SourceAlpha" type="matrix" values="0 0 0 0 0 0 0 0 0 0 0 0 0 0 0 0 0 0 127 0" result="hardAlpha"/>
<feOffset/>
<feGaussianBlur stdDeviation="4"/>
<feComposite in2="hardAlpha" operator="out"/>
<feColorMatrix type="matrix" values="0 0 0 0 0 0 0 0 0 0 0 0 0 0 0 0 0 0 0.08 0"/>
<feBlend mode="normal" in2="BackgroundImageFix" result="effect1_dropShadow_2023_39281"/>
<feBlend mode="normal" in="SourceGraphic" in2="effect1_dropShadow_2023_39281" result="shape"/>
</filter>
<filter id="filter1_d_2023_39281" x="259" y="129" width="56" height="56" filterUnits="userSpaceOnUse" color-interpolation-filters="sRGB">
<feFlood flood-opacity="0" result="BackgroundImageFix"/>
<feColorMatrix in="SourceAlpha" type="matrix" values="0 0 0 0 0 0 0 0 0 0 0 0 0 0 0 0 0 0 127 0" result="hardAlpha"/>
<feOffset/>
<feGaussianBlur stdDeviation="4"/>
<feComposite in2="hardAlpha" operator="out"/>
<feColorMatrix type="matrix" values="0 0 0 0 0 0 0 0 0 0 0 0 0 0 0 0 0 0 0.08 0"/>
<feBlend mode="normal" in2="BackgroundImageFix" result="effect1_dropShadow_2023_39281"/>
<feBlend mode="normal" in="SourceGraphic" in2="effect1_dropShadow_2023_39281" result="shape"/>
</filter>
<filter id="filter2_d_2023_39281" x="259" y="129" width="56" height="56" filterUnits="userSpaceOnUse" color-interpolation-filters="sRGB">
<feFlood flood-opacity="0" result="BackgroundImageFix"/>
<feColorMatrix in="SourceAlpha" type="matrix" values="0 0 0 0 0 0 0 0 0 0 0 0 0 0 0 0 0 0 127 0" result="hardAlpha"/>
<feOffset/>
<feGaussianBlur stdDeviation="4"/>
<feComposite in2="hardAlpha" operator="out"/>
<feColorMatrix type="matrix" values="0 0 0 0 0 0 0 0 0 0 0 0 0 0 0 0 0 0 0.08 0"/>
<feBlend mode="normal" in2="BackgroundImageFix" result="effect1_dropShadow_2023_39281"/>
<feBlend mode="normal" in="SourceGraphic" in2="effect1_dropShadow_2023_39281" result="shape"/>
</filter>
<filter id="filter3_d_2023_39281" x="83.7395" y="23.621" width="177.51" height="148.854" filterUnits="userSpaceOnUse" color-interpolation-filters="sRGB">
<feFlood flood-opacity="0" result="BackgroundImageFix"/>
<feColorMatrix in="SourceAlpha" type="matrix" values="0 0 0 0 0 0 0 0 0 0 0 0 0 0 0 0 0 0 127 0" result="hardAlpha"/>
<feOffset/>
<feGaussianBlur stdDeviation="4"/>
<feComposite in2="hardAlpha" operator="out"/>
<feColorMatrix type="matrix" values="0 0 0 0 0 0 0 0 0 0 0 0 0 0 0 0 0 0 0.08 0"/>
<feBlend mode="normal" in2="BackgroundImageFix" result="effect1_dropShadow_2023_39281"/>
<feBlend mode="normal" in="SourceGraphic" in2="effect1_dropShadow_2023_39281" result="shape"/>
</filter>
<clipPath id="clip0_2023_39281">
<rect width="76.6667" height="80" fill="white" transform="translate(229 69)"/>
</clipPath>
<clipPath id="clip1_2023_39281">
<rect x="207" y="26.0004" width="65.4745" height="24.2459" rx="2" fill="white"/>
</clipPath>
</defs>
</svg>
