<svg width="122" height="25" viewBox="0 0 122 25" fill="none" xmlns="http://www.w3.org/2000/svg">
<g clip-path="url(#clip0_308_12638)">
<mask id="mask0_308_12638" style="mask-type:luminance" maskUnits="userSpaceOnUse" x="0" y="0" width="25" height="25">
<path d="M22.9871 0.996094H2.11177C1.11806 0.996094 0.3125 1.78606 0.3125 2.76053V23.2317C0.3125 24.2061 1.11806 24.9961 2.11177 24.9961H22.9871C23.9808 24.9961 24.7864 24.2061 24.7864 23.2317V2.76053C24.7864 1.78606 23.9808 0.996094 22.9871 0.996094Z" fill="white"/>
</mask>
<g mask="url(#mask0_308_12638)">
<path d="M12.5484 13.0692L0.3125 1.07019V1.12578L12.5484 13.1247L12.624 13.1989L24.6541 24.9961H24.7864V1.07019L12.5484 13.0692Z" fill="#B8C1CC"/>
<path d="M12.5484 13.1248L12.624 13.1989L12.5484 13.1248Z" fill="#E8E8E8"/>
<path d="M0.595932 24.9961H24.6541L12.624 13.1989L0.595932 24.9961Z" fill="#8A98A8"/>
<path d="M12.5484 13.1248L0.3125 1.12585V24.9961H0.595933L12.624 13.1989L12.5484 13.1248Z" fill="#5C6A7A"/>
<path d="M24.7864 1.07021V0.996094H0.3125V1.07021L12.624 13.1989L24.7864 1.07021Z" fill="#E6EBF0"/>
</g>
<path d="M112.096 20.761C111.183 20.2731 110.438 19.5298 109.955 18.626C109.432 17.6254 109.172 16.5136 109.197 15.3895C109.17 14.2695 109.43 13.1597 109.955 12.1633C110.44 11.2656 111.185 10.5265 112.096 10.0406C114.12 9.05028 116.503 9.05028 118.527 10.0406C119.434 10.5224 120.175 11.2574 120.656 12.153C121.17 13.1515 121.426 14.2592 121.401 15.3792C121.426 16.5012 121.17 17.613 120.656 18.6157C120.181 19.5236 119.44 20.271 118.527 20.761C116.503 21.7513 114.12 21.7513 112.096 20.761ZM117.555 18.2183C118.078 17.5801 118.338 16.6351 118.338 15.3895C118.338 14.1439 118.095 13.2091 117.561 12.5606C117.028 11.9121 116.289 11.5888 115.311 11.5888C114.332 11.5888 113.579 11.908 113.056 12.5606C112.533 13.2133 112.262 14.148 112.262 15.3792C112.262 16.6104 112.523 17.5698 113.045 18.208C113.568 18.8463 114.315 19.1695 115.296 19.1695C116.276 19.1695 117.045 18.8483 117.561 18.208L117.555 18.2183Z" fill="white"/>
<path d="M37.333 20.4625C36.0985 19.7563 35.1076 18.7043 34.4861 17.4422C33.8185 16.1307 33.4846 14.5969 33.4846 12.8365C33.4846 11.0762 33.8143 9.5465 34.4735 8.2453C35.0929 6.98323 36.0859 5.93528 37.3225 5.23527C38.5633 4.53114 40.0225 4.17908 41.7021 4.17908C43.3817 4.17908 44.8367 4.53114 46.067 5.23527C47.2973 5.93733 48.2861 6.98735 48.9034 8.2453C49.5626 9.54855 49.8923 11.0783 49.8944 12.8365C49.8944 14.5948 49.5605 16.1307 48.8908 17.4422C48.2672 18.7043 47.2742 19.7563 46.0397 20.4625C44.8094 21.1666 43.3628 21.5187 41.7 21.5187C40.0372 21.5187 38.5822 21.1666 37.333 20.4625ZM45.4035 17.4422C46.2916 16.3695 46.7346 14.8357 46.7367 12.8365C46.7367 10.8374 46.2937 9.30767 45.4035 8.2453C44.5154 7.18088 43.2809 6.64764 41.7 6.6497C40.1191 6.65175 38.8762 7.18294 37.9692 8.2453C37.079 9.30767 36.6339 10.8374 36.6339 12.8365C36.6339 14.8357 37.079 16.3695 37.9671 17.4422C38.8552 18.5128 40.0981 19.0481 41.6979 19.0481C43.2977 19.0481 44.5322 18.5128 45.4035 17.4422Z" fill="white"/>
<path d="M61.4584 10.0303C62.2751 10.545 62.9239 11.2759 63.3291 12.1406C63.7973 13.1412 64.0261 14.2324 64.0009 15.3319C64.024 16.4416 63.7952 17.5431 63.3291 18.556C62.9239 19.4413 62.2688 20.1949 61.4395 20.726C60.6186 21.2428 59.6612 21.5105 58.6871 21.494C57.8809 21.5084 57.0851 21.319 56.3776 20.9422C55.7184 20.5922 55.1767 20.0569 54.824 19.4084V20.0075C54.8408 20.3946 54.6875 20.7693 54.4041 21.0369C54.1018 21.3005 53.707 21.4384 53.3039 21.4199C52.9029 21.4405 52.5124 21.3025 52.2164 21.0369C51.9393 20.7652 51.7923 20.3904 51.8112 20.0075V5.66556C51.7944 5.28673 51.9477 4.91819 52.2311 4.65878C52.8777 4.15642 53.7889 4.14819 54.4461 4.63613C54.7295 4.88525 54.8849 5.24555 54.866 5.6182V11.278C55.2187 10.6459 55.7541 10.1333 56.407 9.80384C57.1103 9.45178 57.8914 9.27472 58.6808 9.28707C59.6612 9.26648 60.6249 9.52384 61.4584 10.0303ZM60.1483 18.1607C60.6858 17.4895 60.9545 16.5466 60.9566 15.3319C60.9566 14.1171 60.6879 13.1968 60.1483 12.573C59.6213 11.9327 58.8655 11.6136 57.8893 11.6136C56.913 11.6136 56.1551 11.9368 55.626 12.5853C55.0969 13.2339 54.8303 14.1645 54.8303 15.3792C54.8303 16.5939 55.0948 17.5307 55.626 18.1854C56.1572 18.8401 56.9088 19.1695 57.8893 19.1695C58.7647 19.2128 59.6066 18.836 60.1483 18.1607Z" fill="white"/>
<path d="M75.6846 18.3996C75.8652 18.6425 75.9555 18.939 75.9408 19.2396C75.9408 19.7358 75.6385 20.1517 75.0359 20.4872C74.4396 20.8064 73.8056 21.0514 73.1464 21.2181C72.4934 21.3952 71.8195 21.4878 71.1413 21.494C69.2161 21.494 67.6918 20.9505 66.5665 19.8634C65.4412 18.7763 64.8806 17.2899 64.8869 15.4039C64.8659 14.2983 65.1179 13.203 65.6217 12.2127C66.0836 11.3151 66.7975 10.5657 67.6813 10.0551C68.5988 9.53623 69.6423 9.27064 70.7025 9.28711C71.6872 9.26446 72.6593 9.50534 73.5159 9.983C74.3158 10.4483 74.9603 11.1318 75.3739 11.9492C75.8337 12.8839 76.0605 13.9113 76.0353 14.9469C76.0353 15.6325 75.7245 15.9763 75.1052 15.9763H67.8892C67.9879 17.0737 68.3049 17.8869 68.8445 18.4119C69.384 18.9369 70.1651 19.1963 71.1917 19.1902C71.6599 19.1984 72.126 19.1325 72.5732 18.9987C73.0351 18.8463 73.4886 18.6693 73.9295 18.4696C74.4208 18.2122 74.7798 18.0846 75.0086 18.0846C75.271 18.0805 75.523 18.1957 75.6846 18.3996ZM68.7836 12.1654C68.2839 12.678 67.9879 13.413 67.8892 14.3704H73.4172C73.3857 13.3966 73.1421 12.6574 72.6845 12.153C72.2268 11.6486 71.5906 11.3954 70.776 11.3974C70.0307 11.3645 69.3064 11.6445 68.7836 12.1654Z" fill="white"/>
<path d="M77.9773 21.074C77.6834 20.796 77.5301 20.4069 77.5574 20.0075V5.69024C77.528 5.29494 77.6834 4.90788 77.9773 4.63611C78.2838 4.38905 78.6701 4.25934 79.0669 4.27581C79.4659 4.2614 79.8564 4.38905 80.1671 4.63611C80.4715 4.9017 80.6353 5.29082 80.608 5.69024V20.0075C80.6332 20.411 80.4715 20.8022 80.1671 21.074C79.8606 21.3272 79.468 21.461 79.0669 21.4466C78.668 21.461 78.2796 21.3293 77.9773 21.074Z" fill="white"/>
<path d="M82.9804 6.76091C82.6508 6.46238 82.4723 6.03619 82.4912 5.59766C82.4723 5.16118 82.6508 4.73912 82.9804 4.44676C83.7572 3.87028 84.8322 3.87028 85.609 4.44676C85.9449 4.73706 86.1276 5.15912 86.1108 5.59766C86.1276 6.03619 85.9491 6.46032 85.6216 6.76091C84.8448 7.35386 83.7572 7.35386 82.9804 6.76091ZM83.2114 21.0781C82.9174 20.8002 82.7642 20.4111 82.7915 20.0117V10.7468C82.7621 10.3515 82.9174 9.96242 83.2114 9.69065C83.5158 9.44771 83.9 9.32212 84.2926 9.33653C84.6915 9.32417 85.082 9.44977 85.3948 9.69477C85.6993 9.96242 85.8609 10.3515 85.8336 10.751V20.0158C85.8588 20.4173 85.6972 20.8105 85.3948 21.0823C85.0862 21.3334 84.6936 21.4631 84.2926 21.4467C83.8979 21.459 83.5116 21.3273 83.2114 21.074V21.0781Z" fill="white"/>
<path d="M88.0402 20.4625C87.551 20.2114 87.2487 19.7111 87.2592 19.1696C87.2466 18.8855 87.3432 18.6075 87.5279 18.3893C87.6896 18.1937 87.931 18.0825 88.1872 18.0846C88.5945 18.1278 88.985 18.2596 89.3314 18.4716C89.7933 18.6899 90.272 18.8752 90.7633 19.0255C91.3007 19.1655 91.8571 19.2314 92.4135 19.2169C92.9677 19.2458 93.522 19.1305 94.0154 18.8814C94.3723 18.7002 94.5949 18.3378 94.5907 17.9446C94.6075 17.7099 94.5277 17.4772 94.3702 17.2981C94.1288 17.0881 93.8411 16.9337 93.5304 16.8493C92.9321 16.6619 92.3232 16.5054 91.708 16.3819C90.2573 16.0937 89.218 15.686 88.5903 15.159C87.9625 14.6319 87.6497 13.9051 87.6518 12.9807C87.6476 12.2992 87.8681 11.6321 88.2817 11.0845C88.7309 10.4977 89.3356 10.0427 90.0305 9.76683C90.8325 9.44153 91.6954 9.283 92.5625 9.29741C93.2302 9.29535 93.8978 9.37976 94.5424 9.55065C95.1491 9.70094 95.7307 9.94389 96.2598 10.2712C96.7406 10.5204 97.0408 11.0083 97.0429 11.5416C97.0534 11.8319 96.9589 12.116 96.7741 12.3445C96.6188 12.5483 96.3752 12.6698 96.1149 12.6698C95.9343 12.6698 95.7538 12.6327 95.5879 12.5607C95.3675 12.4639 95.1512 12.3569 94.9413 12.2374C94.5466 12.0336 94.1372 11.8545 93.7173 11.7021C93.3058 11.5724 92.8754 11.5127 92.4429 11.523C91.939 11.4942 91.4393 11.6177 91.011 11.8771C90.673 12.0933 90.4756 12.466 90.4861 12.8613C90.4735 13.2401 90.6814 13.5942 91.0236 13.7713C91.3805 13.9772 92.0734 14.1831 93.1021 14.3889C93.9839 14.5495 94.8468 14.8069 95.6698 15.1569C96.2115 15.3813 96.6755 15.756 97.003 16.2357C97.2885 16.7381 97.4292 17.3084 97.4061 17.8828C97.4271 18.9266 96.9064 19.9108 96.0246 20.4975C95.1029 21.1523 93.8768 21.4796 92.3442 21.4796C90.568 21.4899 89.1341 21.1502 88.0402 20.4625Z" fill="white"/>
<path d="M101.066 20.7611C100.167 20.2772 99.4363 19.5422 98.966 18.6507C98.458 17.6625 98.206 16.5672 98.2312 15.4616C98.2081 14.3395 98.4727 13.2298 99.0017 12.2354C99.4951 11.3171 100.251 10.5595 101.177 10.0551C102.157 9.53005 103.262 9.26446 104.379 9.2871C105.027 9.28916 105.674 9.37769 106.3 9.55064C106.898 9.70711 107.471 9.95005 107.998 10.2712C108.521 10.6068 108.783 11.0309 108.781 11.5415C108.796 11.8463 108.706 12.1468 108.525 12.3939C108.368 12.6018 108.118 12.7213 107.853 12.7171C107.658 12.7151 107.467 12.6739 107.288 12.5977C107.087 12.5133 106.892 12.4186 106.703 12.3095C106.375 12.116 106.033 11.9513 105.676 11.8174C105.315 11.6918 104.933 11.6321 104.551 11.6383C103.539 11.6383 102.762 11.9615 102.214 12.608C101.666 13.2545 101.395 14.1872 101.395 15.4039C101.395 16.6207 101.668 17.5246 102.214 18.1731C102.76 18.8216 103.539 19.1449 104.551 19.1449C104.922 19.151 105.29 19.0893 105.638 18.9637C106.004 18.8237 106.358 18.659 106.703 18.4716C106.904 18.3502 107.114 18.241 107.333 18.1484C107.503 18.0784 107.685 18.0434 107.87 18.0413C108.132 18.0413 108.378 18.1669 108.531 18.3769C108.716 18.6178 108.811 18.9143 108.8 19.2169C108.806 19.464 108.741 19.709 108.617 19.9231C108.466 20.1496 108.261 20.3349 108.017 20.4625C107.471 20.8002 106.879 21.0555 106.256 21.2181C105.588 21.4014 104.897 21.494 104.202 21.494C103.11 21.5187 102.029 21.2675 101.066 20.7611Z" fill="white"/>
<path d="M112.096 20.761C111.183 20.2731 110.438 19.5298 109.955 18.626C109.432 17.6254 109.172 16.5136 109.197 15.3895C109.17 14.2695 109.43 13.1597 109.955 12.1633C110.44 11.2656 111.185 10.5265 112.096 10.0406C114.12 9.05028 116.503 9.05028 118.527 10.0406C119.434 10.5224 120.175 11.2574 120.656 12.153C121.17 13.1515 121.426 14.2592 121.401 15.3792C121.426 16.5012 121.17 17.613 120.656 18.6157C120.181 19.5236 119.44 20.271 118.527 20.761C116.503 21.7513 114.12 21.7513 112.096 20.761ZM117.555 18.2183C118.078 17.5801 118.338 16.6351 118.338 15.3895C118.338 14.1439 118.095 13.2091 117.561 12.5606C117.028 11.9121 116.289 11.5888 115.311 11.5888C114.332 11.5888 113.579 11.908 113.056 12.5606C112.533 13.2133 112.262 14.148 112.262 15.3792C112.262 16.6104 112.523 17.5698 113.045 18.208C113.568 18.8463 114.315 19.1695 115.296 19.1695C116.276 19.1695 117.045 18.8483 117.561 18.208L117.555 18.2183Z" fill="white"/>
</g>
<defs>
<clipPath id="clip0_308_12638">
<rect width="121.091" height="24" fill="white" transform="translate(0.3125 0.996094)"/>
</clipPath>
</defs>
</svg>
