<svg width="534" height="304" viewBox="0 0 534 304" fill="none" xmlns="http://www.w3.org/2000/svg">
<g clip-path="url(#clip0_33_6146)">
<rect width="534" height="304" fill="#F3F6F9"/>
<path d="M-38.309 362.563C0.434593 362.563 31.8786 331.119 31.8786 292.375V222.188H-38.309C-77.0525 222.188 -108.497 253.632 -108.497 292.375C-108.497 331.119 -77.0525 362.563 -38.309 362.563Z" fill="#0ACF83"/>
<path d="M-108.497 152C-108.497 113.256 -77.0525 81.8124 -38.309 81.8124H31.8786V222.188H-38.309C-77.0525 222.188 -108.497 190.744 -108.497 152Z" fill="#A259FF"/>
<path d="M-108.497 11.6248C-108.497 -27.1188 -77.0525 -58.5629 -38.309 -58.5629H31.8786V81.8124H-38.309C-77.0525 81.8124 -108.497 50.3683 -108.497 11.6248Z" fill="#F24E1E"/>
<path d="M31.8787 -58.5629H102.066C140.81 -58.5629 172.254 -27.1188 172.254 11.6248C172.254 50.3683 140.81 81.8124 102.066 81.8124H31.8787V-58.5629Z" fill="#FF7262"/>
<path d="M172.254 152C172.254 190.744 140.81 222.188 102.066 222.188C63.3227 222.188 31.8787 190.744 31.8787 152C31.8787 113.256 63.3227 81.8124 102.066 81.8124C140.81 81.8124 172.254 113.256 172.254 152Z" fill="#1ABCFE"/>
<path d="M414.528 170.74C402.295 186.695 401.231 210.486 401.231 210.486C401.231 210.486 390.729 235.681 396.159 247.866C399.08 254.915 405.288 260.067 412.75 261.647L410.503 254.796C410.503 254.796 416.155 263.234 431.714 265.06C447.264 266.886 466.625 259.44 476.342 252.772C482.121 248.842 486.78 243.484 489.868 237.221L487.328 247.945C497.211 245.485 505.205 238.221 508.602 228.624C515.302 211.74 487.415 192.347 484.677 187.751C481.938 183.155 474.73 147.957 438.525 158.912C429.269 159.515 420.632 163.77 414.52 170.74H414.528Z" fill="#233239"/>
<path d="M407.217 261.424C402.684 259.591 398.818 256.423 396.127 252.343C393.278 248.358 391.833 243.54 392.015 238.642C392.658 232.831 394.333 227.187 396.961 221.964C399.318 216.447 402.033 211.113 404.343 205.572C404.47 205.262 404.018 205.088 403.835 205.318C401.049 209.652 398.509 214.145 396.223 218.765C393.825 223.028 391.928 227.56 390.571 232.26C389.308 236.61 389.308 241.222 390.571 245.572C391.753 249.073 393.762 252.24 396.421 254.812C399.652 257.582 403.24 259.916 407.074 261.766C407.312 261.885 407.463 261.52 407.217 261.432V261.424Z" fill="#233239"/>
<path d="M509.539 211.906C503.45 199.388 490.765 192.617 482.24 182.123C478.072 176.074 473.341 170.43 468.11 165.27C467.959 165.27 467.729 165.421 467.88 165.556C472.222 170.112 476.072 175.113 479.35 180.487C483.2 185.6 487.542 190.315 492.313 194.578C500.783 202.508 510.888 211.867 510.809 224.52C511.182 230.728 508.007 236.61 502.617 239.714C502.41 239.714 502.617 240.166 502.791 240.047C507.213 237.546 510.412 233.347 511.642 228.426C512.944 222.853 512.198 216.995 509.539 211.922V211.906Z" fill="#233239"/>
<path d="M510.531 215.32C510.285 210.319 508.515 205.508 505.459 201.539C502.172 197.872 498.132 194.959 493.615 192.99C488.352 190.934 483.621 187.727 479.763 183.599C479.612 183.417 479.358 183.599 479.509 183.853C485.193 191.394 494.552 194.117 501.402 200.095C508.888 207.318 511.166 218.4 507.134 227.989C504.839 233.816 501.212 239.023 496.528 243.183M496.528 243.31C505.34 236.713 510.531 226.354 510.531 215.344L496.528 243.31Z" fill="#233239"/>
<path d="M355.206 193.958L368.527 252.843C369.114 254.566 368.217 255.947 366.55 255.899L336.687 255.233C334.813 255.05 333.218 253.804 332.599 252.026L319.302 193.165C318.715 191.418 319.612 190.061 321.255 190.085L351.142 190.751C353.008 190.934 354.595 192.18 355.206 193.958Z" fill="#A5A5A5"/>
<path d="M351.682 193.855L364.978 252.708C365.566 254.455 364.669 255.812 363.025 255.788L333.139 255.121C331.273 254.931 329.678 253.685 329.05 251.914L315.754 192.919C315.167 191.196 316.064 189.815 317.731 189.862L347.594 190.529C349.499 190.728 351.102 192.03 351.682 193.855Z" fill="#DADADA"/>
<path d="M343.434 196.34C343.45 197.745 344.601 198.864 345.998 198.848C347.403 198.832 348.523 197.681 348.507 196.284C348.491 194.895 347.364 193.776 345.967 193.776C344.562 193.776 343.418 194.935 343.426 196.34H343.434Z" fill="#3F5B65"/>
<path d="M449.582 284.754C432.182 320.952 393.619 367.723 377.886 367.723C370.4 367.723 357.032 369.335 347.435 360.523C326.296 341.281 308.88 304.798 305.506 283.992C304.315 276.626 339.83 261.234 345.101 267.187C357.175 281.404 371.083 309.212 373.266 309.085C381.307 308.569 413.099 282.508 435.294 264.155C462.22 241.905 456.52 270.331 449.59 284.746L449.582 284.754Z" fill="#F88E7C"/>
<path d="M305.046 245.858C309.007 230.926 312.277 227.695 309.007 213.304C306.848 203.857 311.896 198.428 318.39 206.072C329.019 218.567 327.931 238.92 325.518 245.866H305.046V245.858Z" fill="#F88E7C"/>
<path d="M307.078 290.478C307.078 290.478 300.735 269.513 303.394 253.177C305.22 241.889 311.92 217.773 343.442 205.405C350.904 202.484 363.613 203.659 353.135 212.923C345.673 219.511 339.005 221.416 335.377 226.036C335.377 226.036 351.356 229.474 353.976 237.173C356.262 243.881 358.064 250.74 359.374 257.701C358.167 258.225 356.929 258.678 355.675 259.051C356.802 265.108 355.675 271.363 352.523 276.65L307.086 290.486L307.078 290.478Z" fill="#F88E7C"/>
<path d="M306.848 242.674C314.167 236.213 322.509 231.013 331.535 227.283C342.926 223.234 365.994 218.511 368.876 227.052C370.979 233.355 362.327 235.903 362.327 235.903C362.327 235.903 372.273 235.903 372.956 242.087C373.567 247.628 366.764 249.215 366.764 249.215C366.764 249.215 372.773 250.319 372.369 255.756C371.861 262.329 359.318 258.963 353.135 265.147C351.738 266.536 306.832 242.674 306.832 242.674H306.848Z" fill="#F88E7C"/>
<path d="M333.766 240.19C342.545 235.808 352.46 234.252 362.16 235.729C362.39 235.729 362.486 235.983 362.16 235.983C352.531 236.245 342.966 237.697 333.694 240.293C333.71 240.253 333.734 240.214 333.774 240.19H333.766Z" fill="#233239"/>
<path d="M338.171 251.708C347.276 248.199 357.159 247.247 366.764 248.961C367.018 248.961 367.09 249.247 366.764 249.247C357.143 248.993 347.522 249.858 338.092 251.811C338.108 251.772 338.132 251.732 338.171 251.708Z" fill="#233239"/>
<path d="M396.635 292.169L433.476 319.801C433.476 319.801 451.416 295.352 455.647 273.617C459.878 251.883 448.9 251.684 432.301 264.996C415.711 278.309 396.627 292.169 396.627 292.169H396.635Z" fill="#FFBE00"/>
<path d="M404.883 288.215C407.018 289.239 424.903 302.25 436.802 311.918C436.953 312.069 436.802 312.307 436.627 312.204C425.427 305.06 414.75 297.122 404.685 288.446C404.534 288.319 404.732 288.136 404.891 288.215H404.883Z" fill="#233239"/>
<path d="M455.647 273.49C451.432 295.352 433.476 319.674 433.476 319.674L408.868 301.226L445.986 256.455C454.282 253.732 458.568 258.503 455.647 273.49Z" fill="#233239"/>
<path d="M534.099 341.019C519.612 310.49 501.498 277.261 484.978 261.258C484.193 260.488 483.383 259.749 482.597 259.075L482.145 258.662C466.086 244.881 449.162 251.462 438.326 262.79C435.786 265.608 407.249 312.18 406.026 328.93C406.002 338.186 408.765 347.243 413.94 354.919H534.099V341.019Z" fill="#FFBE00"/>
<path d="M534.091 296.042C521.16 283.532 507.046 272.299 491.948 262.512C480.025 255.455 459.1 250.811 479.263 282.762C491.091 301.44 510.309 335.693 519.422 354.911H534.036L534.083 296.05L534.091 296.042Z" fill="#F88E7C"/>
<path d="M494.599 318.618L527.987 286.906C527.987 286.906 507.459 264.639 486.963 256.503C466.467 248.366 464.411 259.249 474.278 278.134C484.153 297.019 494.599 318.618 494.599 318.618Z" fill="#FFBE00"/>
<path d="M492.059 309.743C493.409 307.799 509.34 292.351 520.882 282.27C521.057 282.143 521.263 282.27 521.136 282.5C512.174 292.343 502.514 301.52 492.234 309.974C492.117 309.99 492.059 309.913 492.059 309.743Z" fill="#233239"/>
<path d="M498.259 314.848C496.941 315.578 495.671 316.38 494.449 317.261C494.194 316.673 493.861 316.102 493.552 315.491L491.599 311.537C490.098 308.64 488.582 305.79 486.979 302.94C483.859 297.4 480.462 291.907 477.596 286.215C477.596 285.985 477.143 286.215 477.27 286.445C478.842 289.446 480.319 292.55 481.732 295.653C481.501 295.447 478.183 292.756 477.644 292.216C477.104 291.676 477.159 292.343 477.366 292.526C477.953 292.978 482.438 297.527 482.668 297.654L485.367 303.504C486.709 306.362 488.098 309.18 489.551 311.974C490.233 313.284 490.9 314.538 491.63 315.872C492.361 317.205 493.766 319.595 493.79 319.642C495.465 318.253 497.044 316.761 498.537 315.181C498.568 315.03 498.473 314.879 498.322 314.848H498.267H498.259Z" fill="#233239"/>
<path d="M458.592 247.707C450.043 249.335 442.533 254.383 437.81 261.694C432.333 269.212 427.308 279.912 431.087 282.222C435.421 284.786 444.026 275.11 444.026 275.11C444.026 275.11 441.843 290.859 450.114 290.041C459.775 289.12 468.61 275.522 470.237 266.306C471.968 256.352 470.214 246.501 458.592 247.707Z" fill="white"/>
<path d="M468.11 256.122C467.451 258.408 455.703 272.879 445.272 271.823C441.867 271.466 442.938 252.581 442.938 252.581L442.708 251.168L439.414 231.371L462.879 217.852L466.284 216.082C466.284 216.082 466.816 221.551 467.451 228.37V229.346C467.427 229.72 467.475 230.093 467.578 230.45C467.578 231.474 467.784 232.498 467.856 233.554C467.856 234.355 467.919 235.149 468.039 235.935L468.189 238.499C468.547 244.365 468.523 250.255 468.11 256.122Z" fill="#F88E7C"/>
<path d="M467.395 228.307C462.895 239.166 453.845 247.501 442.652 251.089L439.358 231.291L462.823 217.773L466.229 216.003C466.229 216.003 466.689 221.48 467.403 228.307H467.395Z" fill="#233239"/>
<path d="M410.36 202.809C408.582 237.959 429.213 242.992 436.723 243.373C443.518 243.706 466.737 243.992 472.063 209.223C477.389 174.455 461.783 162.5 446.288 160.888C430.785 159.277 412.115 167.652 410.36 202.809Z" fill="#F88E7C"/>
<path d="M417.036 197.777C417.822 197.65 418.608 197.467 419.37 197.237C420.227 197.157 421.029 196.8 421.656 196.213C421.998 195.768 421.998 195.149 421.656 194.705C420.839 193.943 419.672 193.689 418.608 194.038C417.497 194.212 416.496 194.808 415.822 195.705C415.393 196.284 415.512 197.102 416.084 197.539C416.354 197.745 416.695 197.832 417.036 197.785V197.777Z" fill="#233239"/>
<path d="M441.136 198.062C440.335 197.967 439.533 197.816 438.755 197.61C437.906 197.57 437.096 197.245 436.445 196.689C436.104 196.245 436.104 195.625 436.445 195.181C437.223 194.379 438.39 194.07 439.461 194.387C440.573 194.53 441.589 195.086 442.303 195.951C442.74 196.538 442.621 197.372 442.041 197.816C441.779 198.007 441.462 198.094 441.136 198.062Z" fill="#233239"/>
<path d="M436.675 207.04C436.778 207.04 436.858 207.128 436.85 207.231C436.85 207.231 436.85 207.239 436.85 207.247C436.85 209.628 437.056 212.375 439.207 213.2V213.351C436.572 212.962 436.238 209.295 436.675 207.04Z" fill="#233239"/>
<path d="M438.779 204.556C442.613 204.27 442.867 211.994 439.334 212.256C435.81 212.51 435.58 204.794 438.779 204.556Z" fill="#233239"/>
<path d="M440.311 204.81C440.993 205.262 441.66 205.993 442.494 206.04C443.327 206.088 444.089 205.27 444.677 204.445H444.804C444.804 205.905 444.351 207.445 442.827 207.731C441.295 208.017 440.287 206.707 439.914 205.167C439.827 205.143 440.033 204.81 440.319 204.81H440.311Z" fill="#233239"/>
<path d="M421.783 206.485C421.68 206.485 421.601 206.572 421.609 206.675C421.609 206.675 421.609 206.683 421.609 206.691C421.783 209.104 421.609 211.819 419.505 212.748C422.117 212.51 422.331 208.731 421.783 206.485Z" fill="#233239"/>
<path d="M419.553 204.064C415.726 203.937 415.742 211.764 419.299 211.764C422.855 211.764 422.76 204.167 419.553 204.064Z" fill="#233239"/>
<path d="M417.973 204.588C417.362 205 416.782 205.747 416.044 205.794C415.306 205.842 414.599 205.024 414.067 204.23H413.94C413.94 205.723 414.393 207.255 415.798 207.541C417.203 207.826 418.044 206.517 418.338 204.977C418.481 204.818 418.227 204.429 417.981 204.588H417.973Z" fill="#233239"/>
<path d="M436.238 225.457C435.707 226.044 435.199 226.87 434.365 227.021C433.5 227.052 432.635 226.917 431.825 226.608C431.825 226.608 431.674 226.608 431.825 226.735C432.587 227.64 433.794 228.045 434.945 227.791C435.897 227.441 436.556 226.56 436.619 225.544C436.389 225.33 436.238 225.33 436.238 225.457Z" fill="#233239"/>
<path d="M426.094 217.027C426.094 217.027 425.689 220.622 425.713 222.313C425.713 222.464 426.117 222.543 426.705 222.543C429.642 223.02 432.587 221.781 434.317 219.36C434.444 219.209 434.317 219.027 434.063 219.154C431.968 220.662 429.443 221.448 426.864 221.4C426.737 220.948 427.761 215.264 427.499 215.264C426.213 215.415 424.95 215.733 423.744 216.217C424.379 208.723 426.284 201.373 426.713 193.895C426.713 193.641 426.332 193.562 426.26 193.895C424.085 201.706 422.68 209.716 422.077 217.804C421.958 218.686 425.363 217.328 426.094 217.019V217.027Z" fill="#233239"/>
<path d="M426.856 221.924C427.864 223.258 429.189 224.314 430.714 225.004C431.563 225.346 432.492 225.409 433.381 225.187C435.31 224.703 435.357 222.94 435.032 221.393C434.841 220.583 434.564 219.797 434.198 219.059C432.127 220.773 429.555 221.781 426.864 221.932L426.856 221.924Z" fill="#233239"/>
<path d="M430.706 225.004C431.555 225.346 432.484 225.409 433.373 225.187C435.302 224.703 435.349 222.94 435.016 221.392C432.92 221.464 431.134 222.956 430.706 225.012V225.004Z" fill="#FF91BA"/>
<path d="M468.967 210.914C460.418 210.914 457.044 184.433 456.663 181.178C457.124 185.647 457.124 190.156 456.663 194.625C455.75 194.641 454.837 194.498 453.964 194.212C453.909 192.903 453.766 191.601 453.512 190.315C453.29 191.537 453.139 192.768 453.059 194.006L451.464 193.593C451.464 190.791 451.099 188.005 450.368 185.306C449.789 187.846 449.376 190.418 449.13 193.006C441.771 191.093 434.23 190.013 426.633 189.775C424.76 189.735 422.887 189.799 421.029 189.981C421.148 188.005 421.148 186.028 421.029 184.06C420.458 186.028 420.084 188.045 419.91 190.093L417.37 190.378C417.012 185.814 418.918 178.471 418.235 179.606C416.195 183.115 414.845 186.981 414.25 190.998C411.178 191.688 410.344 192.347 410.241 191.537C410.852 182.544 414.623 174.05 420.894 167.572C432.531 155.76 451.535 155.617 463.347 167.255C463.919 167.818 464.466 168.398 464.99 169.009C470.968 172.843 475.27 178.797 477.016 185.687C478.914 196.149 473.913 210.93 468.959 210.93L468.967 210.914Z" fill="#233239"/>
<path d="M465.189 210.914C465.189 210.914 472.389 199.666 477.421 202.214C482.454 204.762 477.421 220.892 471.611 223.274C468.705 224.727 465.173 223.544 463.72 220.638C463.712 220.615 463.696 220.599 463.688 220.575C463.657 220.503 463.617 220.44 463.593 220.368L465.189 210.906V210.914Z" fill="#F88E7C"/>
<path d="M475.842 206.81V206.961C472.135 209.009 469.467 212.518 468.483 216.638C469.316 215.042 471.285 214.431 472.881 215.264C472.897 215.264 472.905 215.28 472.92 215.288C473.063 215.368 473.198 215.455 473.333 215.55C473.333 215.55 473.333 215.804 473.206 215.78C471.722 215.368 470.142 215.947 469.277 217.217C468.57 218.257 467.975 219.368 467.499 220.527C467.324 220.916 466.665 220.734 466.784 220.297C466.53 215.066 470.285 207.525 475.842 206.81Z" fill="#233239"/>
<g clip-path="url(#clip1_33_6146)">
<mask id="mask0_33_6146" style="mask-type:luminance" maskUnits="userSpaceOnUse" x="148" y="128" width="49" height="48">
<path d="M192.725 128H151.783C149.834 128 148.254 129.58 148.254 131.529V172.471C148.254 174.42 149.834 176 151.783 176H192.725C194.674 176 196.254 174.42 196.254 172.471V131.529C196.254 129.58 194.674 128 192.725 128Z" fill="white"/>
</mask>
<g mask="url(#mask0_33_6146)">
<path d="M172.252 152.146L148.254 128.148V128.259L172.252 152.257L172.4 152.406L195.994 176H196.254V128.148L172.252 152.146Z" fill="#B8C1CC"/>
<path d="M172.252 152.257L172.4 152.406L172.252 152.257Z" fill="#E8E8E8"/>
<path d="M148.81 176H195.994L172.4 152.406L148.81 176Z" fill="#8A98A8"/>
<path d="M172.252 152.257L148.254 128.259V176H148.81L172.4 152.406L172.252 152.257Z" fill="#5C6A7A"/>
<path d="M196.254 128.148V128H148.254V128.148L172.4 152.406L196.254 128.148Z" fill="#E6EBF0"/>
</g>
<path d="M367.492 167.53C365.701 166.554 364.239 165.068 363.292 163.26C362.267 161.259 361.756 159.035 361.806 156.787C361.752 154.547 362.263 152.327 363.292 150.334C364.244 148.539 365.705 147.061 367.492 146.089C371.462 144.108 376.135 144.108 380.105 146.089C381.884 147.053 383.337 148.523 384.28 150.314C385.289 152.311 385.791 154.526 385.742 156.766C385.791 159.01 385.289 161.234 384.28 163.239C383.35 165.055 381.896 166.55 380.105 167.53C376.135 169.51 371.462 169.51 367.492 167.53ZM378.198 162.445C379.224 161.168 379.734 159.278 379.734 156.787C379.734 154.296 379.257 152.426 378.211 151.129C377.165 149.832 375.715 149.186 373.797 149.186C371.878 149.186 370.399 149.824 369.374 151.129C368.349 152.434 367.818 154.304 367.818 156.766C367.818 159.229 368.328 161.147 369.354 162.424C370.379 163.7 371.845 164.347 373.768 164.347C375.691 164.347 377.198 163.705 378.211 162.424L378.198 162.445Z" fill="white"/>
<path d="M220.861 166.933C218.44 165.52 216.496 163.416 215.278 160.892C213.968 158.269 213.313 155.202 213.313 151.681C213.313 148.16 213.96 145.101 215.253 142.498C216.468 139.974 218.415 137.878 220.841 136.478C223.274 135.07 226.136 134.366 229.43 134.366C232.724 134.366 235.578 135.07 237.991 136.478C240.404 137.882 242.343 139.983 243.554 142.498C244.847 145.105 245.493 148.164 245.497 151.681C245.497 155.197 244.843 158.269 243.529 160.892C242.306 163.416 240.359 165.52 237.937 166.933C235.524 168.341 232.687 169.045 229.426 169.045C226.165 169.045 223.311 168.341 220.861 166.933ZM236.69 160.892C238.431 158.747 239.3 155.679 239.304 151.681C239.304 147.683 238.436 144.623 236.69 142.498C234.948 140.37 232.527 139.303 229.426 139.307C226.325 139.311 223.888 140.374 222.109 142.498C220.363 144.623 219.49 147.683 219.49 151.681C219.49 155.679 220.363 158.747 222.105 160.892C223.847 163.033 226.284 164.104 229.422 164.104C232.56 164.104 234.981 163.033 236.69 160.892Z" fill="#38485C"/>
<path d="M268.178 146.068C269.779 147.098 271.052 148.56 271.847 150.289C272.765 152.29 273.214 154.473 273.164 156.672C273.209 158.891 272.761 161.094 271.847 163.12C271.052 164.89 269.767 166.398 268.141 167.46C266.531 168.493 264.653 169.029 262.742 168.996C261.161 169.025 259.601 168.646 258.213 167.892C256.92 167.192 255.858 166.122 255.166 164.825V166.023C255.199 166.797 254.898 167.546 254.342 168.082C253.749 168.609 252.975 168.885 252.185 168.848C251.398 168.889 250.632 168.613 250.052 168.082C249.508 167.538 249.22 166.789 249.257 166.023V137.339C249.224 136.581 249.524 135.844 250.08 135.325C251.349 134.321 253.136 134.304 254.425 135.28C254.98 135.778 255.285 136.499 255.248 137.244V148.564C255.94 147.3 256.99 146.274 258.27 145.615C259.65 144.911 261.182 144.557 262.73 144.582C264.653 144.541 266.543 145.055 268.178 146.068ZM265.608 162.329C266.662 160.987 267.189 159.101 267.194 156.672C267.194 154.242 266.666 152.401 265.608 151.154C264.575 149.873 263.092 149.235 261.178 149.235C259.263 149.235 257.776 149.881 256.739 151.179C255.701 152.476 255.178 154.337 255.178 156.766C255.178 159.196 255.697 161.069 256.739 162.379C257.78 163.688 259.255 164.347 261.178 164.347C262.895 164.433 264.546 163.68 265.608 162.329Z" fill="#38485C"/>
<path d="M296.079 162.807C296.433 163.293 296.61 163.886 296.582 164.487C296.582 165.479 295.989 166.311 294.807 166.982C293.637 167.62 292.394 168.11 291.101 168.444C289.82 168.798 288.499 168.983 287.168 168.996C283.393 168.996 280.403 167.909 278.196 165.735C275.989 163.56 274.89 160.587 274.902 156.816C274.861 154.604 275.355 152.414 276.343 150.433C277.249 148.638 278.649 147.139 280.383 146.118C282.182 145.08 284.228 144.549 286.308 144.582C288.239 144.537 290.146 145.018 291.826 145.974C293.394 146.904 294.659 148.271 295.47 149.906C296.372 151.776 296.816 153.83 296.767 155.902C296.767 157.273 296.157 157.96 294.943 157.96H280.79C280.984 160.155 281.605 161.782 282.664 162.832C283.722 163.882 285.254 164.4 287.267 164.388C288.186 164.405 289.1 164.273 289.977 164.005C290.883 163.7 291.772 163.346 292.637 162.947C293.6 162.432 294.304 162.177 294.753 162.177C295.268 162.169 295.762 162.399 296.079 162.807ZM282.544 150.339C281.564 151.364 280.984 152.834 280.79 154.749H291.632C291.57 152.801 291.093 151.323 290.195 150.314C289.297 149.305 288.05 148.798 286.452 148.803C284.99 148.737 283.57 149.297 282.544 150.339Z" fill="#38485C"/>
<path d="M300.576 168.156C299.999 167.6 299.699 166.822 299.752 166.023V137.388C299.695 136.598 299.999 135.824 300.576 135.28C301.177 134.786 301.935 134.527 302.713 134.559C303.495 134.531 304.261 134.786 304.87 135.28C305.468 135.811 305.789 136.59 305.735 137.388V166.023C305.785 166.83 305.468 167.612 304.87 168.156C304.269 168.662 303.499 168.93 302.713 168.901C301.93 168.93 301.169 168.666 300.576 168.156Z" fill="#38485C"/>
<path d="M310.388 139.53C309.742 138.932 309.392 138.08 309.429 137.203C309.392 136.33 309.742 135.486 310.388 134.901C311.912 133.748 314.02 133.748 315.544 134.901C316.202 135.482 316.561 136.326 316.528 137.203C316.561 138.08 316.211 138.928 315.568 139.53C314.045 140.715 311.912 140.715 310.388 139.53ZM310.841 168.164C310.265 167.608 309.964 166.83 310.018 166.031V147.501C309.96 146.711 310.265 145.933 310.841 145.389C311.438 144.903 312.192 144.652 312.962 144.681C313.744 144.656 314.51 144.907 315.124 145.397C315.721 145.933 316.038 146.711 315.984 147.51V166.039C316.034 166.842 315.716 167.629 315.124 168.172C314.518 168.675 313.748 168.934 312.962 168.901C312.188 168.926 311.43 168.662 310.841 168.156V168.164Z" fill="#38485C"/>
<path d="M320.312 166.933C319.352 166.43 318.759 165.43 318.78 164.347C318.755 163.779 318.945 163.223 319.307 162.786C319.624 162.395 320.098 162.173 320.6 162.177C321.399 162.263 322.165 162.527 322.844 162.951C323.75 163.388 324.689 163.758 325.652 164.059C326.707 164.339 327.798 164.47 328.889 164.442C329.976 164.499 331.063 164.269 332.031 163.77C332.731 163.408 333.167 162.683 333.159 161.897C333.192 161.427 333.036 160.962 332.727 160.604C332.253 160.184 331.689 159.875 331.08 159.706C329.906 159.332 328.712 159.019 327.505 158.772C324.66 158.195 322.622 157.38 321.391 156.326C320.159 155.272 319.546 153.818 319.55 151.969C319.542 150.606 319.974 149.272 320.785 148.177C321.667 147.003 322.852 146.093 324.215 145.541C325.788 144.891 327.481 144.574 329.181 144.603C330.491 144.598 331.8 144.767 333.064 145.109C334.254 145.41 335.395 145.896 336.433 146.55C337.376 147.048 337.964 148.024 337.969 149.091C337.989 149.671 337.804 150.24 337.441 150.697C337.137 151.104 336.659 151.347 336.148 151.347C335.794 151.347 335.44 151.273 335.115 151.129C334.683 150.936 334.258 150.721 333.847 150.483C333.073 150.075 332.27 149.717 331.446 149.412C330.639 149.153 329.795 149.033 328.947 149.054C327.958 148.996 326.978 149.243 326.138 149.762C325.475 150.194 325.088 150.94 325.109 151.73C325.084 152.488 325.492 153.196 326.163 153.55C326.863 153.962 328.222 154.374 330.24 154.786C331.969 155.107 333.661 155.622 335.276 156.322C336.338 156.77 337.248 157.52 337.89 158.479C338.45 159.484 338.726 160.625 338.681 161.773C338.722 163.861 337.701 165.829 335.971 167.003C334.164 168.312 331.759 168.967 328.753 168.967C325.27 168.988 322.457 168.308 320.312 166.933Z" fill="#38485C"/>
<path d="M345.858 167.53C344.096 166.562 342.663 165.092 341.74 163.309C340.744 161.333 340.25 159.142 340.299 156.931C340.254 154.687 340.773 152.467 341.81 150.478C342.778 148.642 344.26 147.127 346.076 146.118C347.999 145.068 350.165 144.537 352.356 144.582C353.628 144.586 354.896 144.763 356.123 145.109C357.297 145.422 358.421 145.908 359.455 146.55C360.48 147.221 360.995 148.07 360.991 149.091C361.019 149.7 360.842 150.301 360.488 150.796C360.179 151.211 359.689 151.45 359.171 151.442C358.788 151.438 358.413 151.356 358.063 151.203C357.668 151.034 357.285 150.845 356.914 150.627C356.272 150.24 355.601 149.91 354.901 149.643C354.192 149.391 353.443 149.272 352.693 149.284C350.709 149.284 349.185 149.931 348.11 151.224C347.036 152.517 346.505 154.382 346.505 156.816C346.505 159.249 347.04 161.057 348.11 162.354C349.181 163.651 350.709 164.297 352.693 164.297C353.422 164.31 354.143 164.186 354.826 163.935C355.543 163.655 356.239 163.326 356.914 162.951C357.309 162.708 357.721 162.49 358.149 162.305C358.483 162.165 358.841 162.095 359.203 162.09C359.718 162.09 360.2 162.342 360.501 162.762C360.863 163.243 361.048 163.836 361.028 164.442C361.04 164.936 360.912 165.426 360.669 165.854C360.373 166.307 359.969 166.678 359.492 166.933C358.421 167.608 357.26 168.119 356.037 168.444C354.728 168.81 353.373 168.996 352.01 168.996C349.869 169.045 347.748 168.543 345.858 167.53Z" fill="#38485C"/>
<path d="M367.492 167.53C365.701 166.554 364.239 165.068 363.292 163.26C362.267 161.259 361.756 159.035 361.806 156.787C361.752 154.547 362.263 152.327 363.292 150.334C364.244 148.539 365.705 147.061 367.492 146.089C371.462 144.108 376.135 144.108 380.105 146.089C381.884 147.053 383.337 148.523 384.28 150.314C385.289 152.311 385.791 154.526 385.742 156.766C385.791 159.01 385.289 161.234 384.28 163.239C383.35 165.055 381.896 166.55 380.105 167.53C376.135 169.51 371.462 169.51 367.492 167.53ZM378.198 162.445C379.224 161.168 379.734 159.278 379.734 156.787C379.734 154.296 379.257 152.426 378.211 151.129C377.165 149.832 375.715 149.186 373.797 149.186C371.878 149.186 370.399 149.824 369.374 151.129C368.349 152.434 367.818 154.304 367.818 156.766C367.818 159.229 368.328 161.147 369.354 162.424C370.379 163.7 371.845 164.347 373.768 164.347C375.691 164.347 377.198 163.705 378.211 162.424L378.198 162.445Z" fill="#38485C"/>
</g>
</g>
<defs>
<clipPath id="clip0_33_6146">
<rect width="534" height="304" fill="white"/>
</clipPath>
<clipPath id="clip1_33_6146">
<rect width="237.492" height="48" fill="white" transform="translate(148.254 128)"/>
</clipPath>
</defs>
</svg>
