<svg width="1366" height="280" viewBox="0 0 1366 280" fill="none" xmlns="http://www.w3.org/2000/svg">
<g clip-path="url(#clip0_60_11643)">
<rect width="1366" height="280" fill="#F3F6F9"/>
<line x1="15" y1="359" x2="15" y2="0.999939" stroke="#E6EBF0" stroke-width="2" stroke-linecap="round" stroke-dasharray="4 4"/>
<line x1="63" y1="359" x2="63" y2="0.999939" stroke="#E6EBF0" stroke-width="2" stroke-linecap="round" stroke-dasharray="4 4"/>
<line x1="79.3" y1="359" x2="79.3" y2="0.999939" stroke="#E6EBF0" stroke-width="2" stroke-linecap="round" stroke-dasharray="4 4"/>
<line x1="127.3" y1="359" x2="127.3" y2="0.999939" stroke="#E6EBF0" stroke-width="2" stroke-linecap="round" stroke-dasharray="4 4"/>
<line x1="143.6" y1="359" x2="143.6" y2="0.999939" stroke="#E6EBF0" stroke-width="2" stroke-linecap="round" stroke-dasharray="4 4"/>
<line x1="191.6" y1="359" x2="191.6" y2="0.999939" stroke="#E6EBF0" stroke-width="2" stroke-linecap="round" stroke-dasharray="4 4"/>
<line x1="207.9" y1="359" x2="207.9" y2="0.999939" stroke="#E6EBF0" stroke-width="2" stroke-linecap="round" stroke-dasharray="4 4"/>
<line x1="255.9" y1="359" x2="255.9" y2="0.999939" stroke="#E6EBF0" stroke-width="2" stroke-linecap="round" stroke-dasharray="4 4"/>
<line x1="272.2" y1="359" x2="272.2" y2="0.999939" stroke="#E6EBF0" stroke-width="2" stroke-linecap="round" stroke-dasharray="4 4"/>
<line x1="320.2" y1="359" x2="320.2" y2="0.999939" stroke="#E6EBF0" stroke-width="2" stroke-linecap="round" stroke-dasharray="4 4"/>
<line x1="336.5" y1="359" x2="336.5" y2="0.999939" stroke="#E6EBF0" stroke-width="2" stroke-linecap="round" stroke-dasharray="4 4"/>
<line x1="384.5" y1="359" x2="384.5" y2="0.999939" stroke="#E6EBF0" stroke-width="2" stroke-linecap="round" stroke-dasharray="4 4"/>
<line x1="400.8" y1="359" x2="400.8" y2="0.999939" stroke="#E6EBF0" stroke-width="2" stroke-linecap="round" stroke-dasharray="4 4"/>
<line x1="448.8" y1="359" x2="448.8" y2="0.999939" stroke="#E6EBF0" stroke-width="2" stroke-linecap="round" stroke-dasharray="4 4"/>
<line x1="465.1" y1="359" x2="465.1" y2="0.999939" stroke="#E6EBF0" stroke-width="2" stroke-linecap="round" stroke-dasharray="4 4"/>
<line x1="513.1" y1="359" x2="513.1" y2="0.999939" stroke="#E6EBF0" stroke-width="2" stroke-linecap="round" stroke-dasharray="4 4"/>
<line x1="529.4" y1="359" x2="529.4" y2="0.999939" stroke="#E6EBF0" stroke-width="2" stroke-linecap="round" stroke-dasharray="4 4"/>
<line x1="577.4" y1="359" x2="577.4" y2="0.999939" stroke="#E6EBF0" stroke-width="2" stroke-linecap="round" stroke-dasharray="4 4"/>
<line x1="593.7" y1="359" x2="593.7" y2="0.999939" stroke="#E6EBF0" stroke-width="2" stroke-linecap="round" stroke-dasharray="4 4"/>
<line x1="641.7" y1="359" x2="641.7" y2="0.999939" stroke="#E6EBF0" stroke-width="2" stroke-linecap="round" stroke-dasharray="4 4"/>
<line x1="658" y1="359" x2="658" y2="0.999939" stroke="#E6EBF0" stroke-width="2" stroke-linecap="round" stroke-dasharray="4 4"/>
<line x1="706" y1="359" x2="706" y2="0.999939" stroke="#E6EBF0" stroke-width="2" stroke-linecap="round" stroke-dasharray="4 4"/>
<line x1="722.301" y1="359" x2="722.301" y2="0.999939" stroke="#E6EBF0" stroke-width="2" stroke-linecap="round" stroke-dasharray="4 4"/>
<line x1="770.301" y1="359" x2="770.301" y2="0.999939" stroke="#E6EBF0" stroke-width="2" stroke-linecap="round" stroke-dasharray="4 4"/>
<line x1="786.601" y1="359" x2="786.601" y2="0.999939" stroke="#E6EBF0" stroke-width="2" stroke-linecap="round" stroke-dasharray="4 4"/>
<line x1="834.601" y1="359" x2="834.601" y2="0.999939" stroke="#E6EBF0" stroke-width="2" stroke-linecap="round" stroke-dasharray="4 4"/>
<line x1="850.901" y1="359" x2="850.901" y2="0.999939" stroke="#E6EBF0" stroke-width="2" stroke-linecap="round" stroke-dasharray="4 4"/>
<line x1="898.901" y1="359" x2="898.901" y2="0.999939" stroke="#E6EBF0" stroke-width="2" stroke-linecap="round" stroke-dasharray="4 4"/>
<line x1="915.201" y1="359" x2="915.201" y2="0.999939" stroke="#E6EBF0" stroke-width="2" stroke-linecap="round" stroke-dasharray="4 4"/>
<line x1="963.201" y1="359" x2="963.201" y2="0.999939" stroke="#E6EBF0" stroke-width="2" stroke-linecap="round" stroke-dasharray="4 4"/>
<line x1="979.501" y1="359" x2="979.501" y2="0.999939" stroke="#E6EBF0" stroke-width="2" stroke-linecap="round" stroke-dasharray="4 4"/>
<line x1="1027.5" y1="359" x2="1027.5" y2="0.999939" stroke="#E6EBF0" stroke-width="2" stroke-linecap="round" stroke-dasharray="4 4"/>
<line x1="1043.8" y1="359" x2="1043.8" y2="0.999939" stroke="#E6EBF0" stroke-width="2" stroke-linecap="round" stroke-dasharray="4 4"/>
<line x1="1091.8" y1="359" x2="1091.8" y2="0.999939" stroke="#E6EBF0" stroke-width="2" stroke-linecap="round" stroke-dasharray="4 4"/>
<line x1="1108.1" y1="359" x2="1108.1" y2="0.999939" stroke="#E6EBF0" stroke-width="2" stroke-linecap="round" stroke-dasharray="4 4"/>
<line x1="1156.1" y1="359" x2="1156.1" y2="0.999939" stroke="#E6EBF0" stroke-width="2" stroke-linecap="round" stroke-dasharray="4 4"/>
<line x1="1172.4" y1="359" x2="1172.4" y2="0.999939" stroke="#E6EBF0" stroke-width="2" stroke-linecap="round" stroke-dasharray="4 4"/>
<line x1="1220.4" y1="359" x2="1220.4" y2="0.999939" stroke="#E6EBF0" stroke-width="2" stroke-linecap="round" stroke-dasharray="4 4"/>
<line x1="1236.7" y1="359" x2="1236.7" y2="0.999939" stroke="#E6EBF0" stroke-width="2" stroke-linecap="round" stroke-dasharray="4 4"/>
<line x1="1284.7" y1="359" x2="1284.7" y2="0.999939" stroke="#E6EBF0" stroke-width="2" stroke-linecap="round" stroke-dasharray="4 4"/>
<line x1="1301" y1="359" x2="1301" y2="0.999939" stroke="#E6EBF0" stroke-width="2" stroke-linecap="round" stroke-dasharray="4 4"/>
<line x1="1349" y1="359" x2="1349" y2="0.999939" stroke="#E6EBF0" stroke-width="2" stroke-linecap="round" stroke-dasharray="4 4"/>
<g filter="url(#filter0_d_60_11643)">
<rect x="208.6" y="184.328" width="48" height="48" rx="8" fill="white"/>
<rect x="208.1" y="183.828" width="49" height="49" rx="8.5" stroke="#E6EBF0"/>
</g>
<g clip-path="url(#clip1_60_11643)">
<path d="M232.6 202.158L235.06 204.618C235.45 205.008 236.08 205.008 236.47 204.618C236.86 204.228 236.86 203.598 236.47 203.208L233.3 200.028C232.91 199.638 232.28 199.638 231.89 200.028L228.72 203.208C228.33 203.598 228.33 204.228 228.72 204.618C229.11 205.008 229.74 205.008 230.13 204.618L232.6 202.158ZM232.6 214.498L230.14 212.038C229.75 211.648 229.12 211.648 228.73 212.038C228.34 212.428 228.34 213.058 228.73 213.448L231.9 216.628C232.29 217.018 232.92 217.018 233.31 216.628L236.48 213.458C236.87 213.068 236.87 212.438 236.48 212.048C236.09 211.658 235.46 211.658 235.07 212.048L232.6 214.498Z" fill="#38485C"/>
</g>
<g filter="url(#filter1_d_60_11643)">
<rect x="144.6" y="184.328" width="48" height="48" rx="8" fill="white"/>
<rect x="144.1" y="183.828" width="49" height="49" rx="8.5" stroke="#E6EBF0"/>
</g>
<path d="M166.6 215.327V210.327H170.6V215.327C170.6 215.877 171.05 216.327 171.6 216.327H174.6C175.15 216.327 175.6 215.877 175.6 215.327V208.327H177.3C177.58 208.327 177.8 208.097 177.79 207.817C177.79 207.677 177.73 207.547 177.63 207.457L169.27 199.927C168.89 199.587 168.31 199.587 167.93 199.927L159.57 207.457C159.37 207.647 159.35 207.957 159.54 208.167C159.63 208.267 159.77 208.327 159.9 208.327H161.6V215.327C161.6 215.877 162.05 216.327 162.6 216.327H165.6C166.15 216.327 166.6 215.877 166.6 215.327Z" fill="#38485C"/>
<g filter="url(#filter2_d_60_11643)">
<rect x="400.6" y="184.328" width="48" height="48" rx="8" fill="white"/>
<rect x="400.1" y="183.828" width="49" height="49" rx="8.5" stroke="#E6EBF0"/>
</g>
<path d="M428.6 214.328H420.6C419.009 214.326 417.484 213.693 416.359 212.568C415.234 211.443 414.602 209.918 414.6 208.328C414.602 206.737 415.234 205.212 416.359 204.087C417.484 202.962 419.009 202.329 420.6 202.328H428.6C430.191 202.329 431.716 202.962 432.841 204.087C433.966 205.212 434.598 206.737 434.6 208.328C434.598 209.918 433.966 211.443 432.841 212.568C431.716 213.693 430.191 214.326 428.6 214.328ZM420.6 204.328C419.539 204.328 418.522 204.749 417.771 205.499C417.021 206.249 416.6 207.267 416.6 208.328C416.6 209.388 417.021 210.406 417.771 211.156C418.522 211.906 419.539 212.328 420.6 212.328C421.66 212.326 422.677 211.904 423.427 211.154C424.176 210.404 424.598 209.388 424.6 208.328C424.6 207.267 424.179 206.249 423.429 205.499C422.678 204.749 421.661 204.328 420.6 204.328Z" fill="#38485C"/>
<g filter="url(#filter3_d_60_11643)">
<rect x="272.6" y="184.328" width="48" height="48" rx="8" fill="white"/>
<rect x="272.1" y="183.828" width="49" height="49" rx="8.5" stroke="#E6EBF0"/>
</g>
<path d="M298.69 214.436C298.779 214.629 298.823 214.822 298.823 215.015C298.823 215.356 298.682 215.645 298.4 215.882C298.133 216.12 297.822 216.239 297.466 216.239C297.228 216.239 297.006 216.179 296.798 216.06C296.591 215.927 296.427 215.727 296.309 215.46L294.973 212.478H287.14L285.805 215.46C285.686 215.727 285.523 215.927 285.316 216.06C285.108 216.179 284.878 216.239 284.626 216.239C284.285 216.239 283.973 216.12 283.691 215.882C283.409 215.645 283.268 215.356 283.268 215.015C283.268 214.822 283.313 214.629 283.402 214.436L289.544 201.24C289.677 200.943 289.877 200.721 290.145 200.572C290.426 200.409 290.723 200.328 291.035 200.328C291.346 200.328 291.635 200.409 291.903 200.572C292.184 200.721 292.392 200.943 292.526 201.24L298.69 214.436ZM293.994 210.252L291.057 203.643L288.119 210.252H293.994Z" fill="#38485C"/>
<path d="M305.459 205.001C306.972 205.001 308.092 205.379 308.819 206.136C309.561 206.877 309.932 208.012 309.932 209.54V214.97C309.932 215.371 309.813 215.69 309.576 215.927C309.338 216.149 309.012 216.261 308.597 216.261C308.211 216.261 307.892 216.142 307.64 215.905C307.402 215.667 307.284 215.356 307.284 214.97V214.481C307.031 215.059 306.631 215.512 306.082 215.838C305.548 216.164 304.925 216.328 304.213 216.328C303.486 216.328 302.826 216.179 302.232 215.882C301.639 215.586 301.171 215.178 300.83 214.659C300.489 214.139 300.318 213.561 300.318 212.923C300.318 212.122 300.519 211.491 300.919 211.031C301.335 210.571 302.002 210.238 302.922 210.03C303.842 209.822 305.11 209.718 306.727 209.718H307.284V209.207C307.284 208.48 307.128 207.953 306.816 207.627C306.505 207.285 306 207.115 305.303 207.115C304.873 207.115 304.435 207.181 303.99 207.315C303.545 207.434 303.018 207.612 302.41 207.849C302.024 208.042 301.743 208.138 301.565 208.138C301.298 208.138 301.075 208.042 300.897 207.849C300.734 207.656 300.652 207.404 300.652 207.092C300.652 206.84 300.712 206.625 300.83 206.447C300.964 206.254 301.179 206.076 301.476 205.913C301.995 205.631 302.61 205.409 303.323 205.245C304.049 205.082 304.762 205.001 305.459 205.001ZM304.769 214.325C305.511 214.325 306.112 214.08 306.572 213.59C307.046 213.086 307.284 212.441 307.284 211.654V211.187H306.883C305.889 211.187 305.118 211.232 304.569 211.321C304.02 211.41 303.627 211.565 303.389 211.788C303.152 212.01 303.033 212.315 303.033 212.7C303.033 213.175 303.196 213.568 303.523 213.88C303.864 214.176 304.279 214.325 304.769 214.325Z" fill="#38485C"/>
<g filter="url(#filter4_d_60_11643)">
<rect x="336.6" y="184" width="48" height="48" rx="8" fill="white"/>
<rect x="336.1" y="183.5" width="49" height="49" rx="8.5" stroke="#E6EBF0"/>
</g>
<path d="M360.6 203.75C358.39 203.75 356.6 205.54 356.6 207.75C356.6 209.96 358.39 211.75 360.6 211.75C362.81 211.75 364.6 209.96 364.6 207.75C364.6 205.54 362.81 203.75 360.6 203.75ZM369.54 206.75C369.07 202.57 365.78 199.28 361.6 198.81V197.75C361.6 197.2 361.15 196.75 360.6 196.75C360.05 196.75 359.6 197.2 359.6 197.75V198.81C355.42 199.28 352.13 202.57 351.66 206.75H350.6C350.05 206.75 349.6 207.2 349.6 207.75C349.6 208.3 350.05 208.75 350.6 208.75H351.66C352.13 212.93 355.42 216.22 359.6 216.69V217.75C359.6 218.3 360.05 218.75 360.6 218.75C361.15 218.75 361.6 218.3 361.6 217.75V216.69C365.78 216.22 369.07 212.93 369.54 208.75H370.6C371.15 208.75 371.6 208.3 371.6 207.75C371.6 207.2 371.15 206.75 370.6 206.75H369.54ZM360.6 214.75C356.73 214.75 353.6 211.62 353.6 207.75C353.6 203.88 356.73 200.75 360.6 200.75C364.47 200.75 367.6 203.88 367.6 207.75C367.6 211.61 364.47 214.75 360.61 214.75C360.61 214.75 360.61 214.75 360.6 214.75Z" fill="#38485C"/>
<g filter="url(#filter5_d_60_11643)">
<rect x="1302" y="48" width="48" height="88" rx="8" fill="#FFDB2E"/>
</g>
<g filter="url(#filter6_d_60_11643)">
<rect x="1302" y="152" width="48" height="88" rx="8" fill="#26874A"/>
</g>
<g filter="url(#filter7_d_60_11643)">
<rect x="1302" y="256" width="48" height="88" rx="8" fill="#007BC7"/>
</g>
<g filter="url(#filter8_d_60_11643)">
<rect x="1302" y="-56" width="48" height="88" rx="8" fill="#C93B3B"/>
</g>
<g filter="url(#filter9_d_60_11643)">
<rect x="1100.89" y="25" width="176" height="230" rx="8" fill="white"/>
<rect x="1100.39" y="24.5" width="177" height="231" rx="8.5" stroke="#E6EBF0"/>
</g>
<g filter="url(#filter10_d_60_11643)">
<rect x="1164.89" y="183" width="48" height="48" rx="8" fill="#007BC7"/>
</g>
<path d="M1188.89 194.333L1200.67 198.533L1198.89 214.133L1188.89 219.667L1178.89 214.133L1177.1 198.533L1188.89 194.333ZM1188.89 197.133L1181.51 213.667H1184.26L1185.74 209.96H1192.01L1193.49 213.667H1196.22L1188.89 197.133ZM1191.05 207.667H1186.74L1188.89 202.507L1191.05 207.667Z" fill="white"/>
<g filter="url(#filter11_d_60_11643)">
<rect x="1164.89" y="113" width="48" height="48" rx="8" fill="#38485C"/>
</g>
<path fill-rule="evenodd" clip-rule="evenodd" d="M1188.86 123.667C1181.51 123.667 1175.55 129.613 1175.55 136.96C1175.55 142.693 1179.22 147.773 1184.65 149.587C1185.31 149.707 1185.55 149.293 1185.55 148.947C1185.55 148.627 1185.55 147.8 1185.54 146.68C1181.83 147.48 1181.06 144.893 1181.06 144.893C1180.82 144.093 1180.29 143.4 1179.58 142.947C1178.37 142.12 1179.67 142.147 1179.67 142.147C1180.53 142.267 1181.27 142.773 1181.71 143.52C1182.47 144.893 1184.19 145.387 1185.55 144.64C1185.55 144.64 1185.57 144.64 1185.58 144.64C1185.65 143.96 1185.94 143.333 1186.43 142.867C1183.49 142.533 1180.38 141.387 1180.38 136.293C1180.37 134.973 1180.85 133.693 1181.75 132.72C1181.35 131.573 1181.39 130.32 1181.89 129.2C1181.89 129.2 1183.01 128.84 1185.54 130.56C1187.71 129.96 1190.02 129.96 1192.19 130.56C1194.74 128.84 1195.85 129.2 1195.85 129.2C1196.34 130.307 1196.39 131.573 1195.98 132.72C1196.87 133.693 1197.37 134.96 1197.34 136.293C1197.34 141.4 1194.23 142.533 1191.27 142.853C1191.91 143.507 1192.25 144.4 1192.18 145.32C1192.18 147.093 1192.17 148.533 1192.17 148.973C1192.17 149.333 1192.41 149.747 1193.09 149.613C1200.06 147.293 1203.82 139.76 1201.49 132.787C1199.67 127.333 1194.59 123.667 1188.86 123.667Z" fill="white"/>
<g filter="url(#filter12_d_60_11643)">
<rect x="1124.89" y="148" width="48" height="48" rx="8" fill="white"/>
</g>
<path d="M1159.89 161H1137.89C1137.36 161 1136.85 161.211 1136.47 161.586C1136.1 161.961 1135.89 162.47 1135.89 163V181C1135.89 181.53 1136.1 182.039 1136.47 182.414C1136.85 182.789 1137.36 183 1137.89 183H1159.89C1160.42 183 1160.93 182.789 1161.3 182.414C1161.68 182.039 1161.89 181.53 1161.89 181V163C1161.89 162.47 1161.68 161.961 1161.3 161.586C1160.93 161.211 1160.42 161 1159.89 161ZM1144.49 174.2C1144.7 174.359 1144.84 174.596 1144.88 174.859C1144.92 175.121 1144.85 175.388 1144.69 175.6C1144.53 175.812 1144.29 175.952 1144.03 175.99C1143.77 176.027 1143.5 175.959 1143.29 175.8L1139.29 172.8C1139.16 172.707 1139.06 172.586 1138.99 172.447C1138.92 172.308 1138.89 172.155 1138.89 172C1138.89 171.845 1138.92 171.692 1138.99 171.553C1139.06 171.414 1139.16 171.293 1139.29 171.2L1143.29 168.2C1143.5 168.041 1143.77 167.973 1144.03 168.01C1144.29 168.048 1144.53 168.188 1144.69 168.4C1144.85 168.612 1144.92 168.879 1144.88 169.141C1144.84 169.404 1144.7 169.641 1144.49 169.8L1141.55 172L1144.49 174.2ZM1151.85 165.275L1147.85 179.275C1147.81 179.404 1147.76 179.524 1147.67 179.629C1147.59 179.734 1147.49 179.823 1147.38 179.888C1147.26 179.954 1147.13 179.996 1147 180.012C1146.87 180.027 1146.74 180.017 1146.61 179.98C1146.48 179.943 1146.36 179.882 1146.26 179.799C1146.15 179.715 1146.07 179.612 1146 179.495C1145.94 179.379 1145.9 179.25 1145.89 179.118C1145.87 178.986 1145.89 178.852 1145.93 178.725L1149.93 164.725C1150 164.475 1150.18 164.264 1150.41 164.14C1150.64 164.015 1150.91 163.985 1151.16 164.057C1151.41 164.129 1151.62 164.297 1151.75 164.525C1151.88 164.753 1151.92 165.022 1151.85 165.275ZM1158.49 172.8L1154.49 175.8C1154.28 175.959 1154.01 176.027 1153.75 175.99C1153.48 175.952 1153.25 175.812 1153.09 175.6C1152.93 175.388 1152.86 175.121 1152.9 174.859C1152.94 174.596 1153.08 174.359 1153.29 174.2L1156.22 172L1153.29 169.8C1153.18 169.721 1153.09 169.622 1153.03 169.509C1152.96 169.396 1152.92 169.271 1152.9 169.141C1152.88 169.011 1152.89 168.879 1152.92 168.752C1152.95 168.625 1153.01 168.505 1153.09 168.4C1153.17 168.295 1153.27 168.206 1153.38 168.14C1153.49 168.073 1153.62 168.029 1153.75 168.01C1153.88 167.991 1154.01 167.999 1154.14 168.031C1154.26 168.064 1154.38 168.121 1154.49 168.2L1158.49 171.2C1158.61 171.293 1158.71 171.414 1158.78 171.553C1158.85 171.692 1158.89 171.845 1158.89 172C1158.89 172.155 1158.85 172.308 1158.78 172.447C1158.71 172.586 1158.61 172.707 1158.49 172.8Z" fill="#007BC7"/>
<g filter="url(#filter13_d_60_11643)">
<path d="M1191.37 172.656C1191.46 172.746 1191.49 172.848 1191.43 172.964C1191.38 173.083 1191.3 173.143 1191.17 173.143H1189.47L1190.36 175.268C1190.39 175.342 1190.39 175.415 1190.36 175.487C1190.33 175.558 1190.28 175.61 1190.21 175.643L1189.42 175.978C1189.35 176.007 1189.27 176.007 1189.2 175.978C1189.13 175.948 1189.08 175.897 1189.05 175.826L1188.19 173.808L1186.8 175.201C1186.74 175.257 1186.68 175.286 1186.6 175.286C1186.56 175.286 1186.53 175.278 1186.49 175.263C1186.37 175.213 1186.31 175.125 1186.31 175V168.286C1186.31 168.161 1186.37 168.073 1186.49 168.022C1186.53 168.007 1186.56 168 1186.6 168C1186.68 168 1186.75 168.028 1186.8 168.085L1191.37 172.656Z" fill="#38485C"/>
</g>
<g filter="url(#filter14_d_60_11643)">
<rect x="1204.89" y="148" width="48" height="48" rx="8" fill="white"/>
<rect x="1204.39" y="147.5" width="49" height="49" rx="8.5" stroke="#E6EBF0"/>
</g>
<g clip-path="url(#clip2_60_11643)">
<path d="M1224.89 184C1227.1 184 1228.89 182.208 1228.89 180V176H1224.89C1222.68 176 1220.89 177.792 1220.89 180C1220.89 182.208 1222.68 184 1224.89 184Z" fill="#0ACF83"/>
<path d="M1220.89 172C1220.89 169.792 1222.68 168 1224.89 168H1228.89V176H1224.89C1222.68 176 1220.89 174.208 1220.89 172Z" fill="#A259FF"/>
<path d="M1220.89 164C1220.89 161.792 1222.68 160 1224.89 160H1228.89V168H1224.89C1222.68 168 1220.89 166.208 1220.89 164Z" fill="#F24E1E"/>
<path d="M1228.89 160H1232.89C1235.1 160 1236.89 161.792 1236.89 164C1236.89 166.208 1235.1 168 1232.89 168H1228.89V160Z" fill="#FF7262"/>
<path d="M1236.89 172C1236.89 174.208 1235.1 176 1232.89 176C1230.68 176 1228.89 174.208 1228.89 172C1228.89 169.792 1230.68 168 1232.89 168C1235.1 168 1236.89 169.792 1236.89 172Z" fill="#1ABCFE"/>
</g>
<g filter="url(#filter15_d_60_11643)">
<rect x="1164.89" y="49" width="48" height="48" rx="8" fill="white"/>
</g>
<path d="M1204.1 77.6721L1198.15 66.6501C1197.63 65.6721 1196.58 65 1195.36 65C1194.14 65 1193.09 65.6721 1192.58 66.6501L1188.39 74.409C1187.92 73.6118 1187.17 72.9861 1186.28 72.6477C1187.28 71.9525 1187.93 70.8169 1187.93 69.533C1187.93 68.0498 1187.05 66.7613 1185.77 66.1263C1184.64 65.5562 1183.34 65.2317 1181.97 65.2317H1175.7C1174.41 65.2317 1173.37 66.2329 1173.37 67.4658V78.6408C1173.37 79.8737 1174.41 80.8749 1175.7 80.8749H1182.48C1183.79 80.8749 1185.03 80.6153 1186.16 80.1518L1186.59 79.9525C1186.61 79.9432 1186.64 79.9293 1186.66 79.92C1187.07 80.5689 1187.81 81 1188.65 81C1189.6 81 1190.41 80.4623 1190.78 79.6883C1190.96 79.2804 1191.37 78.9884 1191.85 78.9699H1198.87C1199.36 78.993 1199.77 79.2804 1199.95 79.6883C1200.32 80.4623 1201.13 81 1202.08 81C1203.36 81 1204.4 79.9988 1204.4 78.7706C1204.4 78.372 1204.3 77.9965 1204.1 77.6721" fill="#FFDB2E"/>
</g>
<defs>
<filter id="filter0_d_60_11643" x="199.6" y="175.328" width="66" height="66" filterUnits="userSpaceOnUse" color-interpolation-filters="sRGB">
<feFlood flood-opacity="0" result="BackgroundImageFix"/>
<feColorMatrix in="SourceAlpha" type="matrix" values="0 0 0 0 0 0 0 0 0 0 0 0 0 0 0 0 0 0 127 0" result="hardAlpha"/>
<feOffset/>
<feGaussianBlur stdDeviation="4"/>
<feComposite in2="hardAlpha" operator="out"/>
<feColorMatrix type="matrix" values="0 0 0 0 0 0 0 0 0 0 0 0 0 0 0 0 0 0 0.08 0"/>
<feBlend mode="normal" in2="BackgroundImageFix" result="effect1_dropShadow_60_11643"/>
<feBlend mode="normal" in="SourceGraphic" in2="effect1_dropShadow_60_11643" result="shape"/>
</filter>
<filter id="filter1_d_60_11643" x="135.6" y="175.328" width="66" height="66" filterUnits="userSpaceOnUse" color-interpolation-filters="sRGB">
<feFlood flood-opacity="0" result="BackgroundImageFix"/>
<feColorMatrix in="SourceAlpha" type="matrix" values="0 0 0 0 0 0 0 0 0 0 0 0 0 0 0 0 0 0 127 0" result="hardAlpha"/>
<feOffset/>
<feGaussianBlur stdDeviation="4"/>
<feComposite in2="hardAlpha" operator="out"/>
<feColorMatrix type="matrix" values="0 0 0 0 0 0 0 0 0 0 0 0 0 0 0 0 0 0 0.08 0"/>
<feBlend mode="normal" in2="BackgroundImageFix" result="effect1_dropShadow_60_11643"/>
<feBlend mode="normal" in="SourceGraphic" in2="effect1_dropShadow_60_11643" result="shape"/>
</filter>
<filter id="filter2_d_60_11643" x="391.6" y="175.328" width="66" height="66" filterUnits="userSpaceOnUse" color-interpolation-filters="sRGB">
<feFlood flood-opacity="0" result="BackgroundImageFix"/>
<feColorMatrix in="SourceAlpha" type="matrix" values="0 0 0 0 0 0 0 0 0 0 0 0 0 0 0 0 0 0 127 0" result="hardAlpha"/>
<feOffset/>
<feGaussianBlur stdDeviation="4"/>
<feComposite in2="hardAlpha" operator="out"/>
<feColorMatrix type="matrix" values="0 0 0 0 0 0 0 0 0 0 0 0 0 0 0 0 0 0 0.08 0"/>
<feBlend mode="normal" in2="BackgroundImageFix" result="effect1_dropShadow_60_11643"/>
<feBlend mode="normal" in="SourceGraphic" in2="effect1_dropShadow_60_11643" result="shape"/>
</filter>
<filter id="filter3_d_60_11643" x="263.6" y="175.328" width="66" height="66" filterUnits="userSpaceOnUse" color-interpolation-filters="sRGB">
<feFlood flood-opacity="0" result="BackgroundImageFix"/>
<feColorMatrix in="SourceAlpha" type="matrix" values="0 0 0 0 0 0 0 0 0 0 0 0 0 0 0 0 0 0 127 0" result="hardAlpha"/>
<feOffset/>
<feGaussianBlur stdDeviation="4"/>
<feComposite in2="hardAlpha" operator="out"/>
<feColorMatrix type="matrix" values="0 0 0 0 0 0 0 0 0 0 0 0 0 0 0 0 0 0 0.08 0"/>
<feBlend mode="normal" in2="BackgroundImageFix" result="effect1_dropShadow_60_11643"/>
<feBlend mode="normal" in="SourceGraphic" in2="effect1_dropShadow_60_11643" result="shape"/>
</filter>
<filter id="filter4_d_60_11643" x="327.6" y="175" width="66" height="66" filterUnits="userSpaceOnUse" color-interpolation-filters="sRGB">
<feFlood flood-opacity="0" result="BackgroundImageFix"/>
<feColorMatrix in="SourceAlpha" type="matrix" values="0 0 0 0 0 0 0 0 0 0 0 0 0 0 0 0 0 0 127 0" result="hardAlpha"/>
<feOffset/>
<feGaussianBlur stdDeviation="4"/>
<feComposite in2="hardAlpha" operator="out"/>
<feColorMatrix type="matrix" values="0 0 0 0 0 0 0 0 0 0 0 0 0 0 0 0 0 0 0.08 0"/>
<feBlend mode="normal" in2="BackgroundImageFix" result="effect1_dropShadow_60_11643"/>
<feBlend mode="normal" in="SourceGraphic" in2="effect1_dropShadow_60_11643" result="shape"/>
</filter>
<filter id="filter5_d_60_11643" x="1294" y="40" width="64" height="104" filterUnits="userSpaceOnUse" color-interpolation-filters="sRGB">
<feFlood flood-opacity="0" result="BackgroundImageFix"/>
<feColorMatrix in="SourceAlpha" type="matrix" values="0 0 0 0 0 0 0 0 0 0 0 0 0 0 0 0 0 0 127 0" result="hardAlpha"/>
<feOffset/>
<feGaussianBlur stdDeviation="4"/>
<feComposite in2="hardAlpha" operator="out"/>
<feColorMatrix type="matrix" values="0 0 0 0 0 0 0 0 0 0 0 0 0 0 0 0 0 0 0.08 0"/>
<feBlend mode="normal" in2="BackgroundImageFix" result="effect1_dropShadow_60_11643"/>
<feBlend mode="normal" in="SourceGraphic" in2="effect1_dropShadow_60_11643" result="shape"/>
</filter>
<filter id="filter6_d_60_11643" x="1294" y="144" width="64" height="104" filterUnits="userSpaceOnUse" color-interpolation-filters="sRGB">
<feFlood flood-opacity="0" result="BackgroundImageFix"/>
<feColorMatrix in="SourceAlpha" type="matrix" values="0 0 0 0 0 0 0 0 0 0 0 0 0 0 0 0 0 0 127 0" result="hardAlpha"/>
<feOffset/>
<feGaussianBlur stdDeviation="4"/>
<feComposite in2="hardAlpha" operator="out"/>
<feColorMatrix type="matrix" values="0 0 0 0 0 0 0 0 0 0 0 0 0 0 0 0 0 0 0.08 0"/>
<feBlend mode="normal" in2="BackgroundImageFix" result="effect1_dropShadow_60_11643"/>
<feBlend mode="normal" in="SourceGraphic" in2="effect1_dropShadow_60_11643" result="shape"/>
</filter>
<filter id="filter7_d_60_11643" x="1294" y="248" width="64" height="104" filterUnits="userSpaceOnUse" color-interpolation-filters="sRGB">
<feFlood flood-opacity="0" result="BackgroundImageFix"/>
<feColorMatrix in="SourceAlpha" type="matrix" values="0 0 0 0 0 0 0 0 0 0 0 0 0 0 0 0 0 0 127 0" result="hardAlpha"/>
<feOffset/>
<feGaussianBlur stdDeviation="4"/>
<feComposite in2="hardAlpha" operator="out"/>
<feColorMatrix type="matrix" values="0 0 0 0 0 0 0 0 0 0 0 0 0 0 0 0 0 0 0.08 0"/>
<feBlend mode="normal" in2="BackgroundImageFix" result="effect1_dropShadow_60_11643"/>
<feBlend mode="normal" in="SourceGraphic" in2="effect1_dropShadow_60_11643" result="shape"/>
</filter>
<filter id="filter8_d_60_11643" x="1294" y="-64" width="64" height="104" filterUnits="userSpaceOnUse" color-interpolation-filters="sRGB">
<feFlood flood-opacity="0" result="BackgroundImageFix"/>
<feColorMatrix in="SourceAlpha" type="matrix" values="0 0 0 0 0 0 0 0 0 0 0 0 0 0 0 0 0 0 127 0" result="hardAlpha"/>
<feOffset/>
<feGaussianBlur stdDeviation="4"/>
<feComposite in2="hardAlpha" operator="out"/>
<feColorMatrix type="matrix" values="0 0 0 0 0 0 0 0 0 0 0 0 0 0 0 0 0 0 0.08 0"/>
<feBlend mode="normal" in2="BackgroundImageFix" result="effect1_dropShadow_60_11643"/>
<feBlend mode="normal" in="SourceGraphic" in2="effect1_dropShadow_60_11643" result="shape"/>
</filter>
<filter id="filter9_d_60_11643" x="1091.89" y="16" width="194" height="248" filterUnits="userSpaceOnUse" color-interpolation-filters="sRGB">
<feFlood flood-opacity="0" result="BackgroundImageFix"/>
<feColorMatrix in="SourceAlpha" type="matrix" values="0 0 0 0 0 0 0 0 0 0 0 0 0 0 0 0 0 0 127 0" result="hardAlpha"/>
<feOffset/>
<feGaussianBlur stdDeviation="4"/>
<feComposite in2="hardAlpha" operator="out"/>
<feColorMatrix type="matrix" values="0 0 0 0 0 0 0 0 0 0 0 0 0 0 0 0 0 0 0.08 0"/>
<feBlend mode="normal" in2="BackgroundImageFix" result="effect1_dropShadow_60_11643"/>
<feBlend mode="normal" in="SourceGraphic" in2="effect1_dropShadow_60_11643" result="shape"/>
</filter>
<filter id="filter10_d_60_11643" x="1156.89" y="175" width="64" height="64" filterUnits="userSpaceOnUse" color-interpolation-filters="sRGB">
<feFlood flood-opacity="0" result="BackgroundImageFix"/>
<feColorMatrix in="SourceAlpha" type="matrix" values="0 0 0 0 0 0 0 0 0 0 0 0 0 0 0 0 0 0 127 0" result="hardAlpha"/>
<feOffset/>
<feGaussianBlur stdDeviation="4"/>
<feComposite in2="hardAlpha" operator="out"/>
<feColorMatrix type="matrix" values="0 0 0 0 0 0 0 0 0 0 0 0 0 0 0 0 0 0 0.08 0"/>
<feBlend mode="normal" in2="BackgroundImageFix" result="effect1_dropShadow_60_11643"/>
<feBlend mode="normal" in="SourceGraphic" in2="effect1_dropShadow_60_11643" result="shape"/>
</filter>
<filter id="filter11_d_60_11643" x="1156.89" y="105" width="64" height="64" filterUnits="userSpaceOnUse" color-interpolation-filters="sRGB">
<feFlood flood-opacity="0" result="BackgroundImageFix"/>
<feColorMatrix in="SourceAlpha" type="matrix" values="0 0 0 0 0 0 0 0 0 0 0 0 0 0 0 0 0 0 127 0" result="hardAlpha"/>
<feOffset/>
<feGaussianBlur stdDeviation="4"/>
<feComposite in2="hardAlpha" operator="out"/>
<feColorMatrix type="matrix" values="0 0 0 0 0 0 0 0 0 0 0 0 0 0 0 0 0 0 0.08 0"/>
<feBlend mode="normal" in2="BackgroundImageFix" result="effect1_dropShadow_60_11643"/>
<feBlend mode="normal" in="SourceGraphic" in2="effect1_dropShadow_60_11643" result="shape"/>
</filter>
<filter id="filter12_d_60_11643" x="1116.89" y="140" width="64" height="64" filterUnits="userSpaceOnUse" color-interpolation-filters="sRGB">
<feFlood flood-opacity="0" result="BackgroundImageFix"/>
<feColorMatrix in="SourceAlpha" type="matrix" values="0 0 0 0 0 0 0 0 0 0 0 0 0 0 0 0 0 0 127 0" result="hardAlpha"/>
<feOffset/>
<feGaussianBlur stdDeviation="4"/>
<feComposite in2="hardAlpha" operator="out"/>
<feColorMatrix type="matrix" values="0 0 0 0 0 0 0 0 0 0 0 0 0 0 0 0 0 0 0.08 0"/>
<feBlend mode="normal" in2="BackgroundImageFix" result="effect1_dropShadow_60_11643"/>
<feBlend mode="normal" in="SourceGraphic" in2="effect1_dropShadow_60_11643" result="shape"/>
</filter>
<filter id="filter13_d_60_11643" x="1182.31" y="168" width="13.1475" height="16" filterUnits="userSpaceOnUse" color-interpolation-filters="sRGB">
<feFlood flood-opacity="0" result="BackgroundImageFix"/>
<feColorMatrix in="SourceAlpha" type="matrix" values="0 0 0 0 0 0 0 0 0 0 0 0 0 0 0 0 0 0 127 0" result="hardAlpha"/>
<feOffset dy="4"/>
<feGaussianBlur stdDeviation="2"/>
<feComposite in2="hardAlpha" operator="out"/>
<feColorMatrix type="matrix" values="0 0 0 0 0 0 0 0 0 0 0 0 0 0 0 0 0 0 0.08 0"/>
<feBlend mode="normal" in2="BackgroundImageFix" result="effect1_dropShadow_60_11643"/>
<feBlend mode="normal" in="SourceGraphic" in2="effect1_dropShadow_60_11643" result="shape"/>
</filter>
<filter id="filter14_d_60_11643" x="1195.89" y="139" width="66" height="66" filterUnits="userSpaceOnUse" color-interpolation-filters="sRGB">
<feFlood flood-opacity="0" result="BackgroundImageFix"/>
<feColorMatrix in="SourceAlpha" type="matrix" values="0 0 0 0 0 0 0 0 0 0 0 0 0 0 0 0 0 0 127 0" result="hardAlpha"/>
<feOffset/>
<feGaussianBlur stdDeviation="4"/>
<feComposite in2="hardAlpha" operator="out"/>
<feColorMatrix type="matrix" values="0 0 0 0 0.219608 0 0 0 0 0.282353 0 0 0 0 0.360784 0 0 0 0.16 0"/>
<feBlend mode="normal" in2="BackgroundImageFix" result="effect1_dropShadow_60_11643"/>
<feBlend mode="normal" in="SourceGraphic" in2="effect1_dropShadow_60_11643" result="shape"/>
</filter>
<filter id="filter15_d_60_11643" x="1156.89" y="41" width="64" height="64" filterUnits="userSpaceOnUse" color-interpolation-filters="sRGB">
<feFlood flood-opacity="0" result="BackgroundImageFix"/>
<feColorMatrix in="SourceAlpha" type="matrix" values="0 0 0 0 0 0 0 0 0 0 0 0 0 0 0 0 0 0 127 0" result="hardAlpha"/>
<feOffset/>
<feGaussianBlur stdDeviation="4"/>
<feComposite in2="hardAlpha" operator="out"/>
<feColorMatrix type="matrix" values="0 0 0 0 0 0 0 0 0 0 0 0 0 0 0 0 0 0 0.08 0"/>
<feBlend mode="normal" in2="BackgroundImageFix" result="effect1_dropShadow_60_11643"/>
<feBlend mode="normal" in="SourceGraphic" in2="effect1_dropShadow_60_11643" result="shape"/>
</filter>
<clipPath id="clip0_60_11643">
<rect width="1366" height="280" fill="white"/>
</clipPath>
<clipPath id="clip1_60_11643">
<rect width="24" height="24" fill="white" transform="translate(220.6 196.328)"/>
</clipPath>
<clipPath id="clip2_60_11643">
<rect width="16" height="24" fill="white" transform="translate(1220.89 160)"/>
</clipPath>
</defs>
</svg>
