<svg width="360" height="676" viewBox="0 0 360 676" fill="none" xmlns="http://www.w3.org/2000/svg">
<g clip-path="url(#clip0_2394_24192)">
<rect width="360" height="676" fill="#101E37"/>
<rect width="360" height="640" fill="url(#paint0_linear_2394_24192)"/>
<path d="M364.723 585.565H124.761V684.798H364.723V585.565Z" fill="#101E37"/>
<path d="M125.304 677.618H124.203V671.906H125.304V677.618ZM125.304 667.721H124.203V662.068H125.304V667.721ZM125.304 657.824H124.203V652.156H125.304V657.824ZM125.304 647.913H124.203V642.26H125.304V647.913ZM125.304 638.016H124.203V632.348H125.304V638.016ZM125.304 628.104H124.203V622.451H125.304V628.104ZM125.304 618.208H124.203V612.554H125.304V618.208ZM125.304 608.311H124.203V602.643H125.304V608.311ZM125.304 598.399H124.203V592.746H125.304V598.399Z" fill="#FF9500"/>
<path d="M125.304 588.502H124.203V585.008H127.698V586.109H125.304V588.502Z" fill="#FF9500"/>
<path d="M357.308 586.109H351.332V585.008H357.308V586.109ZM346.868 586.109H340.906V585.008H346.868V586.109ZM336.428 586.109H330.466V585.008H336.428V586.109ZM325.987 586.109H320.026V585.008H325.987V586.109ZM315.547 586.109H309.586V585.008H315.547V586.109ZM305.122 586.109H299.16V585.008H305.122V586.109ZM294.682 586.109H288.779V585.008H294.652L294.682 586.109ZM284.242 586.109H278.28V585.008H284.242V586.109ZM273.801 586.109H267.84V585.008H273.801V586.109ZM263.376 586.109H257.4V585.008H263.376V586.109ZM252.936 586.109H246.974V585.008H252.936V586.109ZM242.496 586.109H236.534V585.008H242.496V586.109ZM232.055 586.109H226.094V585.008H232.055V586.109ZM221.615 586.109H215.654V585.008H221.615V586.109ZM211.19 586.109H205.228V585.008H211.19V586.109ZM200.75 586.109H194.803V585.008H200.764L200.75 586.109ZM190.309 586.109H184.348V585.008H190.309V586.109ZM179.869 586.109H173.908V585.008H179.869V586.109ZM169.444 586.109H163.467V585.008H169.444V586.109ZM159.004 586.109H153.042V585.008H159.004V586.109ZM148.563 586.109H142.602V585.008H148.563V586.109ZM138.123 586.109H132.162V585.008H138.123V586.109Z" fill="#FF9500"/>
<path d="M137.873 670.026H207.577V600.323H137.873V670.026Z" fill="#5C88D6"/>
<path opacity="0.1" d="M147.815 616.504C147.551 617.836 147.722 619.217 148.303 620.443C148.884 621.67 149.844 622.677 151.042 623.317C152.239 623.956 153.61 624.194 154.953 623.994C156.295 623.795 157.538 623.169 158.498 622.209C159.458 621.25 160.084 620.007 160.283 618.664C160.482 617.321 160.245 615.95 159.606 614.753C158.966 613.556 157.959 612.596 156.732 612.015C155.505 611.434 154.124 611.263 152.793 611.526C151.564 611.772 150.436 612.376 149.55 613.261C148.664 614.147 148.06 615.276 147.815 616.504Z" fill="black"/>
<g opacity="0.2">
<path d="M160.869 650.716H207.578L184.216 621.921L160.869 650.716Z" fill="black"/>
</g>
<path d="M137.874 650.732H179.296L158.578 631.996L137.874 650.732Z" fill="#FFFAE5"/>
<g opacity="0.1">
<path d="M137.875 650.733H179.298L158.579 631.996L137.875 650.733Z" fill="black"/>
</g>
<path d="M207.577 650.732H137.874V670.026H207.577V650.732Z" fill="#FFFAE5"/>
<g opacity="0.1">
<path d="M207.579 650.732H137.875V670.026H207.579V650.732Z" fill="black"/>
</g>
<path d="M350.275 600.572H216.902V603.01H350.275V600.572Z" fill="#EBEBEB"/>
<path d="M350.275 613.875H216.902V616.313H350.275V613.875Z" fill="#EBEBEB"/>
<path d="M350.275 620.953H216.902V623.391H350.275V620.953Z" fill="#EBEBEB"/>
<path d="M350.275 628.03H216.902V630.468H350.275V628.03Z" fill="#EBEBEB"/>
<path d="M350.275 642.186H216.902V644.623H350.275V642.186Z" fill="#EBEBEB"/>
<path d="M350.275 649.264H216.902V651.702H350.275V649.264Z" fill="#EBEBEB"/>
<path d="M350.275 656.341H216.902V658.779H350.275V656.341Z" fill="#EBEBEB"/>
<path d="M291.276 663.433H216.902V665.871H291.276V663.433Z" fill="#EBEBEB"/>
<path fill-rule="evenodd" clip-rule="evenodd" d="M80.4315 577.45L79.9862 583.124C77.0994 583.685 74.3355 584.804 71.8544 586.434L67.3326 582.563L61.8365 588.069L65.6323 592.51C64.717 593.833 63.94 595.257 63.3187 596.76C62.8174 597.972 62.424 599.22 62.1398 600.488L56.1807 600.958V608.74L61.894 609.19C61.9339 609.431 61.9777 609.672 62.0254 609.912C62.561 612.61 63.5771 615.173 65.0112 617.485L61.2777 621.86L66.7738 627.366L70.8914 623.84C73.3742 625.661 76.2087 626.963 79.2264 627.658L79.6411 633.03H87.4186L87.8096 627.965C89.5864 627.688 91.3333 627.199 93.0121 626.503C94.2801 625.977 95.4919 625.339 96.6346 624.601L100.509 627.924L106.013 622.418L102.824 618.681C102.956 618.495 103.085 618.308 103.211 618.119C104.875 615.624 106.022 612.837 106.603 609.923L111.659 609.531V601.741L106.668 601.354C106.38 599.782 105.927 598.242 105.314 596.758C104.72 595.321 103.982 593.953 103.113 592.672L106.563 588.628L101.067 583.115L97.0154 586.589C95.7595 585.742 94.4191 585.021 93.0133 584.438C91.6019 583.852 90.1387 583.412 88.6462 583.123L88.201 577.45H80.4315ZM84.3151 616.098C82.2148 616.098 80.1617 615.474 78.4156 614.306C76.6694 613.137 75.3085 611.475 74.5052 609.531C73.7018 607.588 73.492 605.449 73.9023 603.386C74.3127 601.322 75.3247 599.427 76.8103 597.94C78.296 596.453 80.1885 595.441 82.2486 595.032C84.3087 594.622 86.4438 594.834 88.3837 595.64C90.3236 596.446 91.9812 597.811 93.1469 599.561C94.3126 601.311 94.934 603.368 94.9324 605.471C94.9324 606.868 94.6577 608.25 94.124 609.54C93.5904 610.83 92.8082 612.002 91.8222 612.989C90.8361 613.976 89.6656 614.758 88.3775 615.292C87.0894 615.825 85.709 616.099 84.3151 616.098Z" fill="#8DE2D6"/>
<path d="M84.6175 607.222H-13.3789V669.739H84.6175V607.222Z" fill="#1C345F"/>
<path d="M85.2389 670.362H-14V606.602H85.2389V670.362ZM-12.7575 669.119H84.0457V607.844H-12.7575V669.119Z" fill="#FFAA33"/>
<path d="M84.6175 607.222H-13.3789V619.045H84.6175V607.222Z" fill="#8DE2D6"/>
<path d="M85.2389 619.667H-14V606.602H85.2389V619.667ZM-12.7575 618.425H84.0457V607.844H-12.7575V618.425Z" fill="#FFAA33"/>
<path d="M9.87301 613.218C9.87301 613.803 9.69952 614.375 9.37446 614.861C9.04941 615.348 8.58739 615.727 8.04685 615.951C7.5063 616.175 6.9115 616.233 6.33766 616.119C5.76382 616.005 5.2367 615.723 4.82299 615.31C4.40927 614.896 4.12753 614.369 4.01339 613.795C3.89924 613.221 3.95782 612.626 4.18173 612.086C4.40563 611.545 4.7848 611.083 5.27128 610.758C5.75776 610.433 6.32969 610.26 6.91477 610.26C7.69935 610.26 8.45179 610.571 9.00656 611.126C9.56134 611.681 9.87301 612.433 9.87301 613.218Z" fill="#E6EAF0"/>
<path d="M22.021 613.218C22.021 613.803 21.8475 614.375 21.5224 614.861C21.1974 615.348 20.7353 615.727 20.1948 615.951C19.6543 616.175 19.0594 616.233 18.4856 616.119C17.9118 616.005 17.3847 615.723 16.9709 615.31C16.5572 614.896 16.2755 614.369 16.1613 613.795C16.0472 613.221 16.1058 612.626 16.3297 612.086C16.5536 611.545 16.9327 611.083 17.4192 610.758C17.9057 610.433 18.4777 610.26 19.0627 610.26C19.8473 610.26 20.5997 610.571 21.1545 611.126C21.7093 611.681 22.021 612.433 22.021 613.218Z" fill="white"/>
<path d="M25.5344 649.826C25.7131 650.005 25.8549 650.217 25.9516 650.45C26.0483 650.684 26.0981 650.934 26.0981 651.186C26.0981 651.439 26.0483 651.689 25.9516 651.923C25.8549 652.156 25.7131 652.368 25.5344 652.547C25.1756 652.89 24.6996 653.084 24.2031 653.088C23.6882 653.09 23.1917 652.896 22.8134 652.547L14.3211 643.93C14.226 643.93 14.1967 643.843 14.1674 643.747C14.1407 643.724 14.1113 643.705 14.0797 643.689C14.0338 643.615 14.0016 643.533 13.9846 643.448C13.9612 643.435 13.9411 643.418 13.9258 643.396C13.9106 643.374 13.9006 643.349 13.8968 643.323C13.8968 643.265 13.8968 643.177 13.8383 643.14C13.7798 643.104 13.7725 643.023 13.7725 642.994V642.782C13.7725 642.723 13.7725 642.687 13.7725 642.599C13.7725 642.511 13.7725 642.482 13.7725 642.445V642.233C13.7725 642.175 13.8383 642.146 13.8383 642.116C13.8383 642.087 13.8383 641.963 13.8968 641.875C13.9553 641.787 13.8968 641.875 13.8968 641.816C13.9389 641.719 13.9903 641.626 14.0504 641.538C14.0504 641.523 14.0566 641.508 14.0676 641.497C14.0785 641.486 14.0934 641.48 14.1089 641.48C14.1496 641.394 14.2128 641.321 14.2918 641.268L22.8134 632.651C23.1804 632.302 23.6675 632.108 24.1739 632.108C24.6803 632.108 25.1673 632.302 25.5344 632.651C25.7131 632.83 25.8549 633.042 25.9516 633.275C26.0483 633.509 26.0981 633.759 26.0981 634.012C26.0981 634.264 26.0483 634.515 25.9516 634.748C25.8549 634.981 25.7131 635.194 25.5344 635.372L18.3734 642.599L25.5344 649.826Z" fill="#E6EAF0"/>
<path d="M33.2443 650.792L40.6467 633.142C40.8221 632.735 41.1515 632.414 41.5627 632.25C41.974 632.085 42.4336 632.09 42.8411 632.264C43.2376 632.436 43.5497 632.758 43.7088 633.16C43.8678 633.562 43.861 634.01 43.6896 634.407L36.2945 652.094C36.1633 652.391 35.948 652.644 35.6751 652.821C35.4022 652.997 35.0836 653.091 34.7584 653.089C34.55 653.093 34.343 653.053 34.1513 652.972C33.9453 652.892 33.7575 652.772 33.5994 652.618C33.4412 652.464 33.3159 652.28 33.2311 652.076C33.1463 651.872 33.1038 651.653 33.106 651.432C33.1083 651.212 33.1553 650.994 33.2443 650.792Z" fill="#E6EAF0"/>
<path d="M58.3338 643.689C58.2726 643.769 58.2013 643.84 58.1217 643.901L49.6002 652.547C49.2322 652.894 48.7455 653.088 48.2396 653.088C47.7338 653.088 47.247 652.894 46.8791 652.547C46.7004 652.368 46.5587 652.156 46.4619 651.923C46.3652 651.689 46.3154 651.439 46.3154 651.186C46.3154 650.934 46.3652 650.684 46.4619 650.45C46.5587 650.217 46.7004 650.005 46.8791 649.826L54.0402 642.599L46.8791 635.372C46.7004 635.194 46.5587 634.981 46.4619 634.748C46.3652 634.515 46.3154 634.264 46.3154 634.012C46.3154 633.759 46.3652 633.509 46.4619 633.275C46.5587 633.042 46.7004 632.83 46.8791 632.651C47.2462 632.302 47.7332 632.108 48.2396 632.108C48.746 632.108 49.2331 632.302 49.6002 632.651L58.0925 641.268C58.172 641.329 58.2433 641.4 58.3046 641.48V641.538C58.3636 641.627 58.415 641.72 58.4582 641.816C58.4582 641.816 58.4582 641.816 58.4582 641.875C58.4779 641.969 58.5099 642.06 58.5533 642.146C58.5533 642.146 58.5533 642.146 58.5533 642.233V642.445C58.5533 642.445 58.5533 642.57 58.5533 642.599C58.5533 642.628 58.5533 642.723 58.5533 642.753V642.994C58.5533 642.994 58.5533 642.994 58.5533 643.053C58.5154 643.141 58.4836 643.231 58.4582 643.323C58.4582 643.323 58.4582 643.323 58.4582 643.418C58.4582 643.513 58.3997 643.565 58.3338 643.689Z" fill="#E6EAF0"/>
<path d="M327.204 694.133H277.521V630.355H314.404L327.204 642.515V694.133Z" fill="#1C345F"/>
<path d="M327.204 675.467H277.521V694.134H327.204V675.467Z" fill="#F3FCFB"/>
<path d="M277.521 675.466L293.231 660.409L307.481 675.466H277.521Z" fill="#FFEB99"/>
<path d="M297.695 675.466L316.362 651.883L327.203 665.575V675.466H297.695Z" fill="#FFEB99"/>
<path d="M293.79 650.483C293.79 651.584 293.463 652.661 292.851 653.577C292.239 654.493 291.369 655.206 290.352 655.628C289.334 656.049 288.214 656.16 287.134 655.945C286.054 655.73 285.061 655.2 284.283 654.421C283.504 653.642 282.973 652.65 282.758 651.569C282.543 650.489 282.654 649.369 283.075 648.352C283.497 647.334 284.211 646.464 285.126 645.852C286.042 645.24 287.119 644.914 288.221 644.914C289.698 644.914 291.114 645.5 292.158 646.545C293.203 647.589 293.79 649.006 293.79 650.483Z" fill="#FFCC00"/>
<path d="M314.403 630.355L327.204 642.515H314.403V630.355Z" fill="#CCC8B7"/>
<path d="M98.4292 660.785H38.0117V721.304H98.4292V660.785Z" fill="white"/>
<path d="M38.3146 717.348H37.7163V714.208H38.3146V717.348ZM38.3146 711.851H37.7163V708.711H38.3146V711.851ZM38.3146 706.354H37.7163V703.213H38.3146V706.354ZM38.3146 700.856H37.7163V697.748H38.3146V700.856ZM38.3146 695.359H37.7163V692.219H38.3146V695.359ZM38.3146 689.862H37.7163V686.721H38.3146V689.862ZM38.3146 684.364H37.7163V681.224H38.3146V684.364ZM38.3146 678.867H37.7163V675.727H38.3146V678.867ZM38.3146 673.37H37.7163V670.229H38.3146V673.37ZM38.3146 667.88H37.7163V664.732H38.3146V667.88Z" fill="#FFCC00"/>
<path d="M38.3146 662.383H37.7163V660.481H39.6068V661.08H38.3146V662.383Z" fill="#FFCC00"/>
<path d="M94.5206 661.08H91.3298V660.481H94.5206V661.08ZM89.0325 661.08H85.8975V660.481H89.0325V661.08ZM83.5443 661.08H80.4094V660.481H83.5443V661.08ZM78.0562 661.08H74.9212V660.481H78.0562V661.08ZM72.568 661.08H69.4331V660.481H72.568V661.08ZM67.0799 661.08H63.9449V660.481H67.0799V661.08ZM61.5917 661.08H58.4568V660.481H61.5917V661.08ZM56.1036 661.08H52.9686V660.481H56.1036V661.08ZM50.6154 661.08H47.4566V660.481H50.5915L50.6154 661.08ZM45.1273 661.08H41.9604V660.481H45.0635L45.1273 661.08Z" fill="#FFCC00"/>
<path d="M98.732 662.383H98.1337V661.08H96.8335V660.481H98.732V662.383Z" fill="#FFCC00"/>
<path d="M98.7321 717.348H98.1338V714.208H98.7321V717.348ZM98.7321 711.851H98.1338V708.711H98.7321V711.851ZM98.7321 706.354H98.1338V703.213H98.7321V706.354ZM98.7321 700.856H98.1338V697.748H98.7321V700.856ZM98.7321 695.359H98.1338V692.219H98.7321V695.359ZM98.7321 689.862H98.1338V686.721H98.7321V689.862ZM98.7321 684.364H98.1338V681.224H98.7321V684.364ZM98.7321 678.867H98.1338V675.727H98.7321V678.867ZM98.7321 673.37H98.1338V670.229H98.7321V673.37ZM98.7321 667.88H98.1338V664.732H98.7321V667.88Z" fill="#FFCC00"/>
<path d="M40.3729 658.428H35.6665V663.142H40.3729V658.428Z" fill="#FFCC00"/>
<path d="M70.5814 658.428H65.875V663.142H70.5814V658.428Z" fill="#FFCC00"/>
<path d="M100.79 658.428H96.084V663.142H100.79V658.428Z" fill="#FFCC00"/>
<path d="M91.2976 667.928H45.1509V714.152H91.2976V667.928Z" fill="#336ACC"/>
</g>
<defs>
<linearGradient id="paint0_linear_2394_24192" x1="180" y1="0" x2="180" y2="640" gradientUnits="userSpaceOnUse">
<stop offset="0.4" stop-color="#101E37"/>
<stop offset="0.7" stop-color="#101E37" stop-opacity="0.5"/>
<stop offset="1" stop-color="#101E37" stop-opacity="0"/>
</linearGradient>
<clipPath id="clip0_2394_24192">
<rect width="360" height="676" fill="white"/>
</clipPath>
</defs>
</svg>
