<svg width="1366" height="324" viewBox="0 0 1366 324" fill="none" xmlns="http://www.w3.org/2000/svg">
<g clip-path="url(#clip0_2023_39267)">
<rect width="1366" height="324" fill="#101E37"/>
<g opacity="0.5">
<line x1="140" y1="359" x2="140" y2="1.00003" stroke="#E6EAF0" stroke-width="2" stroke-linecap="round" stroke-dasharray="8 8"/>
<line x1="201" y1="359" x2="201" y2="1.00003" stroke="#E6EAF0" stroke-width="2" stroke-linecap="round" stroke-dasharray="8 8"/>
<line x1="233" y1="359" x2="233" y2="1.00003" stroke="#E6EAF0" stroke-width="2" stroke-linecap="round" stroke-dasharray="8 8"/>
<line x1="294" y1="359" x2="294" y2="1.00003" stroke="#E6EAF0" stroke-width="2" stroke-linecap="round" stroke-dasharray="8 8"/>
<line x1="326" y1="359" x2="326" y2="1.00003" stroke="#E6EAF0" stroke-width="2" stroke-linecap="round" stroke-dasharray="8 8"/>
<line x1="387" y1="359" x2="387" y2="1.00003" stroke="#E6EAF0" stroke-width="2" stroke-linecap="round" stroke-dasharray="8 8"/>
<line x1="419" y1="359" x2="419" y2="1.00003" stroke="#E6EAF0" stroke-width="2" stroke-linecap="round" stroke-dasharray="8 8"/>
<line x1="480" y1="359" x2="480" y2="1.00003" stroke="#E6EAF0" stroke-width="2" stroke-linecap="round" stroke-dasharray="8 8"/>
<line x1="512" y1="359" x2="512" y2="1.00003" stroke="#E6EAF0" stroke-width="2" stroke-linecap="round" stroke-dasharray="8 8"/>
<line x1="573" y1="359" x2="573" y2="1.00003" stroke="#E6EAF0" stroke-width="2" stroke-linecap="round" stroke-dasharray="8 8"/>
<line x1="605" y1="359" x2="605" y2="1.00003" stroke="#E6EAF0" stroke-width="2" stroke-linecap="round" stroke-dasharray="8 8"/>
<line x1="666" y1="359" x2="666" y2="1.00003" stroke="#E6EAF0" stroke-width="2" stroke-linecap="round" stroke-dasharray="8 8"/>
<line x1="698" y1="359" x2="698" y2="1.00104" stroke="#E6EAF0" stroke-width="2" stroke-linecap="round" stroke-dasharray="8 8"/>
<line x1="759" y1="358.999" x2="759" y2="1.00006" stroke="#E6EAF0" stroke-width="2" stroke-linecap="round" stroke-dasharray="8 8"/>
<line x1="791" y1="359" x2="791" y2="1.00003" stroke="#E6EAF0" stroke-width="2" stroke-linecap="round" stroke-dasharray="8 8"/>
<line x1="852" y1="359" x2="852" y2="1.00003" stroke="#E6EAF0" stroke-width="2" stroke-linecap="round" stroke-dasharray="8 8"/>
<line x1="884" y1="359" x2="884" y2="1.00003" stroke="#E6EAF0" stroke-width="2" stroke-linecap="round" stroke-dasharray="8 8"/>
<line x1="945" y1="359" x2="945" y2="1.00003" stroke="#E6EAF0" stroke-width="2" stroke-linecap="round" stroke-dasharray="8 8"/>
<line x1="977" y1="359" x2="977" y2="1.00104" stroke="#E6EAF0" stroke-width="2" stroke-linecap="round" stroke-dasharray="8 8"/>
<line x1="1038" y1="358.999" x2="1038" y2="1.00006" stroke="#E6EAF0" stroke-width="2" stroke-linecap="round" stroke-dasharray="8 8"/>
<line x1="1070" y1="359" x2="1070" y2="1.00003" stroke="#E6EAF0" stroke-width="2" stroke-linecap="round" stroke-dasharray="8 8"/>
<line x1="1131" y1="359" x2="1131" y2="1.00003" stroke="#E6EAF0" stroke-width="2" stroke-linecap="round" stroke-dasharray="8 8"/>
<line x1="1163" y1="359" x2="1163" y2="1.00003" stroke="#E6EAF0" stroke-width="2" stroke-linecap="round" stroke-dasharray="8 8"/>
<line x1="1224" y1="359" x2="1224" y2="1.00003" stroke="#E6EAF0" stroke-width="2" stroke-linecap="round" stroke-dasharray="8 8"/>
</g>
<rect y="360" width="360" height="1366" transform="rotate(-90 0 360)" fill="url(#paint0_linear_2023_39267)"/>
<path d="M1182.41 337.843L1187.71 329.274L1185.1 327.653C1184.72 327.416 1184.42 327.08 1184.22 326.682C1184.03 326.283 1183.94 325.838 1183.98 325.395C1184.03 324.895 1184.05 324.392 1184.03 323.889C1184.02 323.447 1184.13 323.009 1184.35 322.625C1184.57 322.242 1184.89 321.928 1185.28 321.718L1188 320.261L1183.24 311.374L1180.52 312.831C1180.14 313.04 1179.7 313.136 1179.26 313.108C1178.81 313.081 1178.39 312.932 1178.03 312.677C1177.62 312.386 1177.19 312.119 1176.75 311.876C1176.36 311.666 1176.03 311.352 1175.81 310.968C1175.59 310.585 1175.48 310.148 1175.49 309.704L1175.58 306.626L1165.53 306.308L1165.44 309.405C1165.42 309.849 1165.28 310.279 1165.03 310.647C1164.78 311.015 1164.44 311.306 1164.03 311.49C1163.81 311.596 1163.59 311.702 1163.38 311.827C1163.17 311.953 1162.94 312.059 1162.73 312.194C1162.36 312.425 1161.92 312.548 1161.48 312.548C1161.04 312.548 1160.61 312.425 1160.24 312.194L1157.6 310.573L1152.29 319.132L1154.92 320.763C1155.29 321 1155.6 321.336 1155.79 321.735C1155.99 322.134 1156.07 322.579 1156.03 323.021C1155.98 323.521 1155.97 324.024 1155.98 324.526C1155.99 324.969 1155.88 325.405 1155.66 325.788C1155.44 326.172 1155.11 326.486 1154.73 326.697L1152.01 328.154L1156.77 337.032L1159.49 335.575C1159.88 335.368 1160.32 335.273 1160.76 335.302C1161.2 335.331 1161.62 335.482 1161.98 335.739C1162.39 336.024 1162.81 336.288 1163.25 336.53C1163.64 336.739 1163.97 337.052 1164.19 337.436C1164.41 337.819 1164.53 338.258 1164.51 338.701L1164.42 341.789L1174.47 342.098L1174.57 339.01C1174.59 338.569 1174.73 338.142 1174.98 337.776C1175.22 337.41 1175.57 337.119 1175.97 336.936L1176.64 336.598L1177.28 336.231C1177.66 335.997 1178.09 335.873 1178.54 335.873C1178.98 335.873 1179.41 335.997 1179.79 336.231L1182.41 337.843ZM1173.9 331.484C1172.46 332.253 1170.83 332.579 1169.21 332.421C1167.59 332.262 1166.05 331.625 1164.79 330.591C1163.53 329.557 1162.6 328.172 1162.13 326.611C1161.66 325.051 1161.65 323.384 1162.13 321.822C1162.6 320.261 1163.52 318.874 1164.78 317.838C1166.04 316.801 1167.57 316.162 1169.19 316C1170.81 315.838 1172.45 316.161 1173.88 316.928C1175.32 317.695 1176.5 318.872 1177.27 320.309C1177.78 321.264 1178.1 322.312 1178.21 323.391C1178.32 324.47 1178.21 325.559 1177.9 326.598C1177.59 327.636 1177.07 328.602 1176.38 329.44C1175.7 330.279 1174.85 330.973 1173.9 331.484Z" fill="#FFAA33"/>
<path fill-rule="evenodd" clip-rule="evenodd" d="M927.285 87.5908L926.748 94.4438C923.262 95.1215 919.925 96.4734 916.929 98.441L911.467 93.7666L904.83 100.415L909.414 105.779C908.309 107.377 907.371 109.097 906.62 110.911C906.015 112.375 905.54 113.881 905.197 115.413L898 115.98V125.378L904.9 125.922C904.948 126.213 905.001 126.505 905.059 126.795C905.705 130.052 906.932 133.148 908.664 135.94L904.156 141.223L910.793 147.872L915.765 143.615C918.764 145.813 922.187 147.387 925.831 148.225L926.332 154.713H935.725L936.197 148.597C938.343 148.262 940.452 147.672 942.48 146.831C944.011 146.196 945.474 145.426 946.854 144.534L951.533 148.547L958.18 141.899L954.329 137.385C954.488 137.161 954.644 136.935 954.797 136.705C956.807 133.692 958.192 130.327 958.893 126.807L965.001 126.334V116.925L958.971 116.458C958.623 114.561 958.076 112.701 957.336 110.91C956.619 109.174 955.727 107.521 954.678 105.975L958.844 101.091L952.207 94.4324L947.314 98.6288C945.797 97.6055 944.179 96.7343 942.481 96.0303C940.776 95.3233 939.009 94.7921 937.206 94.4421L936.668 87.5908H927.285ZM931.977 134.266C929.44 134.266 926.961 133.512 924.852 132.101C922.743 130.689 921.1 128.682 920.13 126.335C919.16 123.988 918.906 121.405 919.402 118.913C919.897 116.421 921.12 114.133 922.914 112.337C924.708 110.541 926.993 109.319 929.481 108.824C931.969 108.33 934.548 108.585 936.89 109.559C939.233 110.533 941.235 112.18 942.643 114.294C944.05 116.407 944.801 118.891 944.799 121.432C944.799 123.118 944.467 124.788 943.823 126.345C943.178 127.903 942.234 129.318 941.043 130.51C939.852 131.702 938.439 132.647 936.883 133.292C935.327 133.936 933.66 134.267 931.977 134.266Z" fill="#8DE2D6"/>
<path d="M1170 121.022H1110V44H1154.54L1170 58.6845V121.022Z" fill="#1C345F"/>
<path d="M1170 98.4786H1110V121.022H1170V98.4786Z" fill="#F3FCFB"/>
<path d="M1110 98.4787L1128.97 80.2952L1146.18 98.4787H1110Z" fill="#FFEB99"/>
<path d="M1134.36 98.479L1156.91 69.999L1170 86.5334V98.479H1134.36Z" fill="#FFEB99"/>
<path d="M1129.65 68.3072C1129.65 69.6374 1129.25 70.9377 1128.51 72.0437C1127.77 73.1497 1126.72 74.0118 1125.49 74.5208C1124.27 75.0299 1122.91 75.1631 1121.61 74.9036C1120.3 74.6441 1119.11 74.0035 1118.16 73.0629C1117.22 72.1223 1116.58 70.9239 1116.32 69.6193C1116.06 68.3146 1116.2 66.9623 1116.71 65.7334C1117.22 64.5044 1118.08 63.454 1119.18 62.715C1120.29 61.976 1121.59 61.5815 1122.92 61.5815C1124.7 61.5815 1126.42 62.2901 1127.68 63.5514C1128.94 64.8127 1129.65 66.5234 1129.65 68.3072Z" fill="#FFCC00"/>
<path d="M1154.54 44L1170 58.6845H1154.54V44Z" fill="#CCC8B7"/>
<path d="M1123.94 112.26C1123.99 112.242 1124.04 112.235 1124.1 112.238C1124.15 112.242 1124.2 112.256 1124.25 112.28C1124.3 112.304 1124.34 112.338 1124.38 112.379C1124.41 112.419 1124.44 112.467 1124.46 112.518C1124.68 113.263 1125.17 113.901 1125.83 114.314C1126.5 114.727 1127.28 114.888 1128.05 114.768C1128.82 114.648 1129.52 114.254 1130.03 113.659C1130.53 113.064 1130.8 112.308 1130.79 111.529V103.986C1130.79 103.876 1130.84 103.77 1130.92 103.692C1130.99 103.614 1131.1 103.57 1131.21 103.57C1131.32 103.574 1131.42 103.619 1131.5 103.696C1131.58 103.773 1131.62 103.877 1131.63 103.986V111.529C1131.62 112.502 1131.28 113.442 1130.64 114.181C1130.01 114.921 1129.14 115.41 1128.18 115.562C1127.22 115.715 1126.23 115.519 1125.4 115.011C1124.57 114.503 1123.95 113.716 1123.65 112.791C1123.62 112.683 1123.63 112.566 1123.69 112.467C1123.74 112.368 1123.83 112.293 1123.94 112.26Z" fill="#9EAAB8"/>
<path d="M1134.88 103.986C1134.88 103.876 1134.92 103.77 1135 103.692C1135.08 103.614 1135.19 103.57 1135.3 103.57H1138.7C1139.6 103.57 1140.48 103.931 1141.12 104.574C1141.76 105.217 1142.12 106.088 1142.12 106.997C1142.12 107.906 1141.76 108.778 1141.12 109.421C1140.48 110.064 1139.6 110.425 1138.7 110.425H1135.71V115.243C1135.71 115.353 1135.67 115.459 1135.59 115.537C1135.51 115.615 1135.41 115.659 1135.3 115.659C1135.19 115.659 1135.08 115.615 1135 115.537C1134.92 115.459 1134.88 115.353 1134.88 115.243V103.986ZM1138.7 109.622C1139.38 109.614 1140.04 109.336 1140.53 108.848C1141.01 108.36 1141.29 107.7 1141.29 107.012C1141.29 106.323 1141.02 105.663 1140.53 105.176C1140.04 104.69 1139.38 104.416 1138.7 104.416H1135.71V109.622H1138.7Z" fill="#9EAAB8"/>
<path d="M1150.53 110.195C1150.47 110.197 1150.42 110.188 1150.36 110.168C1150.31 110.148 1150.27 110.117 1150.23 110.078C1150.19 110.039 1150.16 109.992 1150.14 109.941C1150.12 109.89 1150.11 109.835 1150.11 109.78C1150.11 109.724 1150.12 109.668 1150.14 109.616C1150.16 109.564 1150.19 109.516 1150.23 109.476C1150.27 109.436 1150.31 109.404 1150.36 109.382C1150.41 109.361 1150.47 109.349 1150.53 109.349H1154.3C1154.4 109.36 1154.5 109.41 1154.57 109.49C1154.65 109.569 1154.69 109.673 1154.68 109.78V113.967C1154.67 114.087 1154.61 114.198 1154.53 114.282C1153.77 114.923 1152.86 115.37 1151.89 115.585C1150.92 115.8 1149.91 115.776 1148.95 115.516C1147.99 115.256 1147.1 114.768 1146.37 114.092C1145.64 113.417 1145.08 112.575 1144.75 111.637C1144.42 110.7 1144.31 109.696 1144.45 108.71C1144.59 107.725 1144.96 106.787 1145.54 105.978C1146.12 105.168 1146.89 104.511 1147.77 104.061C1148.66 103.612 1149.65 103.385 1150.64 103.398C1152.06 103.399 1153.43 103.879 1154.54 104.76C1154.61 104.838 1154.66 104.94 1154.66 105.047C1154.66 105.154 1154.61 105.257 1154.54 105.334C1154.46 105.41 1154.35 105.452 1154.24 105.452C1154.13 105.452 1154.02 105.41 1153.94 105.334C1153.28 104.774 1152.5 104.382 1151.66 104.191C1150.82 104 1149.95 104.016 1149.12 104.237C1148.28 104.459 1147.52 104.879 1146.88 105.462C1146.25 106.045 1145.77 106.773 1145.47 107.584C1145.18 108.395 1145.09 109.265 1145.21 110.118C1145.33 110.971 1145.66 111.783 1146.16 112.482C1146.66 113.182 1147.33 113.749 1148.1 114.135C1148.87 114.521 1149.72 114.715 1150.58 114.698C1151.73 114.693 1152.84 114.332 1153.77 113.666V110.124L1150.53 110.195Z" fill="#9EAAB8"/>
<path d="M963.096 261.749H844.75V337.249H963.096V261.749Z" fill="#1C345F"/>
<path d="M963.847 338H844V261H963.847V338ZM845.5 336.5H962.406V262.5H845.5V336.5Z" fill="#FFAA33"/>
<path d="M963.096 261.749H844.75V276.028H963.096V261.749Z" fill="#8DE2D6"/>
<path d="M963.847 276.779H844V261H963.847V276.779ZM845.5 275.278H962.406V262.5H845.5V275.278Z" fill="#FFAA33"/>
<path d="M858.159 268.991C858.159 269.697 857.95 270.388 857.557 270.976C857.165 271.563 856.607 272.021 855.954 272.291C855.301 272.562 854.583 272.633 853.89 272.495C853.197 272.357 852.56 272.017 852.061 271.517C851.561 271.017 851.221 270.381 851.083 269.688C850.945 268.995 851.016 268.277 851.286 267.624C851.556 266.971 852.014 266.413 852.602 266.02C853.189 265.628 853.88 265.418 854.587 265.418C855.534 265.418 856.443 265.795 857.113 266.465C857.783 267.135 858.159 268.043 858.159 268.991Z" fill="#FFAA33"/>
<path d="M872.831 268.991C872.831 269.697 872.621 270.388 872.229 270.976C871.836 271.563 871.278 272.021 870.625 272.291C869.973 272.562 869.254 272.633 868.561 272.495C867.868 272.357 867.232 272.017 866.732 271.517C866.233 271.017 865.892 270.381 865.754 269.688C865.617 268.995 865.687 268.277 865.958 267.624C866.228 266.971 866.686 266.413 867.274 266.02C867.861 265.628 868.552 265.418 869.258 265.418C870.206 265.418 871.115 265.795 871.784 266.465C872.454 267.135 872.831 268.043 872.831 268.991Z" fill="#E6EAF0"/>
<path d="M887.501 268.991C887.501 269.697 887.292 270.388 886.899 270.976C886.507 271.563 885.949 272.021 885.296 272.291C884.643 272.562 883.925 272.633 883.232 272.495C882.539 272.357 881.902 272.017 881.403 271.517C880.903 271.017 880.563 270.381 880.425 269.688C880.287 268.995 880.358 268.277 880.628 267.624C880.899 266.971 881.356 266.413 881.944 266.02C882.531 265.628 883.222 265.418 883.929 265.418C884.876 265.418 885.785 265.795 886.455 266.465C887.125 267.135 887.501 268.043 887.501 268.991Z" fill="white"/>
<path d="M891.745 313.2C891.961 313.416 892.132 313.672 892.249 313.954C892.366 314.236 892.426 314.538 892.426 314.843C892.426 315.149 892.366 315.451 892.249 315.733C892.132 316.015 891.961 316.271 891.745 316.486C891.312 316.901 890.737 317.134 890.138 317.14C889.516 317.142 888.916 316.908 888.459 316.486L878.204 306.08C878.089 306.08 878.053 305.974 878.018 305.86C877.986 305.832 877.95 305.808 877.912 305.789C877.857 305.699 877.818 305.601 877.797 305.497C877.769 305.483 877.745 305.461 877.726 305.435C877.708 305.409 877.696 305.379 877.691 305.347C877.691 305.277 877.691 305.171 877.621 305.126C877.55 305.082 877.541 304.985 877.541 304.95V304.694C877.541 304.623 877.541 304.579 877.541 304.473C877.541 304.367 877.541 304.331 877.541 304.287V304.031C877.541 303.96 877.621 303.925 877.621 303.89C877.621 303.854 877.621 303.704 877.691 303.598C877.762 303.492 877.691 303.598 877.691 303.528C877.742 303.41 877.804 303.298 877.877 303.192C877.877 303.173 877.884 303.155 877.897 303.142C877.911 303.129 877.929 303.121 877.947 303.121C877.997 303.017 878.073 302.929 878.168 302.865L888.459 292.459C888.903 292.038 889.491 291.803 890.102 291.803C890.714 291.803 891.302 292.038 891.745 292.459C891.961 292.675 892.132 292.931 892.249 293.213C892.366 293.495 892.426 293.797 892.426 294.102C892.426 294.407 892.366 294.709 892.249 294.991C892.132 295.273 891.961 295.529 891.745 295.745L883.097 304.473L891.745 313.2Z" fill="#E6EAF0"/>
<path d="M901.056 314.366L909.996 293.051C910.207 292.559 910.605 292.172 911.102 291.974C911.598 291.775 912.154 291.781 912.646 291.991C913.124 292.198 913.501 292.587 913.693 293.073C913.886 293.558 913.877 294.1 913.67 294.579L904.74 315.938C904.581 316.298 904.321 316.603 903.992 316.816C903.662 317.03 903.277 317.142 902.885 317.14C902.633 317.145 902.383 317.097 902.151 316.998C901.903 316.903 901.676 316.758 901.485 316.572C901.294 316.386 901.142 316.163 901.04 315.917C900.938 315.671 900.886 315.406 900.889 315.14C900.892 314.873 900.949 314.61 901.056 314.366Z" fill="#E6EAF0"/>
<path d="M931.356 305.789C931.282 305.885 931.196 305.971 931.1 306.045L920.808 316.487C920.364 316.906 919.776 317.139 919.165 317.139C918.554 317.139 917.967 316.906 917.522 316.487C917.306 316.271 917.135 316.015 917.018 315.733C916.902 315.451 916.842 315.149 916.842 314.844C916.842 314.538 916.902 314.236 917.018 313.954C917.135 313.672 917.306 313.416 917.522 313.2L926.17 304.473L917.522 295.745C917.306 295.53 917.135 295.273 917.018 294.991C916.902 294.71 916.842 294.407 916.842 294.102C916.842 293.797 916.902 293.495 917.018 293.213C917.135 292.931 917.306 292.675 917.522 292.459C917.966 292.038 918.554 291.803 919.165 291.803C919.777 291.803 920.365 292.038 920.808 292.459L931.064 302.865C931.16 302.939 931.246 303.025 931.32 303.121V303.192C931.392 303.298 931.454 303.411 931.506 303.528C931.506 303.528 931.506 303.528 931.506 303.598C931.53 303.712 931.568 303.822 931.621 303.925C931.621 303.925 931.621 303.925 931.621 304.031V304.287C931.621 304.287 931.621 304.438 931.621 304.473C931.621 304.508 931.621 304.623 931.621 304.658V304.95C931.621 304.95 931.621 304.95 931.621 305.021C931.575 305.127 931.537 305.236 931.506 305.347C931.506 305.347 931.506 305.347 931.506 305.462C931.506 305.577 931.435 305.639 931.356 305.789Z" fill="#E6EAF0"/>
<path d="M1474.47 122.674H1184.67V242.513H1474.47V122.674Z" fill="#101E37"/>
<path d="M1465.51 243.187H1458.29V241.857H1465.51V243.187ZM1452.9 243.187H1445.7V241.857H1452.9V243.187ZM1440.29 243.187H1433.1V241.857H1440.29V243.187ZM1427.69 243.187H1420.49V241.857H1427.69V243.187ZM1415.1 243.187H1407.88V241.857H1415.1V243.187ZM1402.49 243.187H1395.29V241.857H1402.49V243.187ZM1389.88 243.187H1382.75V241.857H1389.84L1389.88 243.187ZM1377.27 243.187H1370.07V241.857H1377.27V243.187ZM1364.66 243.187H1357.46V241.857H1364.66V243.187ZM1352.07 243.187H1344.86V241.857H1352.07V243.187ZM1339.47 243.187H1332.27V241.857H1339.47V243.187ZM1326.86 243.187H1319.66V241.857H1326.86V243.187ZM1314.25 243.187H1307.05V241.857H1314.25V243.187ZM1301.66 243.187H1294.44V241.857H1301.66V243.187ZM1289.05 243.187H1281.85V241.857H1289.05V243.187ZM1276.44 243.187H1269.26V241.857H1276.46L1276.44 243.187ZM1263.83 243.187H1256.63V241.857H1263.83V243.187ZM1251.23 243.187H1244.03V241.857H1251.23V243.187ZM1238.64 243.187H1231.44V241.857H1238.64V243.187ZM1226.03 243.187H1218.83V241.857H1226.03V243.187ZM1213.42 243.187H1206.22V241.857H1213.42V243.187ZM1200.81 243.187H1193.61V241.857H1200.81V243.187Z" fill="#FF9500"/>
<path d="M1188.22 243.187H1184V238.967H1185.33V241.857H1188.22V243.187Z" fill="#FF9500"/>
<path d="M1185.33 233.842H1184V226.944H1185.33V233.842ZM1185.33 221.89H1184V215.063H1185.33V221.89ZM1185.33 209.938H1184V203.093H1185.33V209.938ZM1185.33 197.968H1184V191.141H1185.33V197.968ZM1185.33 186.016H1184V179.171H1185.33V186.016ZM1185.33 174.046H1184V167.219H1185.33V174.046ZM1185.33 162.094H1184V155.267H1185.33V162.094ZM1185.33 150.142H1184V143.297H1185.33V150.142ZM1185.33 138.172H1184V131.345H1185.33V138.172Z" fill="#FF9500"/>
<path d="M1185.33 126.22H1184V122H1188.22V123.33H1185.33V126.22Z" fill="#FF9500"/>
<path d="M1465.51 123.33H1458.29V122H1465.51V123.33ZM1452.9 123.33H1445.7V122H1452.9V123.33ZM1440.29 123.33H1433.1V122H1440.29V123.33ZM1427.69 123.33H1420.49V122H1427.69V123.33ZM1415.08 123.33H1407.88V122H1415.08V123.33ZM1402.49 123.33H1395.29V122H1402.49V123.33ZM1389.88 123.33H1382.75V122H1389.84L1389.88 123.33ZM1377.27 123.33H1370.07V122H1377.27V123.33ZM1364.66 123.33H1357.46V122H1364.66V123.33ZM1352.07 123.33H1344.86V122H1352.07V123.33ZM1339.47 123.33H1332.27V122H1339.47V123.33ZM1326.86 123.33H1319.66V122H1326.86V123.33ZM1314.25 123.33H1307.05V122H1314.25V123.33ZM1301.64 123.33H1294.44V122H1301.64V123.33ZM1289.05 123.33H1281.85V122H1289.05V123.33ZM1276.44 123.33H1269.26V122H1276.46L1276.44 123.33ZM1263.83 123.33H1256.63V122H1263.83V123.33ZM1251.23 123.33H1244.03V122H1251.23V123.33ZM1238.64 123.33H1231.42V122H1238.64V123.33ZM1226.03 123.33H1218.83V122H1226.03V123.33ZM1213.42 123.33H1206.22V122H1213.42V123.33ZM1200.81 123.33H1193.61V122H1200.81V123.33Z" fill="#FF9500"/>
<path d="M1200.51 224.674H1284.69V140.495H1200.51V224.674Z" fill="#5C88D6"/>
<path opacity="0.1" d="M1212.51 160.037C1212.2 161.645 1212.4 163.313 1213.1 164.794C1213.81 166.276 1214.97 167.492 1216.41 168.265C1217.86 169.037 1219.51 169.324 1221.13 169.083C1222.76 168.842 1224.26 168.086 1225.42 166.927C1226.58 165.768 1227.33 164.267 1227.57 162.646C1227.81 161.024 1227.53 159.368 1226.75 157.922C1225.98 156.476 1224.76 155.317 1223.28 154.615C1221.8 153.914 1220.13 153.707 1218.53 154.026C1217.04 154.322 1215.68 155.051 1214.61 156.121C1213.54 157.191 1212.81 158.553 1212.51 160.037Z" fill="black"/>
<g opacity="0.2">
<path d="M1228.28 201.355H1284.69L1256.47 166.581L1228.28 201.355Z" fill="black"/>
</g>
<path d="M1200.51 201.373H1250.53L1225.51 178.746L1200.51 201.373Z" fill="#FFFAE5"/>
<g opacity="0.1">
<path d="M1200.51 201.373H1250.53L1225.51 178.746L1200.51 201.373Z" fill="black"/>
</g>
<path d="M1284.69 201.373H1200.51V224.674H1284.69V201.373Z" fill="#FFFAE5"/>
<g opacity="0.1">
<path d="M1284.69 201.373H1200.51V224.674H1284.69V201.373Z" fill="black"/>
</g>
<path d="M1457.02 140.797H1295.95V143.741H1457.02V140.797Z" fill="#EBEBEB"/>
<path d="M1457.02 156.863H1295.95V159.806H1457.02V156.863Z" fill="#EBEBEB"/>
<path d="M1457.02 165.41H1295.95V168.354H1457.02V165.41Z" fill="#EBEBEB"/>
<path d="M1457.02 173.958H1295.95V176.901H1457.02V173.958Z" fill="#EBEBEB"/>
<path d="M1457.02 191.052H1295.95V193.996H1457.02V191.052Z" fill="#EBEBEB"/>
<path d="M1457.02 199.6H1295.95V202.543H1457.02V199.6Z" fill="#EBEBEB"/>
<path d="M1457.02 208.147H1295.95V211.091H1457.02V208.147Z" fill="#EBEBEB"/>
<path d="M1385.77 216.712H1295.95V219.656H1385.77V216.712Z" fill="#EBEBEB"/>
<rect x="940" y="72" width="196" height="370" rx="18" fill="#69788A"/>
<path d="M950 126H1126V424C1126 428.418 1122.42 432 1118 432H958C953.582 432 950 428.418 950 424V126Z" fill="#E6EAF0"/>
<path fill-rule="evenodd" clip-rule="evenodd" d="M958 82C953.582 82 950 85.5817 950 90V126H1126V90C1126 85.5817 1122.42 82 1118 82H1082C1079.79 82 1078 83.7909 1078 86V88C1078 90.2091 1076.21 92 1074 92H1002C999.791 92 998 90.2091 998 88V86C998 83.7909 996.209 82 994 82H958Z" fill="#FFCC00"/>
<path d="M988.993 89.0384C988.906 89.135 988.81 89.2221 988.713 89.3187L988.559 89.4831C987.835 88.7599 986.854 88.3537 985.832 88.3537C984.81 88.3537 983.829 88.7599 983.105 89.4831C983.057 89.4831 983.009 89.3767 982.951 89.3284L982.681 89.048C982.796 88.9417 982.912 88.8257 983.038 88.729C983.289 88.5197 983.565 88.3412 983.858 88.1973C984.207 88.0261 984.577 87.9025 984.958 87.8299L985.509 87.7622H985.982H986.358C986.688 87.8023 987.013 87.8835 987.323 88.0039C987.557 88.0872 987.783 88.1907 987.999 88.3133C988.229 88.4456 988.446 88.6011 988.645 88.7773L988.945 89.0384H988.993Z" fill="white"/>
<path d="M984.003 90.3725C983.858 90.2178 983.704 90.0728 983.559 89.9278C984.038 89.4099 984.677 89.0693 985.374 88.961C985.868 88.8902 986.372 88.9354 986.846 89.0931C987.32 89.2508 987.751 89.5167 988.105 89.8698L987.661 90.3145C987.173 89.8301 986.514 89.5589 985.827 89.5604C985.484 89.5669 985.146 89.6421 984.833 89.7816C984.52 89.9211 984.238 90.122 984.003 90.3725Z" fill="white"/>
<path d="M987.246 90.8174L986.802 91.2621C986.677 91.1343 986.526 91.0339 986.36 90.9673C986.194 90.9008 986.016 90.8695 985.837 90.8754C985.658 90.8712 985.481 90.9033 985.315 90.9698C985.149 91.0362 984.998 91.1357 984.872 91.2621L984.437 90.8174C984.618 90.6257 984.835 90.473 985.077 90.3686C985.318 90.2643 985.579 90.2104 985.842 90.2104C986.105 90.2104 986.365 90.2643 986.606 90.3686C986.848 90.473 987.065 90.6257 987.246 90.8174Z" fill="white"/>
<path d="M986.281 91.6682C986.281 91.7211 986.271 91.7735 986.25 91.8222C986.23 91.871 986.2 91.9151 986.162 91.9521C986.124 91.989 986.079 92.018 986.03 92.0374C985.981 92.0567 985.929 92.0661 985.876 92.0648C985.771 92.0648 985.67 92.023 985.596 91.9486C985.522 91.8742 985.48 91.7734 985.48 91.6682C985.479 91.6153 985.488 91.5627 985.507 91.5135C985.526 91.4642 985.555 91.4194 985.592 91.3815C985.629 91.3437 985.673 91.3136 985.722 91.293C985.771 91.2725 985.823 91.2619 985.876 91.262C985.983 91.262 986.086 91.3048 986.163 91.3809C986.239 91.4571 986.281 91.5605 986.281 91.6682Z" fill="white"/>
<path d="M961.446 89.9085C961.444 89.6767 961.511 89.4496 961.638 89.256C961.766 89.0623 961.947 88.9109 962.161 88.8209C962.374 88.7308 962.609 88.7063 962.836 88.7503C963.063 88.7944 963.272 88.905 963.437 89.0682C963.601 89.2314 963.713 89.4398 963.759 89.667C963.805 89.8942 963.782 90.1299 963.694 90.3442C963.606 90.5585 963.456 90.7418 963.264 90.8708C963.072 90.9998 962.846 91.0686 962.614 91.0686C962.306 91.0686 962.011 90.9467 961.792 90.7294C961.573 90.5121 961.449 90.2171 961.446 89.9085Z" fill="white"/>
<path d="M965.115 89.9084C965.113 89.6763 965.18 89.4488 965.308 89.2549C965.435 89.0611 965.617 88.9096 965.831 88.8199C966.045 88.7302 966.281 88.7062 966.508 88.751C966.736 88.7958 966.944 88.9075 967.108 89.0716C967.272 89.2358 967.384 89.4451 967.428 89.673C967.473 89.9008 967.449 90.1368 967.36 90.3509C967.27 90.5651 967.119 90.7477 966.925 90.8755C966.732 91.0033 966.505 91.0705 966.273 91.0686C965.967 91.0661 965.673 90.943 965.457 90.726C965.24 90.509 965.117 90.2154 965.115 89.9084Z" fill="white"/>
<path d="M968.773 89.9085C968.771 89.6767 968.837 89.4496 968.965 89.256C969.092 89.0623 969.273 88.9109 969.487 88.8209C969.7 88.7308 969.935 88.7063 970.162 88.7503C970.389 88.7944 970.598 88.905 970.763 89.0682C970.927 89.2314 971.039 89.4398 971.085 89.667C971.131 89.8942 971.108 90.1299 971.02 90.3442C970.932 90.5585 970.782 90.7418 970.59 90.8708C970.398 90.9998 970.172 91.0686 969.94 91.0686C969.632 91.0686 969.337 90.9467 969.118 90.7294C968.899 90.5121 968.775 90.2171 968.773 89.9085Z" fill="white"/>
<path d="M972.439 89.9085C972.438 89.6767 972.504 89.4496 972.632 89.256C972.759 89.0623 972.94 88.9109 973.154 88.8209C973.367 88.7308 973.602 88.7063 973.829 88.7503C974.056 88.7944 974.265 88.905 974.43 89.0682C974.594 89.2314 974.706 89.4398 974.752 89.667C974.798 89.8942 974.775 90.1299 974.687 90.3442C974.599 90.5585 974.449 90.7418 974.257 90.8708C974.065 90.9998 973.839 91.0686 973.607 91.0686C973.299 91.0686 973.004 90.9467 972.785 90.7294C972.566 90.5121 972.442 90.2171 972.439 89.9085Z" fill="white"/>
<path d="M976.107 89.9084C976.106 89.6763 976.173 89.4488 976.3 89.2549C976.428 89.0611 976.61 88.9096 976.824 88.8199C977.038 88.7302 977.273 88.7062 977.501 88.751C977.728 88.7958 977.937 88.9075 978.101 89.0716C978.265 89.2358 978.376 89.4451 978.421 89.673C978.466 89.9008 978.442 90.1368 978.352 90.3509C978.263 90.5651 978.112 90.7477 977.918 90.8755C977.725 91.0033 977.497 91.0705 977.266 91.0686C976.959 91.0661 976.666 90.943 976.449 90.726C976.233 90.509 976.11 90.2154 976.107 89.9084Z" fill="white"/>
<path d="M1112.39 92.4414H1102.92V88.0425H1112.39V92.4414ZM1103.4 91.958H1111.91V88.5259H1103.4V91.958Z" fill="white"/>
<path d="M1109.81 88.7866H1103.7V91.687H1109.81V88.7866Z" fill="white"/>
<path d="M1113.24 89.0674H1112.4V91.4167H1113.24V89.0674Z" fill="white"/>
<path d="M1047.01 86.0408H1028.56C1028.41 86.0408 1028.27 86.011 1028.13 85.9531C1027.99 85.8951 1027.86 85.8102 1027.76 85.7033C1027.65 85.5963 1027.57 85.4694 1027.51 85.3299C1027.45 85.1903 1027.42 85.0409 1027.43 84.8903C1027.43 84.5878 1027.55 84.2976 1027.76 84.0837C1027.97 83.8697 1028.26 83.7495 1028.56 83.7495H1047.01C1047.31 83.7495 1047.6 83.8697 1047.81 84.0837C1048.03 84.2976 1048.15 84.5878 1048.15 84.8903C1048.15 85.0409 1048.12 85.1903 1048.06 85.3299C1048.01 85.4694 1047.92 85.5963 1047.82 85.7033C1047.71 85.8102 1047.59 85.8951 1047.45 85.9531C1047.31 86.011 1047.16 86.0408 1047.01 86.0408Z" fill="white"/>
<path d="M1117.69 211.491H1044.72V284.577H1117.69V211.491Z" fill="white"/>
<path d="M1118.04 284.934H1115.76V284.21H1117.32V282.647H1118.04V284.934Z" fill="#FFCC00"/>
<path d="M1112.92 284.934H1109.13V284.21H1112.92V284.934ZM1106.29 284.934H1102.5V284.21H1106.29V284.934ZM1099.66 284.934H1095.88V284.21H1099.66V284.934ZM1093.03 284.934H1089.25V284.21H1093.05L1093.03 284.934ZM1086.41 284.934H1082.62V284.21H1086.41V284.934ZM1079.78 284.934H1075.99V284.21H1079.78V284.934ZM1073.15 284.934H1069.36V284.21H1073.15V284.934ZM1066.52 284.934H1062.74V284.21H1066.52V284.934ZM1059.89 284.934H1056.11V284.21H1059.89V284.934ZM1053.28 284.934H1049.48V284.21H1053.28V284.934Z" fill="#FFCC00"/>
<path d="M1046.65 284.934H1044.36V282.647H1045.08V284.21H1046.65V284.934Z" fill="#FFCC00"/>
<path d="M1045.08 279.8H1044.36V276.008H1045.08V279.8ZM1045.08 273.162H1044.36V269.369H1045.08V273.162ZM1045.08 266.523H1044.36V262.73H1045.08V266.523ZM1045.08 259.884H1044.36V256.13H1045.08V259.884ZM1045.08 253.245H1044.36V249.453H1045.08V253.245ZM1045.08 246.606H1044.36V242.814H1045.08V246.606ZM1045.08 239.967H1044.36V236.175H1045.08V239.967ZM1045.08 233.328H1044.36V229.536H1045.08V233.328ZM1045.08 226.689H1044.36V222.897H1045.08V226.689ZM1045.08 220.06H1044.36V216.258H1045.08V220.06Z" fill="#FFCC00"/>
<path d="M1045.08 213.421H1044.36V211.125H1046.65V211.848H1045.08V213.421Z" fill="#FFCC00"/>
<path d="M1112.92 211.848H1109.13V211.125H1112.92V211.848ZM1106.29 211.848H1102.5V211.125H1106.29V211.848ZM1099.66 211.848H1095.88V211.125H1099.66V211.848ZM1093.03 211.848H1089.25V211.125H1093.05L1093.03 211.848ZM1086.41 211.848H1082.62V211.125H1086.41V211.848ZM1079.78 211.848H1075.99V211.125H1079.78V211.848ZM1073.15 211.848H1069.36V211.125H1073.15V211.848ZM1066.52 211.848H1062.74V211.125H1066.52V211.848ZM1059.89 211.848H1056.11V211.125H1059.89V211.848ZM1053.28 211.848H1049.48V211.125H1053.28V211.848Z" fill="#FFCC00"/>
<path d="M1118.04 213.421H1117.32V211.848H1115.76V211.125H1118.04V213.421Z" fill="#FFCC00"/>
<path d="M1118.04 279.8H1117.32V276.008H1118.04V279.8ZM1118.04 273.162H1117.32V269.369H1118.04V273.162ZM1118.04 266.523H1117.32V262.73H1118.04V266.523ZM1118.04 259.884H1117.32V256.13H1118.04V259.884ZM1118.04 253.245H1117.32V249.453H1118.04V253.245ZM1118.04 246.606H1117.32V242.814H1118.04V246.606ZM1118.04 239.967H1117.32V236.175H1118.04V239.967ZM1118.04 233.328H1117.32V229.536H1118.04V233.328ZM1118.04 226.689H1117.32V222.897H1118.04V226.689ZM1118.04 220.06H1117.32V216.258H1118.04V220.06Z" fill="#FFCC00"/>
<path d="M1051.69 277.591H1110.71V218.468H1051.69V277.591Z" fill="#FFCC00"/>
<path opacity="0.1" d="M1060.13 232.18C1059.9 233.311 1060.04 234.485 1060.54 235.528C1061.03 236.571 1061.84 237.428 1062.86 237.973C1063.87 238.517 1065.03 238.72 1066.17 238.551C1067.31 238.382 1068.37 237.85 1069.18 237.034C1070 236.219 1070.53 235.162 1070.7 234.021C1070.86 232.88 1070.66 231.715 1070.12 230.698C1069.58 229.681 1068.72 228.866 1067.68 228.373C1066.64 227.881 1065.46 227.737 1064.34 227.963C1063.3 228.172 1062.34 228.684 1061.59 229.435C1060.85 230.185 1060.33 231.14 1060.13 232.18Z" fill="black"/>
<g opacity="0.2">
<path d="M1071.17 261.196H1110.71L1090.93 236.783L1071.17 261.196Z" fill="black"/>
</g>
<path d="M1051.69 261.225H1086.76L1069.23 245.323L1051.69 261.225Z" fill="#FFCC00"/>
<g opacity="0.1">
<path d="M1051.69 261.225H1086.76L1069.23 245.323L1051.69 261.225Z" fill="black"/>
</g>
<path d="M1110.71 261.225H1051.69V277.591H1110.71V261.225Z" fill="#FFCC00"/>
<g opacity="0.1">
<path d="M1110.71 261.225H1051.69V277.591H1110.71V261.225Z" fill="black"/>
</g>
<path d="M1116.87 138.599H959.437V203.81H1116.87V138.599Z" fill="white"/>
<path d="M1117.22 204.177H1114.93V203.453H1116.5V201.88H1117.22V204.177Z" fill="#FFCC00"/>
<path d="M1112 204.177H1108.08V203.453H1112V204.177ZM1105.15 204.177H1101.24V203.453H1105.15V204.177ZM1098.3 204.177H1094.39V203.453H1098.3V204.177ZM1091.45 204.177H1087.54V203.453H1091.45V204.177ZM1084.61 204.177H1080.69V203.453H1084.61V204.177ZM1077.76 204.177H1073.85V203.453H1077.76V204.177ZM1070.92 204.177H1067.04V203.453H1070.9L1070.92 204.177ZM1064.07 204.177H1060.15V203.453H1064.07V204.177ZM1057.22 204.177H1053.31V203.453H1057.22V204.177ZM1050.38 204.177H1046.46V203.453H1050.38V204.177ZM1043.53 204.177H1039.62V203.453H1043.53V204.177ZM1036.68 204.177H1032.77V203.453H1036.68V204.177ZM1029.83 204.177H1025.92V203.453H1029.83V204.177ZM1022.99 204.177H1019.07V203.453H1022.99V204.177ZM1016.14 204.177H1012.23V203.453H1016.14V204.177ZM1009.29 204.177H1005.39V203.453H1009.3L1009.29 204.177ZM1002.44 204.177H998.53V203.453H1002.44V204.177ZM995.591 204.177H991.68V203.453H995.591V204.177ZM988.752 204.177H984.841V203.453H988.752V204.177ZM981.902 204.177H977.991V203.453H981.902V204.177ZM975.053 204.177H971.142V203.453H975.053V204.177ZM968.204 204.177H964.292V203.453H968.204V204.177Z" fill="#FFCC00"/>
<path d="M961.364 204.177H959.071V201.88H959.794V203.453H961.364V204.177Z" fill="#FFCC00"/>
<path d="M959.794 199.091H959.071V195.338H959.794V199.091ZM959.794 192.588H959.071V188.873H959.794V192.588ZM959.794 186.084H959.071V182.359H959.794V186.084ZM959.794 179.57H959.071V175.855H959.794V179.57ZM959.794 173.067H959.071V169.342H959.794V173.067ZM959.794 166.553H959.071V162.838H959.794V166.553ZM959.794 160.049H959.071V156.334H959.794V160.049ZM959.794 153.545H959.071V149.821H959.794V153.545ZM959.794 147.032H959.071V143.317H959.794V147.032Z" fill="#FFCC00"/>
<path d="M959.794 140.528H959.071V138.232H961.364V138.955H959.794V140.528Z" fill="#FFCC00"/>
<path d="M1112 138.955H1108.08V138.232H1112V138.955ZM1105.15 138.955H1101.24V138.232H1105.15V138.955ZM1098.3 138.955H1094.39V138.232H1098.3V138.955ZM1091.45 138.955H1087.54V138.232H1091.45V138.955ZM1084.6 138.955H1080.69V138.232H1084.6V138.955ZM1077.76 138.955H1073.85V138.232H1077.76V138.955ZM1070.92 138.955H1067.04V138.232H1070.9L1070.92 138.955ZM1064.07 138.955H1060.15V138.232H1064.07V138.955ZM1057.22 138.955H1053.31V138.232H1057.22V138.955ZM1050.38 138.955H1046.46V138.232H1050.38V138.955ZM1043.53 138.955H1039.62V138.232H1043.53V138.955ZM1036.68 138.955H1032.77V138.232H1036.68V138.955ZM1029.83 138.955H1025.92V138.232H1029.83V138.955ZM1022.98 138.955H1019.07V138.232H1022.98V138.955ZM1016.14 138.955H1012.23V138.232H1016.14V138.955ZM1009.29 138.955H1005.39V138.232H1009.3L1009.29 138.955ZM1002.44 138.955H998.53V138.232H1002.44V138.955ZM995.591 138.955H991.68V138.232H995.591V138.955ZM988.752 138.955H984.831V138.232H988.752V138.955ZM981.902 138.955H977.991V138.232H981.902V138.955ZM975.053 138.955H971.142V138.232H975.053V138.955ZM968.204 138.955H964.292V138.232H968.204V138.955Z" fill="#FFCC00"/>
<path d="M1117.22 140.528H1116.5V138.955H1114.93V138.232H1117.22V140.528Z" fill="#FFCC00"/>
<path d="M1117.22 199.091H1116.5V195.338H1117.22V199.091ZM1117.22 192.588H1116.5V188.873H1117.22V192.588ZM1117.22 186.084H1116.5V182.359H1117.22V186.084ZM1117.22 179.57H1116.5V175.855H1117.22V179.57ZM1117.22 173.067H1116.5V169.342H1117.22V173.067ZM1117.22 166.553H1116.5V162.838H1117.22V166.553ZM1117.22 160.049H1116.5V156.334H1117.22V160.049ZM1117.22 153.545H1116.5V149.821H1117.22V153.545ZM1117.22 147.032H1116.5V143.317H1117.22V147.032Z" fill="#FFCC00"/>
<path d="M968.04 194.103H1013.77V148.296H968.04V194.103Z" fill="#FFCC00"/>
<path opacity="0.1" d="M974.562 158.93C974.389 159.805 974.501 160.713 974.882 161.519C975.263 162.325 975.893 162.987 976.679 163.407C977.464 163.827 978.364 163.983 979.244 163.852C980.125 163.721 980.941 163.31 981.57 162.679C982.2 162.049 982.611 161.232 982.741 160.349C982.872 159.467 982.716 158.566 982.297 157.779C981.877 156.992 981.216 156.362 980.412 155.98C979.607 155.598 978.701 155.485 977.827 155.659C977.021 155.82 976.281 156.217 975.7 156.799C975.119 157.381 974.723 158.123 974.562 158.93Z" fill="black"/>
<g opacity="0.2">
<path d="M983.126 181.413H1013.77L998.443 162.491L983.126 181.413Z" fill="black"/>
</g>
<path d="M968.04 181.423H995.216L981.623 169.11L968.04 181.423Z" fill="#FFCC00"/>
<g opacity="0.1">
<path d="M968.04 181.423H995.216L981.623 169.11L968.04 181.423Z" fill="black"/>
</g>
<path d="M1013.77 181.423H968.04V194.103H1013.77V181.423Z" fill="#FFCC00"/>
<g opacity="0.1">
<path d="M1013.77 181.423H968.04V194.103H1013.77V181.423Z" fill="black"/>
</g>
<path d="M1107.39 148.46H1019.89V150.062H1107.39V148.46Z" fill="#EBEBEB"/>
<path d="M1107.39 157.203H1019.89V158.804H1107.39V157.203Z" fill="#EBEBEB"/>
<path d="M1107.39 161.854H1019.89V163.456H1107.39V161.854Z" fill="#EBEBEB"/>
<path d="M1107.39 166.505H1019.89V168.107H1107.39V166.505Z" fill="#EBEBEB"/>
<path d="M1107.39 175.807H1019.89V177.409H1107.39V175.807Z" fill="#EBEBEB"/>
<path d="M1107.39 180.458H1019.89V182.06H1107.39V180.458Z" fill="#EBEBEB"/>
<path d="M1107.39 185.109H1019.89V186.711H1107.39V185.109Z" fill="#EBEBEB"/>
<path d="M1068.68 189.77H1019.89V191.372H1068.68V189.77Z" fill="#EBEBEB"/>
<path d="M996.622 211.491H923.659V284.577H996.622V211.491Z" fill="white"/>
<path d="M996.988 284.934H994.696V284.21H996.266V282.647H996.988V284.934Z" fill="#FFCC00"/>
<path d="M991.902 284.934H988.049V284.21H991.902V284.934ZM985.274 284.934H981.488V284.21H985.274V284.934ZM978.646 284.934H974.86V284.21H978.646V284.934ZM972.019 284.934H968.233V284.21H972.019V284.934ZM965.391 284.934H961.605V284.21H965.391V284.934ZM958.763 284.934H954.977V284.21H958.763V284.934ZM952.135 284.934H948.349V284.21H952.135V284.934ZM945.507 284.934H941.721V284.21H945.507V284.934ZM938.88 284.934H935.065V284.21H938.851L938.88 284.934ZM932.252 284.934H928.427V284.21H932.175L932.252 284.934Z" fill="#FFCC00"/>
<path d="M925.585 284.934H923.302V282.647H924.025V284.21H925.585V284.934Z" fill="#FFCC00"/>
<path d="M924.025 279.8H923.302V276.008H924.025V279.8ZM924.025 273.162H923.302V269.369H924.025V273.162ZM924.025 266.523H923.302V262.73H924.025V266.523ZM924.025 259.884H923.302V256.13H924.025V259.884ZM924.025 253.245H923.302V249.453H924.025V253.245ZM924.025 246.606H923.302V242.814H924.025V246.606ZM924.025 239.967H923.302V236.175H924.025V239.967ZM924.025 233.328H923.302V229.536H924.025V233.328ZM924.025 226.689H923.302V222.897H924.025V226.689ZM924.025 220.06H923.302V216.258H924.025V220.06Z" fill="#FFCC00"/>
<path d="M924.025 213.421H923.302V211.125H925.585V211.848H924.025V213.421Z" fill="#FFCC00"/>
<path d="M991.902 211.848H988.049V211.125H991.902V211.848ZM985.274 211.848H981.488V211.125H985.274V211.848ZM978.646 211.848H974.86V211.125H978.646V211.848ZM972.019 211.848H968.233V211.125H972.019V211.848ZM965.391 211.848H961.605V211.125H965.391V211.848ZM958.763 211.848H954.977V211.125H958.763V211.848ZM952.135 211.848H948.349V211.125H952.135V211.848ZM945.507 211.848H941.721V211.125H945.507V211.848ZM938.88 211.848H935.065V211.125H938.851L938.88 211.848ZM932.252 211.848H928.427V211.125H932.175L932.252 211.848Z" fill="#FFCC00"/>
<path d="M996.988 213.421H996.266V211.848H994.696V211.125H996.988V213.421Z" fill="#FFCC00"/>
<path d="M996.988 279.8H996.266V276.008H996.988V279.8ZM996.988 273.162H996.266V269.369H996.988V273.162ZM996.988 266.523H996.266V262.73H996.988V266.523ZM996.988 259.884H996.266V256.13H996.988V259.884ZM996.988 253.245H996.266V249.453H996.988V253.245ZM996.988 246.606H996.266V242.814H996.988V246.606ZM996.988 239.967H996.266V236.175H996.988V239.967ZM996.988 233.328H996.266V229.536H996.988V233.328ZM996.988 226.689H996.266V222.897H996.988V226.689ZM996.988 220.06H996.266V216.258H996.988V220.06Z" fill="#FFCC00"/>
<path d="M926.51 208.645H920.826V214.338H926.51V208.645Z" fill="#FFCC00"/>
<path d="M962.992 208.645H957.308V214.338H962.992V208.645Z" fill="#FFCC00"/>
<path d="M999.474 208.645H993.79V214.338H999.474V208.645Z" fill="#FFCC00"/>
<path d="M926.51 281.731H920.826V287.424H926.51V281.731Z" fill="#FFCC00"/>
<path d="M962.992 281.731H957.308V287.424H962.992V281.731Z" fill="#FFCC00"/>
<path d="M999.474 281.731H993.79V287.424H999.474V281.731Z" fill="#FFCC00"/>
<path d="M926.51 245.188H920.826V250.881H926.51V245.188Z" fill="#FFCC00"/>
<path d="M999.474 245.188H993.79V250.881H999.474V245.188Z" fill="#FFCC00"/>
<path d="M988.01 220.118H932.28V275.941H988.01V220.118Z" fill="#336ACC"/>
<path d="M952.251 254.876V241.183L968.04 249.742L952.251 254.876Z" fill="white"/>
<path d="M1052.48 294.593H959.293V306.289H1052.48V294.593Z" fill="#FFCC00"/>
<path d="M1052.24 306.25H959.543V409.558H1052.24V306.25Z" fill="white"/>
<path d="M1052.59 409.915H1048.37V409.191H1051.87V409.027H1052.59V409.915ZM1045.48 409.915H1041.63V409.191H1045.48V409.915ZM1038.74 409.915H1034.89V409.191H1038.74V409.915ZM1032 409.915H1028.14V409.191H1032V409.915ZM1025.25 409.915H1021.4V409.191H1025.25V409.915ZM1018.51 409.915H1014.66V409.191H1018.51V409.915ZM1011.77 409.915H1007.91V409.191H1011.77V409.915ZM1005.02 409.915H1001.17V409.191H1005.02V409.915ZM998.279 409.915H994.426V409.191H998.279V409.915ZM991.536 409.915H987.682V409.191H991.536V409.915ZM984.792 409.915H980.939V409.191H984.792V409.915ZM978.049 409.915H974.196V409.191H978.049V409.915ZM971.306 409.915H967.452V409.191H971.306V409.915ZM964.562 409.915H960.709V409.191H964.562V409.915ZM959.9 407.831H959.148V403.971H959.871L959.9 407.831ZM1052.59 406.133H1051.87V402.273H1052.59V406.133ZM959.9 401.076H959.148V397.216H959.871L959.9 401.076ZM1052.59 399.378H1051.87V395.518H1052.59V399.378ZM959.9 394.321H959.148V390.462H959.871L959.9 394.321ZM1052.59 392.623H1051.87V388.763H1052.59V392.623ZM959.9 387.567H959.148V383.707H959.871L959.9 387.567ZM1052.59 385.868H1051.87V382.009H1052.59V385.868ZM959.9 380.812H959.148V376.952H959.871L959.9 380.812ZM1052.59 379.114H1051.87V375.254H1052.59V379.114ZM959.9 374.057H959.148V370.198H959.871L959.9 374.057ZM1052.59 372.359H1051.87V368.499H1052.59V372.359ZM959.9 367.303H959.148V363.443H959.871L959.9 367.303ZM1052.59 365.604H1051.87V361.745H1052.59V365.604ZM959.9 360.548H959.148V356.688H959.871L959.9 360.548ZM1052.59 358.85H1051.87V354.99H1052.59V358.85ZM959.9 353.793H959.148V349.933H959.871L959.9 353.793ZM1052.59 352.095H1051.87V348.235H1052.59V352.095ZM959.9 347.039H959.148V343.179H959.871L959.9 347.039ZM1052.59 345.34H1051.87V341.48H1052.59V345.34ZM959.9 340.284H959.148V336.424H959.871L959.9 340.284ZM1052.59 338.586H1051.87V334.726H1052.59V338.586ZM959.9 333.529H959.148V329.669H959.871L959.9 333.529ZM1052.59 331.831H1051.87V327.971H1052.59V331.831ZM959.9 326.774H959.148V322.915H959.871L959.9 326.774ZM1052.59 325.076H1051.87V321.216H1052.59V325.076ZM959.9 320.02H959.148V316.16H959.871L959.9 320.02ZM1052.59 318.321H1051.87V314.462H1052.59V318.321ZM959.9 313.265H959.148V309.405H959.871L959.9 313.265ZM1052.59 311.567H1051.87V307.707H1052.59V311.567ZM1050.79 306.617H1046.94V305.893H1050.79V306.617ZM1044.05 306.617H1040.19V305.893H1044.05V306.617ZM1037.3 306.617H1033.45V305.893H1037.3V306.617ZM1030.56 306.617H1026.71V305.893H1030.56V306.617ZM1023.82 306.617H1019.96V305.893H1023.82V306.617ZM1017.07 306.617H1013.22V305.893H1017.07V306.617ZM1010.33 306.617H1006.48V305.893H1010.33V306.617ZM1003.59 306.617H999.734V305.893H1003.59V306.617ZM996.844 306.617H992.99V305.893H996.844V306.617ZM990.1 306.617H986.247V305.893H990.1V306.617ZM983.357 306.617H979.504V305.893H983.357V306.617ZM976.614 306.617H972.76V305.893H976.614V306.617ZM969.87 306.617H966.017V305.893H969.87V306.617ZM963.127 306.617H959.534V306.51H959.148V305.893H963.098L963.127 306.617Z" fill="#FFCC00"/>
<path d="M1052.5 409.722H959.293V306.076H1052.5V409.722ZM959.804 409.385H1051.98V306.424H959.804V409.385Z" fill="#DBDBDB"/>
<path d="M959.784 409.616L959.302 409.491L1052 306.192L1052.48 306.317L959.784 409.616Z" fill="#DBDBDB"/>
<path d="M1052 409.616L959.302 306.317L959.784 306.192L1052.48 409.491L1052 409.616Z" fill="#DBDBDB"/>
</g>
<defs>
<linearGradient id="paint0_linear_2023_39267" x1="180" y1="360" x2="180" y2="1726" gradientUnits="userSpaceOnUse">
<stop offset="0.4" stop-color="#101E37"/>
<stop offset="0.697621" stop-color="#101E37" stop-opacity="0.5"/>
<stop offset="1" stop-color="#101E37" stop-opacity="0"/>
</linearGradient>
<clipPath id="clip0_2023_39267">
<rect width="1366" height="324" fill="white"/>
</clipPath>
</defs>
</svg>
