<svg width="526" height="298" viewBox="0 0 526 298" fill="none" xmlns="http://www.w3.org/2000/svg">
<rect width="526" height="297.219" rx="8" fill="#FFD499"/>
<g filter="url(#filter0_d_2391_20913)">
<path d="M166.785 189.884H28.874V278.846H166.785V189.884Z" fill="white" fill-opacity="0.5"/>
<path d="M167.659 279.73H28V189H167.659V279.73ZM29.7485 277.962H165.98V190.768H29.7485V277.962Z" fill="#E6EAF0"/>
<path d="M166.785 189.884H28.874V206.708H166.785V189.884Z" fill="#FFDB2E"/>
<path d="M167.659 207.592H28V189H167.659V207.592ZM29.7485 205.824H165.98V190.768H29.7485V205.824Z" fill="#E6EAF0"/>
<path d="M44.5001 198.415C44.5001 199.248 44.2559 200.061 43.7985 200.754C43.341 201.446 42.6908 201.986 41.9301 202.304C41.1694 202.623 40.3323 202.706 39.5248 202.544C38.7172 202.381 37.9754 201.98 37.3932 201.392C36.811 200.803 36.4145 200.053 36.2538 199.236C36.0932 198.42 36.1756 197.573 36.4907 196.804C36.8058 196.035 37.3394 195.377 38.0241 194.915C38.7087 194.452 39.5136 194.205 40.337 194.205C41.4411 194.205 42.5 194.649 43.2807 195.438C44.0615 196.228 44.5001 197.299 44.5001 198.415Z" fill="#9EAAB8"/>
<path d="M61.5968 198.415C61.5968 199.248 61.3526 200.061 60.8952 200.754C60.4377 201.446 59.7875 201.986 59.0268 202.304C58.2661 202.623 57.429 202.706 56.6215 202.544C55.8139 202.381 55.0721 201.98 54.4899 201.392C53.9076 200.803 53.5111 200.053 53.3505 199.236C53.1899 198.42 53.2723 197.573 53.5874 196.804C53.9025 196.035 54.4361 195.377 55.1207 194.915C55.8054 194.452 56.6102 194.205 57.4336 194.205C58.5378 194.205 59.5967 194.649 60.3774 195.438C61.1582 196.228 61.5968 197.299 61.5968 198.415Z" fill="#E6EAF0"/>
<path d="M78.693 198.415C78.693 199.248 78.4488 200.061 77.9914 200.754C77.5339 201.446 76.8837 201.986 76.123 202.304C75.3623 202.623 74.5252 202.706 73.7177 202.544C72.9101 202.381 72.1683 201.98 71.5861 201.392C71.0038 200.803 70.6073 200.053 70.4467 199.236C70.2861 198.42 70.3685 197.573 70.6836 196.804C70.9987 196.035 71.5323 195.377 72.2169 194.915C72.9016 194.452 73.7065 194.205 74.5299 194.205C75.634 194.205 76.6929 194.649 77.4736 195.438C78.2544 196.228 78.693 197.299 78.693 198.415Z" fill="white"/>
<path d="M83.6386 250.508C83.8901 250.762 84.0896 251.064 84.2257 251.396C84.3618 251.728 84.4318 252.084 84.4318 252.444C84.4318 252.804 84.3618 253.16 84.2257 253.492C84.0896 253.824 83.8901 254.126 83.6386 254.38C83.1336 254.868 82.4637 255.144 81.7651 255.15C81.0404 255.152 80.3417 254.877 79.8092 254.38L67.858 242.119C67.7242 242.119 67.683 241.994 67.6418 241.858C67.6042 241.825 67.5627 241.797 67.5183 241.775C67.4538 241.67 67.4085 241.553 67.3845 241.432C67.3516 241.414 67.3232 241.389 67.3018 241.358C67.2803 241.327 67.2663 241.292 67.2609 241.255C67.2609 241.171 67.2609 241.046 67.1786 240.994C67.0962 240.942 67.0859 240.828 67.0859 240.786V240.484C67.0859 240.401 67.0859 240.349 67.0859 240.224C67.0859 240.099 67.0859 240.058 67.0859 240.006V239.704C67.0859 239.62 67.1786 239.579 67.1786 239.537C67.1786 239.496 67.1786 239.319 67.2609 239.194C67.3433 239.069 67.2609 239.194 67.2609 239.11C67.3202 238.972 67.3926 238.839 67.4771 238.715C67.4771 238.693 67.4858 238.672 67.5012 238.656C67.5167 238.64 67.5376 238.632 67.5595 238.632C67.6167 238.509 67.7057 238.405 67.8168 238.33L79.8092 226.068C80.3258 225.572 81.0113 225.295 81.7239 225.295C82.4366 225.295 83.122 225.572 83.6386 226.068C83.8901 226.322 84.0896 226.624 84.2257 226.956C84.3618 227.289 84.4318 227.645 84.4318 228.004C84.4318 228.364 84.3618 228.72 84.2257 229.052C84.0896 229.384 83.8901 229.686 83.6386 229.94L73.5608 240.224L83.6386 250.508Z" fill="#FFAA33"/>
<path d="M94.4886 251.882L104.906 226.765C105.153 226.187 105.616 225.73 106.195 225.496C106.774 225.262 107.421 225.269 107.994 225.516C108.552 225.761 108.991 226.22 109.215 226.791C109.439 227.363 109.429 228.001 109.188 228.566L98.7812 253.734C98.5966 254.158 98.2936 254.517 97.9095 254.769C97.5255 255.02 97.0771 255.153 96.6195 255.15C96.3262 255.157 96.0349 255.1 95.7651 254.983C95.4752 254.871 95.2109 254.699 94.9883 254.48C94.7657 254.261 94.5894 253.999 94.4701 253.709C94.3508 253.419 94.2909 253.107 94.2941 252.793C94.2973 252.479 94.3634 252.169 94.4886 251.882Z" fill="#FFAA33"/>
<path d="M129.797 241.775C129.711 241.888 129.61 241.99 129.498 242.077L117.506 254.38C116.988 254.874 116.303 255.149 115.591 255.149C114.879 255.149 114.194 254.874 113.677 254.38C113.425 254.126 113.226 253.824 113.089 253.492C112.953 253.16 112.883 252.804 112.883 252.444C112.883 252.085 112.953 251.728 113.089 251.396C113.226 251.064 113.425 250.762 113.677 250.508L123.754 240.224L113.677 229.94C113.425 229.686 113.226 229.384 113.089 229.052C112.953 228.72 112.883 228.364 112.883 228.004C112.883 227.645 112.953 227.289 113.089 226.957C113.226 226.624 113.425 226.323 113.677 226.068C114.193 225.572 114.879 225.295 115.591 225.295C116.304 225.295 116.989 225.572 117.506 226.068L129.457 238.33C129.569 238.417 129.669 238.519 129.756 238.632V238.715C129.839 238.84 129.911 238.973 129.972 239.111C129.972 239.111 129.972 239.111 129.972 239.194C130 239.328 130.045 239.457 130.106 239.579C130.106 239.579 130.106 239.579 130.106 239.704V240.006C130.106 240.006 130.106 240.183 130.106 240.224C130.106 240.266 130.106 240.401 130.106 240.443V240.786C130.106 240.786 130.106 240.786 130.106 240.87C130.052 240.995 130.008 241.123 129.972 241.255C129.972 241.255 129.972 241.255 129.972 241.39C129.972 241.525 129.89 241.598 129.797 241.775Z" fill="#FFAA33"/>
</g>
<path fill-rule="evenodd" clip-rule="evenodd" d="M397.969 103.494L397.528 109.072C394.676 109.624 391.944 110.724 389.493 112.326L385.023 108.514L379.591 113.925L383.343 118.299C382.438 119.6 381.67 120.999 381.056 122.476C380.561 123.667 380.172 124.893 379.891 126.14L374 126.594V134.252L379.647 134.687C379.686 134.927 379.73 135.166 379.778 135.405C380.307 138.056 381.311 140.574 382.728 142.847L379.037 147.141L384.47 152.552L388.539 149.094C390.993 150.884 393.795 152.165 396.779 152.848L397.188 158.122H404.876L405.262 153.151C407.019 152.878 408.746 152.398 410.406 151.713C411.66 151.195 412.859 150.568 413.99 149.841L417.814 153.103L423.247 147.691L420.103 144.026C420.233 143.843 420.361 143.658 420.487 143.471C422.132 141.019 423.266 138.278 423.839 135.413L428.837 135.021V127.371L423.902 126.984C423.617 125.442 423.17 123.93 422.565 122.475C421.976 121.059 421.245 119.711 420.384 118.45L423.8 114.475L418.368 109.063L414.363 112.479C413.122 111.646 411.797 110.937 410.407 110.363C409.011 109.788 407.564 109.355 406.088 109.07L405.648 103.494H397.969ZM401.809 141.486C399.733 141.486 397.704 140.872 395.978 139.723C394.252 138.574 392.907 136.941 392.113 135.03C391.319 133.12 391.112 131.017 391.517 128.989C391.923 126.961 392.923 125.098 394.392 123.636C395.86 122.175 397.731 121.18 399.767 120.777C401.803 120.375 403.913 120.583 405.831 121.375C407.748 122.168 409.387 123.509 410.539 125.229C411.691 126.949 412.305 128.971 412.304 131.039C412.304 132.412 412.032 133.771 411.505 135.039C410.977 136.307 410.204 137.459 409.23 138.429C408.255 139.399 407.098 140.168 405.825 140.693C404.552 141.217 403.187 141.487 401.809 141.486Z" fill="#FFEACC"/>
<path fill-rule="evenodd" clip-rule="evenodd" d="M449.969 92L449.528 97.5781C446.676 98.1298 443.944 99.2303 441.493 100.832L437.023 97.0195L431.591 102.431L435.343 106.804C434.438 108.105 433.67 109.505 433.056 110.982C432.561 112.173 432.172 113.399 431.891 114.646L426 115.1V122.758L431.647 123.193C431.686 123.432 431.73 123.672 431.778 123.911C432.307 126.561 433.311 129.08 434.728 131.353L431.037 135.646L436.47 141.058L440.539 137.6C442.993 139.39 445.795 140.671 448.779 141.354L449.188 146.628H456.876L457.262 141.656C459.019 141.384 460.746 140.904 462.406 140.219C463.66 139.701 464.86 139.074 465.99 138.347L469.814 141.609L475.247 136.197L472.103 132.531C472.234 132.349 472.362 132.164 472.487 131.977C474.132 129.524 475.266 126.784 475.839 123.919L480.837 123.527V115.877L475.902 115.49C475.617 113.948 475.17 112.436 474.565 110.981C473.976 109.565 473.245 108.217 472.384 106.956L475.8 102.981L470.368 97.5693L466.363 100.985C465.122 100.152 463.797 99.4424 462.407 98.8693C461.011 98.2936 459.564 97.8612 458.088 97.5764L457.648 92H449.969ZM453.809 129.992C451.733 129.992 449.704 129.378 447.978 128.229C446.252 127.08 444.907 125.447 444.113 123.536C443.319 121.625 443.112 119.523 443.517 117.495C443.923 115.467 444.923 113.604 446.392 112.142C447.86 110.681 449.731 109.686 451.767 109.283C453.803 108.881 455.913 109.089 457.831 109.881C459.748 110.674 461.387 112.015 462.539 113.735C463.691 115.455 464.305 117.477 464.304 119.545C464.304 120.918 464.032 122.277 463.505 123.545C462.977 124.813 462.204 125.965 461.23 126.935C460.255 127.905 459.098 128.674 457.825 129.199C456.552 129.723 455.187 129.993 453.809 129.992Z" fill="#FFEACC"/>
<path fill-rule="evenodd" clip-rule="evenodd" d="M89.7644 65L89.2729 71.2288C86.0875 71.8449 83.0376 73.0738 80.2997 74.862L75.3085 70.605L69.2424 76.648L73.4325 81.5315C72.4225 82.9843 71.5651 84.5469 70.8794 86.196C70.3263 87.5261 69.8921 88.8952 69.5786 90.2874L63 90.7942V99.3455L69.3054 99.8311C69.3499 100.099 69.3987 100.366 69.452 100.633C70.043 103.593 71.1638 106.405 72.7458 108.943L68.6246 113.738L74.6908 119.781L79.2349 115.919C81.9754 117.918 85.1043 119.348 88.4354 120.111L88.8931 126H97.4773L97.9087 120.449C99.8704 120.145 101.799 119.608 103.652 118.844C105.054 118.265 106.392 117.565 107.655 116.753L111.925 120.395L117.991 114.352L114.481 110.259C114.627 110.055 114.77 109.849 114.909 109.64C116.747 106.901 118.013 103.842 118.653 100.642L124.233 100.205V91.6621L118.723 91.23C118.405 89.5081 117.905 87.8201 117.23 86.1946C116.573 84.6137 115.756 83.1081 114.795 81.7002L118.609 77.2618L112.543 71.2189L108.071 75.0329C106.685 74.1026 105.206 73.3105 103.654 72.6705C102.095 72.0277 100.479 71.5448 98.8312 71.2268L98.3398 65H89.7644ZM94.0534 107.423C91.7353 107.423 89.4693 106.738 87.542 105.455C85.6148 104.172 84.1128 102.348 83.2261 100.215C82.3394 98.0811 82.1078 95.7335 82.5607 93.4688C83.0136 91.2041 84.1305 89.1241 85.7703 87.4918C87.41 85.8596 89.4989 84.7485 91.7726 84.299C94.0464 83.8496 96.4029 84.082 98.544 84.9669C100.685 85.8518 102.515 87.3494 103.801 89.2703C105.088 91.1912 105.774 93.449 105.772 95.7582C105.772 97.2908 105.469 98.8084 104.88 100.224C104.291 101.64 103.427 102.926 102.339 104.01C101.251 105.093 99.9589 105.952 98.5372 106.538C97.1155 107.123 95.5919 107.424 94.0534 107.423Z" fill="#FFEACC"/>
<g filter="url(#filter1_d_2391_20913)">
<g filter="url(#filter2_d_2391_20913)">
<rect x="429" y="226" width="50" height="50" rx="8" fill="#002733"/>
</g>
<path fill-rule="evenodd" clip-rule="evenodd" d="M453.972 237.111C446.32 237.111 440.111 243.306 440.111 250.959C440.111 256.931 443.931 262.222 449.584 264.111C450.278 264.236 450.528 263.806 450.528 263.445C450.528 263.111 450.528 262.25 450.514 261.084C446.653 261.917 445.847 259.222 445.847 259.222C445.597 258.389 445.042 257.667 444.306 257.195C443.042 256.334 444.403 256.361 444.403 256.361C445.292 256.486 446.07 257.014 446.528 257.792C447.32 259.222 449.111 259.736 450.528 258.959C450.528 258.959 450.542 258.959 450.556 258.959C450.625 258.25 450.931 257.597 451.445 257.111C448.375 256.764 445.139 255.57 445.139 250.264C445.125 248.889 445.625 247.556 446.57 246.542C446.153 245.347 446.195 244.042 446.709 242.875C446.709 242.875 447.875 242.5 450.514 244.292C452.778 243.667 455.181 243.667 457.445 244.292C460.097 242.5 461.25 242.875 461.25 242.875C461.764 244.028 461.82 245.347 461.389 246.542C462.32 247.556 462.834 248.875 462.806 250.264C462.806 255.584 459.57 256.764 456.486 257.097C457.153 257.778 457.5 258.709 457.431 259.667C457.431 261.514 457.417 263.014 457.417 263.472C457.417 263.847 457.667 264.278 458.375 264.139C465.639 261.722 469.556 253.875 467.125 246.611C465.236 240.931 459.945 237.111 453.972 237.111Z" fill="white"/>
</g>
<g filter="url(#filter3_d_2391_20913)">
<path d="M392.276 50.7949H141.529V256.714H392.276V50.7949Z" fill="white"/>
<path d="M393.229 257.681H140.576V49.8555H393.229V257.681ZM142.482 255.775H391.322V51.7466H142.482V255.775Z" fill="#E6EAF0"/>
<path d="M392.276 50.7949H141.529V68.9345H392.276V50.7949Z" fill="#336ACC"/>
<path d="M393.229 69.8861H140.576V49.8555H393.229V69.8861ZM142.482 67.9799H391.322V51.7466H142.482V67.9799Z" fill="#E6EAF0"/>
<path d="M158.549 60.0079C158.549 60.9056 158.283 61.7831 157.784 62.5295C157.285 63.2758 156.577 63.8576 155.747 64.2011C154.918 64.5446 154.005 64.6345 153.125 64.4594C152.244 64.2842 151.436 63.852 150.801 63.2172C150.166 62.5825 149.734 61.7738 149.559 60.8934C149.384 60.0129 149.474 59.1004 149.817 58.271C150.161 57.4417 150.742 56.7329 151.489 56.2341C152.235 55.7354 153.113 55.4692 154.01 55.4692C155.214 55.4692 156.369 55.9474 157.22 56.7986C158.071 57.6497 158.549 58.8042 158.549 60.0079Z" fill="#9EAAB8"/>
<path d="M177.188 60.0079C177.188 60.9056 176.922 61.7831 176.423 62.5295C175.924 63.2758 175.215 63.8576 174.386 64.2011C173.557 64.5446 172.644 64.6345 171.764 64.4594C170.883 64.2842 170.074 63.852 169.44 63.2172C168.805 62.5825 168.373 61.7738 168.198 60.8934C168.022 60.0129 168.112 59.1004 168.456 58.271C168.799 57.4417 169.381 56.7329 170.127 56.2341C170.874 55.7354 171.751 55.4692 172.649 55.4692C173.853 55.4692 175.007 55.9474 175.858 56.7986C176.71 57.6497 177.188 58.8042 177.188 60.0079Z" fill="#B8C1CC"/>
<path d="M195.842 60.0079C195.842 60.9056 195.576 61.7831 195.077 62.5295C194.578 63.2758 193.87 63.8576 193.04 64.2011C192.211 64.5446 191.298 64.6345 190.418 64.4594C189.537 64.2842 188.729 63.852 188.094 63.2172C187.459 62.5825 187.027 61.7738 186.852 60.8934C186.677 60.0129 186.767 59.1004 187.11 58.271C187.454 57.4417 188.035 56.7329 188.782 56.2341C189.528 55.7354 190.406 55.4692 191.303 55.4692C192.507 55.4692 193.661 55.9474 194.513 56.7986C195.364 57.6497 195.842 58.8042 195.842 60.0079Z" fill="white"/>
<path d="M170.682 105.016H160.984V108.556H170.682V105.016Z" fill="#B8C1CC"/>
<path d="M288.99 105.016H177.747V108.556H288.99V105.016Z" fill="#B8C1CC"/>
<path d="M313.362 105.016H294.95V108.556H313.362V105.016Z" fill="#101E37"/>
<path d="M355.497 152.415H337.07V155.955H355.497V152.415Z" fill="#B8C1CC"/>
<path d="M349.218 105.016H317.372V108.556H349.218V105.016Z" fill="#9EAAB8"/>
<path d="M180.38 114.502H170.682V118.042H180.38V114.502Z" fill="#B8C1CC"/>
<path d="M260.2 114.502H187.203V118.042H260.2V114.502Z" fill="#9EAAB8"/>
<path d="M332.698 152.415H289.958V155.955H332.698V152.415Z" fill="#9EAAB8"/>
<path d="M247.476 142.945H177.747V146.485H247.476V142.945Z" fill="#9EAAB8"/>
<path d="M236.114 123.973H187.203V127.513H236.114V123.973Z" fill="#101E37"/>
<path d="M325.92 133.459H307.266V136.999H325.92V133.459Z" fill="#9EAAB8"/>
<path d="M319.657 123.973H241.547V127.513H319.657V123.973Z" fill="#9EAAB8"/>
<path d="M270.986 152.415H177.747V155.955H270.986V152.415Z" fill="#101E37"/>
<path d="M365.845 114.502H315.315V118.042H365.845V114.502Z" fill="#101E37"/>
<path d="M311.306 114.502H264.784V118.042H311.306V114.502Z" fill="#B8C1CC"/>
<path d="M354.725 123.973H323.333V127.513H354.725V123.973Z" fill="#B8C1CC"/>
<path d="M180.38 123.973H170.682V127.513H180.38V123.973Z" fill="#B8C1CC"/>
<path d="M170.682 133.459H160.984V136.999H170.682V133.459Z" fill="#9EAAB8"/>
<path d="M235.055 133.459H177.747V136.999H235.055V133.459Z" fill="#B8C1CC"/>
<path d="M244.511 161.902H187.203V165.442H244.511V161.902Z" fill="#B8C1CC"/>
<path d="M337.646 171.386H294.075V174.927H337.646V171.386Z" fill="#101E37"/>
<path d="M306.646 161.902H249.171V165.442H306.646V161.902Z" fill="#101E37"/>
<path d="M289.065 171.386H239.034V174.927H289.065V171.386Z" fill="#B8C1CC"/>
<path d="M203.799 171.386H187.203V174.927H203.799V171.386Z" fill="#9EAAB8"/>
<path d="M313.362 142.945H251.425V146.485H313.362V142.945Z" fill="#B8C1CC"/>
<path d="M356.783 142.945H317.372V146.485H356.783V142.945Z" fill="#101E37"/>
<path d="M302.743 133.459H240.881V136.999H302.743V133.459Z" fill="#101E37"/>
<path d="M170.682 142.945H160.984V146.485H170.682V142.945Z" fill="#B8C1CC"/>
<path d="M170.682 152.415H160.984V155.955H170.682V152.415Z" fill="#B8C1CC"/>
<path d="M180.38 161.902H170.682V165.442H180.38V161.902Z" fill="#9EAAB8"/>
<path d="M180.38 171.386H170.682V174.927H180.38V171.386Z" fill="#B8C1CC"/>
<path d="M170.682 179.315H160.984V182.855H170.682V179.315Z" fill="#B8C1CC"/>
<path d="M288.99 179.315H177.747V182.855H288.99V179.315Z" fill="#B8C1CC"/>
<path d="M180.38 188.8H170.682V192.34H180.38V188.8Z" fill="#B8C1CC"/>
<path d="M260.2 188.8H187.203V192.34H260.2V188.8Z" fill="#9EAAB8"/>
<path d="M247.476 217.243H177.747V220.783H247.476V217.243Z" fill="#9EAAB8"/>
<path d="M236.114 198.286H187.203V201.826H236.114V198.286Z" fill="#101E37"/>
<path d="M319.657 198.286H241.547V201.826H319.657V198.286Z" fill="#9EAAB8"/>
<path d="M270.986 226.714H177.747V230.254H270.986V226.714Z" fill="#101E37"/>
<path d="M365.845 188.8H315.315V192.34H365.845V188.8Z" fill="#101E37"/>
<path d="M311.306 188.8H264.784V192.34H311.306V188.8Z" fill="#B8C1CC"/>
<path d="M354.725 198.286H323.333V201.826H354.725V198.286Z" fill="#B8C1CC"/>
<path d="M180.38 198.286H170.682V201.826H180.38V198.286Z" fill="#B8C1CC"/>
<path d="M170.682 207.756H160.984V211.296H170.682V207.756Z" fill="#9EAAB8"/>
<path d="M235.055 207.756H177.747V211.296H235.055V207.756Z" fill="#B8C1CC"/>
<path d="M313.362 217.243H251.425V220.783H313.362V217.243Z" fill="#B8C1CC"/>
<path d="M302.743 207.756H240.881V211.296H302.743V207.756Z" fill="#101E37"/>
<path d="M170.682 217.243H160.984V220.783H170.682V217.243Z" fill="#B8C1CC"/>
<path d="M166.975 95.6962C167.133 95.855 167.222 96.0698 167.222 96.2938C167.222 96.5178 167.133 96.7326 166.975 96.8914C166.815 97.0458 166.6 97.132 166.378 97.132C166.155 97.132 165.941 97.0458 165.78 96.8914L162.043 93.0941C162.035 93.0695 162.035 93.043 162.043 93.0184C162.037 92.9834 162.037 92.9476 162.043 92.9125C162.037 92.8826 162.037 92.8517 162.043 92.8217V92.731C162.043 92.731 162.043 92.731 162.043 92.6402V92.5494C162.037 92.5144 162.037 92.4785 162.043 92.4435C162.043 92.4435 162.043 92.3376 162.043 92.3225C162.061 92.2822 162.094 92.2499 162.134 92.2317L165.871 88.4344C166.031 88.28 166.246 88.1937 166.468 88.1937C166.691 88.1937 166.905 88.28 167.066 88.4344C167.224 88.5931 167.313 88.808 167.313 89.032C167.313 89.2559 167.224 89.4708 167.066 89.6295L163.919 92.8066L166.975 95.6962Z" fill="#101E37"/>
<path d="M170.365 96.1207L173.632 88.3596C173.669 88.2712 173.723 88.1909 173.791 88.1233C173.859 88.0557 173.939 88.0021 174.028 87.9656C174.116 87.929 174.211 87.9103 174.307 87.9104C174.402 87.9105 174.497 87.9295 174.586 87.9663C174.674 88.003 174.754 88.0568 174.822 88.1246C174.889 88.1924 174.943 88.2729 174.98 88.3614C175.016 88.4499 175.035 88.5447 175.035 88.6404C175.035 88.7362 175.016 88.831 174.979 88.9194L171.711 96.6956C171.652 96.8269 171.557 96.9383 171.436 97.0162C171.315 97.0941 171.174 97.1352 171.03 97.1344C170.946 97.1555 170.857 97.1555 170.773 97.1344C170.674 97.1024 170.583 97.049 170.506 96.978C170.43 96.9069 170.37 96.82 170.331 96.7233C170.292 96.6265 170.275 96.5224 170.281 96.4183C170.287 96.3142 170.315 96.2126 170.365 96.1207Z" fill="#101E37"/>
<path d="M181.409 92.9892C181.387 93.0266 181.356 93.0579 181.318 93.08L177.582 96.8773C177.416 97.0289 177.201 97.115 176.976 97.1194C176.756 97.1171 176.545 97.0304 176.386 96.8773C176.228 96.7186 176.14 96.5037 176.14 96.2797C176.14 96.0558 176.228 95.8409 176.386 95.6821L179.533 92.4899L176.386 89.3129C176.228 89.1541 176.14 88.9393 176.14 88.7153C176.14 88.4913 176.228 88.2765 176.386 88.1177C176.547 87.9633 176.761 87.8771 176.984 87.8771C177.207 87.8771 177.421 87.9633 177.582 88.1177L181.318 91.9151C181.359 91.9332 181.391 91.9655 181.409 92.0058C181.44 92.0426 181.465 92.0833 181.485 92.1269C181.478 92.167 181.478 92.2078 181.485 92.2479V92.3387V92.5202C181.481 92.5604 181.481 92.601 181.485 92.6412L181.409 92.9892Z" fill="#101E37"/>
</g>
<g clip-path="url(#clip0_2391_20913)">
<path d="M426.235 40.6729H323.812V78.601H426.235V40.6729Z" fill="#2BAB98"/>
<path d="M338.594 67.4975V50.6742C338.594 50.2729 338.754 49.8881 339.037 49.6044C339.321 49.3207 339.706 49.1613 340.107 49.1613C340.313 49.1489 340.52 49.1789 340.714 49.2493C340.908 49.3198 341.086 49.4293 341.236 49.571C341.386 49.7127 341.506 49.8837 341.588 50.0735C341.669 50.2632 341.711 50.4676 341.711 50.6742V57.5124H349.094V50.6742C349.094 50.2729 349.253 49.8881 349.537 49.6044C349.821 49.3207 350.205 49.1613 350.607 49.1613C350.813 49.1489 351.019 49.1789 351.213 49.2493C351.408 49.3198 351.585 49.4293 351.736 49.571C351.886 49.7127 352.005 49.8837 352.087 50.0735C352.169 50.2632 352.211 50.4676 352.21 50.6742V67.4975C352.211 67.7041 352.169 67.9085 352.087 68.0982C352.005 68.288 351.886 68.459 351.736 68.6007C351.585 68.7424 351.408 68.8519 351.213 68.9224C351.019 68.9928 350.813 69.0228 350.607 69.0104C350.205 69.0104 349.821 68.851 349.537 68.5673C349.253 68.2836 349.094 67.8987 349.094 67.4975V60.6592H341.711V67.4975C341.711 67.7041 341.669 67.9085 341.588 68.0982C341.506 68.288 341.386 68.459 341.236 68.6007C341.086 68.7424 340.908 68.8519 340.714 68.9224C340.52 68.9928 340.313 69.0228 340.107 69.0104C339.706 69.0104 339.321 68.851 339.037 68.5673C338.754 68.2836 338.594 67.8987 338.594 67.4975Z" fill="white"/>
<path d="M370.999 52.2771H366.46V67.4967C366.46 67.914 366.295 68.3142 366 68.6093C365.704 68.9044 365.304 69.0701 364.887 69.0701C364.47 69.0701 364.069 68.9044 363.774 68.6093C363.479 68.3142 363.314 67.914 363.314 67.4967V52.2771H358.775C358.568 52.2774 358.364 52.2355 358.174 52.1539C357.984 52.0722 357.813 51.9526 357.672 51.8024C357.53 51.6521 357.421 51.4744 357.35 51.2803C357.28 51.0861 357.25 50.8796 357.262 50.6734C357.262 50.2722 357.421 49.8874 357.705 49.6036C357.989 49.3199 358.374 49.1605 358.775 49.1605H370.878C371.279 49.1605 371.664 49.3199 371.948 49.6036C372.231 49.8874 372.391 50.2722 372.391 50.6734C372.394 51.0645 372.255 51.4433 371.998 51.7386C371.742 52.0339 371.387 52.2254 370.999 52.2771Z" fill="white"/>
<path d="M394.435 50.6728V67.4961C394.408 67.9042 394.228 68.2871 393.93 68.5678C393.633 68.8484 393.24 69.006 392.831 69.009C392.43 69.009 392.045 68.8496 391.761 68.5659C391.477 68.2822 391.318 67.8973 391.318 67.4961V55.4989L387.203 61.2025C387.061 61.4072 386.871 61.5736 386.649 61.6871C386.427 61.8006 386.181 61.8576 385.932 61.853C385.677 61.8548 385.425 61.7969 385.197 61.6839C384.968 61.571 384.769 61.4061 384.616 61.2025L380.546 55.4989V67.4961C380.546 67.9154 380.38 68.3175 380.083 68.614C379.787 68.9105 379.385 69.0771 378.965 69.0771C378.546 69.0771 378.144 68.9105 377.847 68.614C377.551 68.3175 377.384 67.9154 377.384 67.4961V50.6728C377.384 50.2715 377.544 49.8867 377.827 49.603C378.111 49.3193 378.496 49.1599 378.897 49.1599H378.988C379.234 49.1578 379.478 49.216 379.697 49.3294C379.915 49.4428 380.103 49.6079 380.244 49.8104L385.917 57.6775L391.59 49.8104C391.734 49.6036 391.926 49.4358 392.151 49.3222C392.375 49.2086 392.625 49.1528 392.876 49.1599C393.277 49.1741 393.659 49.3367 393.947 49.6162C394.235 49.8958 394.409 50.2723 394.435 50.6728Z" fill="white"/>
<path d="M401.334 67.4967V50.6734C401.334 50.2721 401.493 49.8873 401.777 49.6036C402.061 49.3199 402.445 49.1605 402.847 49.1605C403.052 49.1502 403.256 49.1817 403.449 49.2532C403.641 49.3246 403.817 49.4344 403.966 49.5759C404.114 49.7174 404.232 49.8877 404.313 50.0764C404.394 50.265 404.435 50.4681 404.435 50.6734V65.893H412.166C412.587 65.893 412.991 66.0604 413.289 66.3583C413.587 66.6562 413.755 67.0602 413.755 67.4815C413.755 67.9029 413.587 68.3069 413.289 68.6048C412.991 68.9027 412.587 69.0701 412.166 69.0701H402.847C402.643 69.0702 402.441 69.0292 402.253 68.9494C402.066 68.8696 401.896 68.7527 401.755 68.6058C401.614 68.4588 401.503 68.2848 401.431 68.0942C401.359 67.9036 401.326 67.7004 401.334 67.4967Z" fill="white"/>
</g>
<path d="M395.968 164.337L402.368 179.798L395.968 182.446L389.539 166.878L378.963 175.078V131.522L409.463 162.325L395.968 164.337Z" fill="#101E37"/>
<path d="M378.964 126.847C378.696 126.147 378.563 125.402 378.571 124.653C378.554 123.903 378.688 123.157 378.964 122.459C379.236 123.158 379.364 123.904 379.342 124.653C379.356 125.402 379.227 126.146 378.964 126.847Z" fill="#101E37"/>
<path d="M375.18 128.359C374.502 128.051 373.887 127.62 373.365 127.088C372.82 126.572 372.387 125.949 372.094 125.258C372.777 125.565 373.393 126.002 373.91 126.544C374.455 127.054 374.887 127.672 375.18 128.359Z" fill="#101E37"/>
<path d="M373.622 132.097C372.212 132.621 370.66 132.621 369.25 132.097C370.664 131.593 372.208 131.593 373.622 132.097Z" fill="#101E37"/>
<path d="M375.18 135.924C374.887 136.61 374.455 137.229 373.91 137.739C373.393 138.281 372.777 138.717 372.094 139.025C372.387 138.334 372.82 137.711 373.365 137.195C373.887 136.663 374.502 136.232 375.18 135.924Z" fill="#101E37"/>
<path d="M384.364 132.097C385.783 131.593 387.333 131.593 388.752 132.097C387.336 132.622 385.78 132.622 384.364 132.097Z" fill="#101E37"/>
<path d="M382.731 128.359C383.035 127.678 383.467 127.062 384.002 126.544C384.522 125.998 385.144 125.561 385.833 125.258C385.191 126.602 384.092 127.675 382.731 128.283V128.359Z" fill="#101E37"/>
<rect x="371" y="226" width="50" height="50" rx="8" fill="#002733"/>
<path d="M393.186 238.045C394.21 237.831 394.999 238.402 394.999 239.304C395.009 239.582 394.921 239.855 394.748 240.082C394.576 240.309 394.329 240.478 394.045 240.563C390.875 241.484 390.414 242.436 390.414 244.523C390.414 245.136 390.48 246.149 390.48 246.795C390.48 249.188 389.261 250.326 387.049 251C389.226 251.646 390.48 252.812 390.48 255.206C390.48 255.851 390.414 256.864 390.414 257.478C390.414 259.565 390.875 260.517 394.045 261.437C394.329 261.523 394.575 261.692 394.748 261.919C394.92 262.146 395.008 262.419 394.999 262.696C394.999 263.588 394.21 264.17 393.186 263.956C388.072 262.914 386.719 261.009 386.719 257.999C386.719 257.539 386.784 256.312 386.784 255.791C386.784 253.547 385.895 252.534 383.648 252.473C382.629 252.413 382 251.831 382 251C382 250.169 382.629 249.573 383.648 249.527C385.895 249.434 386.784 248.457 386.784 246.181C386.784 245.661 386.719 244.43 386.719 243.97C386.719 240.991 388.072 239.09 393.186 238.045Z" fill="#FFF4E5"/>
<path d="M399.674 263.955C398.733 264.169 398.001 263.598 398.001 262.696C397.993 262.422 398.071 262.153 398.224 261.927C398.378 261.701 398.598 261.529 398.853 261.437C401.808 260.516 402.233 259.564 402.233 257.477C402.233 256.864 402.173 255.851 402.173 255.205C402.173 252.812 403.301 251.674 405.34 251C403.33 250.354 402.173 249.188 402.173 246.794C402.173 246.149 402.233 245.136 402.233 244.522C402.233 242.435 401.808 241.483 398.853 240.563C398.597 240.471 398.377 240.299 398.224 240.073C398.07 239.847 397.992 239.577 398.001 239.304C398.001 238.412 398.733 237.83 399.674 238.044C404.395 239.09 405.644 240.991 405.644 243.969C405.644 244.429 405.584 245.66 405.584 246.181C405.584 248.453 406.376 249.434 408.447 249.527C409.423 249.587 410 250.172 410 251C410 251.827 409.423 252.427 408.447 252.473C406.376 252.534 405.584 253.543 405.584 255.79C405.584 256.311 405.644 257.538 405.644 257.998C405.64 261.009 404.395 262.913 399.674 263.955Z" fill="#FFF4E5"/>
<defs>
<filter id="filter0_d_2391_20913" x="15.4855" y="176.486" width="164.688" height="115.759" filterUnits="userSpaceOnUse" color-interpolation-filters="sRGB">
<feFlood flood-opacity="0" result="BackgroundImageFix"/>
<feColorMatrix in="SourceAlpha" type="matrix" values="0 0 0 0 0 0 0 0 0 0 0 0 0 0 0 0 0 0 127 0" result="hardAlpha"/>
<feOffset/>
<feGaussianBlur stdDeviation="6.25725"/>
<feComposite in2="hardAlpha" operator="out"/>
<feColorMatrix type="matrix" values="0 0 0 0 0 0 0 0 0 0 0 0 0 0 0 0 0 0 0.08 0"/>
<feBlend mode="normal" in2="BackgroundImageFix" result="effect1_dropShadow_2391_20913"/>
<feBlend mode="normal" in="SourceGraphic" in2="effect1_dropShadow_2391_20913" result="shape"/>
</filter>
<filter id="filter1_d_2391_20913" x="416.486" y="213.486" width="75.029" height="75.029" filterUnits="userSpaceOnUse" color-interpolation-filters="sRGB">
<feFlood flood-opacity="0" result="BackgroundImageFix"/>
<feColorMatrix in="SourceAlpha" type="matrix" values="0 0 0 0 0 0 0 0 0 0 0 0 0 0 0 0 0 0 127 0" result="hardAlpha"/>
<feOffset/>
<feGaussianBlur stdDeviation="6.25725"/>
<feComposite in2="hardAlpha" operator="out"/>
<feColorMatrix type="matrix" values="0 0 0 0 0 0 0 0 0 0 0 0 0 0 0 0 0 0 0.08 0"/>
<feBlend mode="normal" in2="BackgroundImageFix" result="effect1_dropShadow_2391_20913"/>
<feBlend mode="normal" in="SourceGraphic" in2="effect1_dropShadow_2391_20913" result="shape"/>
</filter>
<filter id="filter2_d_2391_20913" x="416.486" y="213.486" width="75.029" height="75.029" filterUnits="userSpaceOnUse" color-interpolation-filters="sRGB">
<feFlood flood-opacity="0" result="BackgroundImageFix"/>
<feColorMatrix in="SourceAlpha" type="matrix" values="0 0 0 0 0 0 0 0 0 0 0 0 0 0 0 0 0 0 127 0" result="hardAlpha"/>
<feOffset/>
<feGaussianBlur stdDeviation="6.25725"/>
<feComposite in2="hardAlpha" operator="out"/>
<feColorMatrix type="matrix" values="0 0 0 0 0 0 0 0 0 0 0 0 0 0 0 0 0 0 0.08 0"/>
<feBlend mode="normal" in2="BackgroundImageFix" result="effect1_dropShadow_2391_20913"/>
<feBlend mode="normal" in="SourceGraphic" in2="effect1_dropShadow_2391_20913" result="shape"/>
</filter>
<filter id="filter3_d_2391_20913" x="128.062" y="37.341" width="277.681" height="232.855" filterUnits="userSpaceOnUse" color-interpolation-filters="sRGB">
<feFlood flood-opacity="0" result="BackgroundImageFix"/>
<feColorMatrix in="SourceAlpha" type="matrix" values="0 0 0 0 0 0 0 0 0 0 0 0 0 0 0 0 0 0 127 0" result="hardAlpha"/>
<feOffset/>
<feGaussianBlur stdDeviation="6.25725"/>
<feComposite in2="hardAlpha" operator="out"/>
<feColorMatrix type="matrix" values="0 0 0 0 0 0 0 0 0 0 0 0 0 0 0 0 0 0 0.08 0"/>
<feBlend mode="normal" in2="BackgroundImageFix" result="effect1_dropShadow_2391_20913"/>
<feBlend mode="normal" in="SourceGraphic" in2="effect1_dropShadow_2391_20913" result="shape"/>
</filter>
<clipPath id="clip0_2391_20913">
<rect x="323.812" y="40.6729" width="102.423" height="37.9281" rx="3.12862" fill="white"/>
</clipPath>
</defs>
</svg>
